G75*
%MOIN*%
%OFA0B0*%
%FSLAX25Y25*%
%IPPOS*%
%LPD*%
%AMOC8*
5,1,8,0,0,1.08239X$1,22.5*
%
%ADD10C,0.00300*%
%ADD11C,0.00000*%
%ADD12R,0.06102X0.02362*%
%ADD13R,0.07087X0.04724*%
%ADD14R,0.06693X0.04134*%
%ADD15R,0.03500X0.06000*%
%ADD16C,0.03200*%
%ADD17C,0.02000*%
%ADD18C,0.01200*%
D10*
X0003787Y0012449D02*
X0003787Y0140795D01*
X0026546Y0140852D01*
X0026546Y0140851D02*
X0026656Y0140853D01*
X0026766Y0140859D01*
X0026875Y0140868D01*
X0026984Y0140882D01*
X0027093Y0140899D01*
X0027201Y0140920D01*
X0027308Y0140945D01*
X0027414Y0140973D01*
X0027519Y0141005D01*
X0027623Y0141041D01*
X0027726Y0141080D01*
X0027827Y0141123D01*
X0027927Y0141170D01*
X0028025Y0141220D01*
X0028121Y0141273D01*
X0028215Y0141330D01*
X0028307Y0141390D01*
X0028398Y0141453D01*
X0028485Y0141519D01*
X0028571Y0141588D01*
X0028654Y0141660D01*
X0028734Y0141735D01*
X0028812Y0141813D01*
X0028887Y0141893D01*
X0028959Y0141976D01*
X0029028Y0142062D01*
X0029094Y0142149D01*
X0029157Y0142240D01*
X0029217Y0142332D01*
X0029274Y0142426D01*
X0029327Y0142522D01*
X0029377Y0142620D01*
X0029424Y0142720D01*
X0029467Y0142821D01*
X0029506Y0142924D01*
X0029542Y0143028D01*
X0029574Y0143133D01*
X0029602Y0143239D01*
X0029627Y0143346D01*
X0029648Y0143454D01*
X0029665Y0143563D01*
X0029679Y0143672D01*
X0029688Y0143781D01*
X0029694Y0143891D01*
X0029696Y0144001D01*
X0029695Y0144001D02*
X0029695Y0158174D01*
X0072291Y0158118D01*
X0072291Y0012449D01*
X0003787Y0012449D01*
D11*
X0021897Y0020323D02*
X0021899Y0020471D01*
X0021905Y0020619D01*
X0021915Y0020767D01*
X0021929Y0020914D01*
X0021947Y0021061D01*
X0021968Y0021207D01*
X0021994Y0021353D01*
X0022024Y0021498D01*
X0022057Y0021642D01*
X0022095Y0021785D01*
X0022136Y0021927D01*
X0022181Y0022068D01*
X0022229Y0022208D01*
X0022282Y0022347D01*
X0022338Y0022484D01*
X0022398Y0022619D01*
X0022461Y0022753D01*
X0022528Y0022885D01*
X0022599Y0023015D01*
X0022673Y0023143D01*
X0022750Y0023269D01*
X0022831Y0023393D01*
X0022915Y0023515D01*
X0023002Y0023634D01*
X0023093Y0023751D01*
X0023187Y0023866D01*
X0023283Y0023978D01*
X0023383Y0024088D01*
X0023485Y0024194D01*
X0023591Y0024298D01*
X0023699Y0024399D01*
X0023810Y0024497D01*
X0023923Y0024593D01*
X0024039Y0024685D01*
X0024157Y0024774D01*
X0024278Y0024859D01*
X0024401Y0024942D01*
X0024526Y0025021D01*
X0024653Y0025097D01*
X0024782Y0025169D01*
X0024913Y0025238D01*
X0025046Y0025303D01*
X0025181Y0025364D01*
X0025317Y0025422D01*
X0025454Y0025477D01*
X0025593Y0025527D01*
X0025734Y0025574D01*
X0025875Y0025617D01*
X0026018Y0025657D01*
X0026162Y0025692D01*
X0026306Y0025724D01*
X0026452Y0025751D01*
X0026598Y0025775D01*
X0026745Y0025795D01*
X0026892Y0025811D01*
X0027039Y0025823D01*
X0027187Y0025831D01*
X0027335Y0025835D01*
X0027483Y0025835D01*
X0027631Y0025831D01*
X0027779Y0025823D01*
X0027926Y0025811D01*
X0028073Y0025795D01*
X0028220Y0025775D01*
X0028366Y0025751D01*
X0028512Y0025724D01*
X0028656Y0025692D01*
X0028800Y0025657D01*
X0028943Y0025617D01*
X0029084Y0025574D01*
X0029225Y0025527D01*
X0029364Y0025477D01*
X0029501Y0025422D01*
X0029637Y0025364D01*
X0029772Y0025303D01*
X0029905Y0025238D01*
X0030036Y0025169D01*
X0030165Y0025097D01*
X0030292Y0025021D01*
X0030417Y0024942D01*
X0030540Y0024859D01*
X0030661Y0024774D01*
X0030779Y0024685D01*
X0030895Y0024593D01*
X0031008Y0024497D01*
X0031119Y0024399D01*
X0031227Y0024298D01*
X0031333Y0024194D01*
X0031435Y0024088D01*
X0031535Y0023978D01*
X0031631Y0023866D01*
X0031725Y0023751D01*
X0031816Y0023634D01*
X0031903Y0023515D01*
X0031987Y0023393D01*
X0032068Y0023269D01*
X0032145Y0023143D01*
X0032219Y0023015D01*
X0032290Y0022885D01*
X0032357Y0022753D01*
X0032420Y0022619D01*
X0032480Y0022484D01*
X0032536Y0022347D01*
X0032589Y0022208D01*
X0032637Y0022068D01*
X0032682Y0021927D01*
X0032723Y0021785D01*
X0032761Y0021642D01*
X0032794Y0021498D01*
X0032824Y0021353D01*
X0032850Y0021207D01*
X0032871Y0021061D01*
X0032889Y0020914D01*
X0032903Y0020767D01*
X0032913Y0020619D01*
X0032919Y0020471D01*
X0032921Y0020323D01*
X0032919Y0020175D01*
X0032913Y0020027D01*
X0032903Y0019879D01*
X0032889Y0019732D01*
X0032871Y0019585D01*
X0032850Y0019439D01*
X0032824Y0019293D01*
X0032794Y0019148D01*
X0032761Y0019004D01*
X0032723Y0018861D01*
X0032682Y0018719D01*
X0032637Y0018578D01*
X0032589Y0018438D01*
X0032536Y0018299D01*
X0032480Y0018162D01*
X0032420Y0018027D01*
X0032357Y0017893D01*
X0032290Y0017761D01*
X0032219Y0017631D01*
X0032145Y0017503D01*
X0032068Y0017377D01*
X0031987Y0017253D01*
X0031903Y0017131D01*
X0031816Y0017012D01*
X0031725Y0016895D01*
X0031631Y0016780D01*
X0031535Y0016668D01*
X0031435Y0016558D01*
X0031333Y0016452D01*
X0031227Y0016348D01*
X0031119Y0016247D01*
X0031008Y0016149D01*
X0030895Y0016053D01*
X0030779Y0015961D01*
X0030661Y0015872D01*
X0030540Y0015787D01*
X0030417Y0015704D01*
X0030292Y0015625D01*
X0030165Y0015549D01*
X0030036Y0015477D01*
X0029905Y0015408D01*
X0029772Y0015343D01*
X0029637Y0015282D01*
X0029501Y0015224D01*
X0029364Y0015169D01*
X0029225Y0015119D01*
X0029084Y0015072D01*
X0028943Y0015029D01*
X0028800Y0014989D01*
X0028656Y0014954D01*
X0028512Y0014922D01*
X0028366Y0014895D01*
X0028220Y0014871D01*
X0028073Y0014851D01*
X0027926Y0014835D01*
X0027779Y0014823D01*
X0027631Y0014815D01*
X0027483Y0014811D01*
X0027335Y0014811D01*
X0027187Y0014815D01*
X0027039Y0014823D01*
X0026892Y0014835D01*
X0026745Y0014851D01*
X0026598Y0014871D01*
X0026452Y0014895D01*
X0026306Y0014922D01*
X0026162Y0014954D01*
X0026018Y0014989D01*
X0025875Y0015029D01*
X0025734Y0015072D01*
X0025593Y0015119D01*
X0025454Y0015169D01*
X0025317Y0015224D01*
X0025181Y0015282D01*
X0025046Y0015343D01*
X0024913Y0015408D01*
X0024782Y0015477D01*
X0024653Y0015549D01*
X0024526Y0015625D01*
X0024401Y0015704D01*
X0024278Y0015787D01*
X0024157Y0015872D01*
X0024039Y0015961D01*
X0023923Y0016053D01*
X0023810Y0016149D01*
X0023699Y0016247D01*
X0023591Y0016348D01*
X0023485Y0016452D01*
X0023383Y0016558D01*
X0023283Y0016668D01*
X0023187Y0016780D01*
X0023093Y0016895D01*
X0023002Y0017012D01*
X0022915Y0017131D01*
X0022831Y0017253D01*
X0022750Y0017377D01*
X0022673Y0017503D01*
X0022599Y0017631D01*
X0022528Y0017761D01*
X0022461Y0017893D01*
X0022398Y0018027D01*
X0022338Y0018162D01*
X0022282Y0018299D01*
X0022229Y0018438D01*
X0022181Y0018578D01*
X0022136Y0018719D01*
X0022095Y0018861D01*
X0022057Y0019004D01*
X0022024Y0019148D01*
X0021994Y0019293D01*
X0021968Y0019439D01*
X0021947Y0019585D01*
X0021929Y0019732D01*
X0021915Y0019879D01*
X0021905Y0020027D01*
X0021899Y0020175D01*
X0021897Y0020323D01*
X0033643Y0144257D02*
X0033645Y0144405D01*
X0033651Y0144553D01*
X0033661Y0144701D01*
X0033675Y0144848D01*
X0033693Y0144995D01*
X0033714Y0145141D01*
X0033740Y0145287D01*
X0033770Y0145432D01*
X0033803Y0145576D01*
X0033841Y0145719D01*
X0033882Y0145861D01*
X0033927Y0146002D01*
X0033975Y0146142D01*
X0034028Y0146281D01*
X0034084Y0146418D01*
X0034144Y0146553D01*
X0034207Y0146687D01*
X0034274Y0146819D01*
X0034345Y0146949D01*
X0034419Y0147077D01*
X0034496Y0147203D01*
X0034577Y0147327D01*
X0034661Y0147449D01*
X0034748Y0147568D01*
X0034839Y0147685D01*
X0034933Y0147800D01*
X0035029Y0147912D01*
X0035129Y0148022D01*
X0035231Y0148128D01*
X0035337Y0148232D01*
X0035445Y0148333D01*
X0035556Y0148431D01*
X0035669Y0148527D01*
X0035785Y0148619D01*
X0035903Y0148708D01*
X0036024Y0148793D01*
X0036147Y0148876D01*
X0036272Y0148955D01*
X0036399Y0149031D01*
X0036528Y0149103D01*
X0036659Y0149172D01*
X0036792Y0149237D01*
X0036927Y0149298D01*
X0037063Y0149356D01*
X0037200Y0149411D01*
X0037339Y0149461D01*
X0037480Y0149508D01*
X0037621Y0149551D01*
X0037764Y0149591D01*
X0037908Y0149626D01*
X0038052Y0149658D01*
X0038198Y0149685D01*
X0038344Y0149709D01*
X0038491Y0149729D01*
X0038638Y0149745D01*
X0038785Y0149757D01*
X0038933Y0149765D01*
X0039081Y0149769D01*
X0039229Y0149769D01*
X0039377Y0149765D01*
X0039525Y0149757D01*
X0039672Y0149745D01*
X0039819Y0149729D01*
X0039966Y0149709D01*
X0040112Y0149685D01*
X0040258Y0149658D01*
X0040402Y0149626D01*
X0040546Y0149591D01*
X0040689Y0149551D01*
X0040830Y0149508D01*
X0040971Y0149461D01*
X0041110Y0149411D01*
X0041247Y0149356D01*
X0041383Y0149298D01*
X0041518Y0149237D01*
X0041651Y0149172D01*
X0041782Y0149103D01*
X0041911Y0149031D01*
X0042038Y0148955D01*
X0042163Y0148876D01*
X0042286Y0148793D01*
X0042407Y0148708D01*
X0042525Y0148619D01*
X0042641Y0148527D01*
X0042754Y0148431D01*
X0042865Y0148333D01*
X0042973Y0148232D01*
X0043079Y0148128D01*
X0043181Y0148022D01*
X0043281Y0147912D01*
X0043377Y0147800D01*
X0043471Y0147685D01*
X0043562Y0147568D01*
X0043649Y0147449D01*
X0043733Y0147327D01*
X0043814Y0147203D01*
X0043891Y0147077D01*
X0043965Y0146949D01*
X0044036Y0146819D01*
X0044103Y0146687D01*
X0044166Y0146553D01*
X0044226Y0146418D01*
X0044282Y0146281D01*
X0044335Y0146142D01*
X0044383Y0146002D01*
X0044428Y0145861D01*
X0044469Y0145719D01*
X0044507Y0145576D01*
X0044540Y0145432D01*
X0044570Y0145287D01*
X0044596Y0145141D01*
X0044617Y0144995D01*
X0044635Y0144848D01*
X0044649Y0144701D01*
X0044659Y0144553D01*
X0044665Y0144405D01*
X0044667Y0144257D01*
X0044665Y0144109D01*
X0044659Y0143961D01*
X0044649Y0143813D01*
X0044635Y0143666D01*
X0044617Y0143519D01*
X0044596Y0143373D01*
X0044570Y0143227D01*
X0044540Y0143082D01*
X0044507Y0142938D01*
X0044469Y0142795D01*
X0044428Y0142653D01*
X0044383Y0142512D01*
X0044335Y0142372D01*
X0044282Y0142233D01*
X0044226Y0142096D01*
X0044166Y0141961D01*
X0044103Y0141827D01*
X0044036Y0141695D01*
X0043965Y0141565D01*
X0043891Y0141437D01*
X0043814Y0141311D01*
X0043733Y0141187D01*
X0043649Y0141065D01*
X0043562Y0140946D01*
X0043471Y0140829D01*
X0043377Y0140714D01*
X0043281Y0140602D01*
X0043181Y0140492D01*
X0043079Y0140386D01*
X0042973Y0140282D01*
X0042865Y0140181D01*
X0042754Y0140083D01*
X0042641Y0139987D01*
X0042525Y0139895D01*
X0042407Y0139806D01*
X0042286Y0139721D01*
X0042163Y0139638D01*
X0042038Y0139559D01*
X0041911Y0139483D01*
X0041782Y0139411D01*
X0041651Y0139342D01*
X0041518Y0139277D01*
X0041383Y0139216D01*
X0041247Y0139158D01*
X0041110Y0139103D01*
X0040971Y0139053D01*
X0040830Y0139006D01*
X0040689Y0138963D01*
X0040546Y0138923D01*
X0040402Y0138888D01*
X0040258Y0138856D01*
X0040112Y0138829D01*
X0039966Y0138805D01*
X0039819Y0138785D01*
X0039672Y0138769D01*
X0039525Y0138757D01*
X0039377Y0138749D01*
X0039229Y0138745D01*
X0039081Y0138745D01*
X0038933Y0138749D01*
X0038785Y0138757D01*
X0038638Y0138769D01*
X0038491Y0138785D01*
X0038344Y0138805D01*
X0038198Y0138829D01*
X0038052Y0138856D01*
X0037908Y0138888D01*
X0037764Y0138923D01*
X0037621Y0138963D01*
X0037480Y0139006D01*
X0037339Y0139053D01*
X0037200Y0139103D01*
X0037063Y0139158D01*
X0036927Y0139216D01*
X0036792Y0139277D01*
X0036659Y0139342D01*
X0036528Y0139411D01*
X0036399Y0139483D01*
X0036272Y0139559D01*
X0036147Y0139638D01*
X0036024Y0139721D01*
X0035903Y0139806D01*
X0035785Y0139895D01*
X0035669Y0139987D01*
X0035556Y0140083D01*
X0035445Y0140181D01*
X0035337Y0140282D01*
X0035231Y0140386D01*
X0035129Y0140492D01*
X0035029Y0140602D01*
X0034933Y0140714D01*
X0034839Y0140829D01*
X0034748Y0140946D01*
X0034661Y0141065D01*
X0034577Y0141187D01*
X0034496Y0141311D01*
X0034419Y0141437D01*
X0034345Y0141565D01*
X0034274Y0141695D01*
X0034207Y0141827D01*
X0034144Y0141961D01*
X0034084Y0142096D01*
X0034028Y0142233D01*
X0033975Y0142372D01*
X0033927Y0142512D01*
X0033882Y0142653D01*
X0033841Y0142795D01*
X0033803Y0142938D01*
X0033770Y0143082D01*
X0033740Y0143227D01*
X0033714Y0143373D01*
X0033693Y0143519D01*
X0033675Y0143666D01*
X0033661Y0143813D01*
X0033651Y0143961D01*
X0033645Y0144109D01*
X0033643Y0144257D01*
D12*
X0053258Y0128046D03*
X0053258Y0124109D03*
X0053258Y0120172D03*
D13*
X0068514Y0115054D03*
X0068514Y0133164D03*
D14*
X0051416Y0070491D03*
X0051416Y0063995D03*
X0040786Y0063995D03*
X0040786Y0070491D03*
D15*
X0042395Y0071421D03*
X0042395Y0063064D03*
X0049810Y0063065D03*
X0049810Y0071414D03*
D16*
X0037788Y0063881D02*
X0036858Y0063881D01*
X0036858Y0125047D01*
X0039846Y0128035D01*
X0053176Y0128035D01*
D17*
X0053325Y0124161D02*
X0043418Y0124161D01*
X0041188Y0121932D01*
X0041188Y0092579D01*
X0050229Y0083539D01*
X0050229Y0070658D01*
X0050477Y0063847D02*
X0058898Y0063847D01*
X0061251Y0066200D01*
X0061251Y0088865D01*
X0051096Y0099020D01*
X0051096Y0120198D01*
D18*
X0053325Y0120198D01*
M02*
