G75*
%MOIN*%
%OFA0B0*%
%FSLAX25Y25*%
%IPPOS*%
%LPD*%
%AMOC8*
5,1,8,0,0,1.08239X$1,22.5*
%
%ADD10C,0.00600*%
%ADD11C,0.13855*%
%ADD12R,0.05209X0.12139*%
%ADD13R,0.03950X0.07099*%
%ADD14R,0.09068X0.12611*%
%ADD15R,0.06233X0.06233*%
%ADD16C,0.06233*%
D10*
X0001300Y0012452D02*
X0158780Y0012452D01*
X0158780Y0051764D01*
X0146969Y0051764D01*
X0146969Y0091192D01*
X0013111Y0091192D01*
X0013111Y0051764D01*
X0001300Y0051764D01*
X0001300Y0012452D01*
D11*
X0018598Y0042260D03*
X0070330Y0042260D03*
X0088716Y0042260D03*
X0140448Y0042260D03*
D12*
X0128361Y0056709D03*
X0118519Y0056709D03*
X0110645Y0056709D03*
X0100802Y0056709D03*
X0058243Y0056709D03*
X0048401Y0056709D03*
X0040527Y0056709D03*
X0030684Y0056709D03*
D13*
X0056509Y0073723D03*
X0061430Y0073723D03*
X0066352Y0073723D03*
X0071273Y0073723D03*
X0076194Y0073723D03*
X0081115Y0073723D03*
X0086037Y0073723D03*
X0090958Y0073723D03*
X0095879Y0073723D03*
X0100801Y0073723D03*
D14*
X0110835Y0085175D03*
X0046472Y0085180D03*
D15*
X0030686Y0052940D03*
X0100722Y0053023D03*
D16*
X0110574Y0053023D03*
X0118442Y0053023D03*
X0128292Y0053023D03*
X0058256Y0052940D03*
X0048406Y0052940D03*
X0040538Y0052940D03*
M02*
