G75*
%MOIN*%
%OFA0B0*%
%FSLAX25Y25*%
%IPPOS*%
%LPD*%
%AMOC8*
5,1,8,0,0,1.08239X$1,22.5*
%
%ADD10C,0.00600*%
%ADD11C,0.00500*%
%ADD12C,0.01000*%
%ADD13C,0.00787*%
D10*
X0001300Y0012452D02*
X0158780Y0012452D01*
X0158780Y0051764D01*
X0146969Y0051764D01*
X0146969Y0091192D01*
X0013111Y0091192D01*
X0013111Y0051764D01*
X0001300Y0051764D01*
X0001300Y0012452D01*
X0046520Y0072522D02*
X0051441Y0072522D01*
X0046520Y0072522D02*
X0046520Y0077443D01*
X0105918Y0072444D02*
X0110839Y0072444D01*
X0110839Y0077365D01*
D11*
X0133709Y0066210D02*
X0137098Y0066210D01*
X0134217Y0062821D01*
X0135234Y0060110D02*
X0135319Y0060112D01*
X0135404Y0060117D01*
X0135488Y0060127D01*
X0135572Y0060139D01*
X0135655Y0060156D01*
X0135738Y0060176D01*
X0135820Y0060200D01*
X0135900Y0060227D01*
X0135979Y0060257D01*
X0136057Y0060291D01*
X0136133Y0060329D01*
X0136208Y0060369D01*
X0136281Y0060413D01*
X0136352Y0060460D01*
X0136420Y0060510D01*
X0136487Y0060563D01*
X0136551Y0060619D01*
X0136613Y0060677D01*
X0136672Y0060738D01*
X0136728Y0060802D01*
X0136781Y0060868D01*
X0136832Y0060936D01*
X0136880Y0061006D01*
X0136924Y0061079D01*
X0136966Y0061153D01*
X0137004Y0061229D01*
X0137038Y0061306D01*
X0137070Y0061385D01*
X0137098Y0061465D01*
X0134217Y0062821D02*
X0134162Y0062766D01*
X0134110Y0062708D01*
X0134060Y0062648D01*
X0134013Y0062586D01*
X0133969Y0062521D01*
X0133929Y0062455D01*
X0133891Y0062386D01*
X0133857Y0062316D01*
X0133826Y0062244D01*
X0133799Y0062171D01*
X0133775Y0062097D01*
X0133755Y0062021D01*
X0133739Y0061945D01*
X0133726Y0061868D01*
X0133716Y0061791D01*
X0133711Y0061713D01*
X0133709Y0061635D01*
X0133711Y0061558D01*
X0133717Y0061481D01*
X0133727Y0061404D01*
X0133740Y0061328D01*
X0133758Y0061253D01*
X0133779Y0061178D01*
X0133804Y0061105D01*
X0133833Y0061034D01*
X0133865Y0060963D01*
X0133901Y0060895D01*
X0133940Y0060828D01*
X0133982Y0060764D01*
X0134028Y0060702D01*
X0134077Y0060642D01*
X0134129Y0060584D01*
X0134183Y0060530D01*
X0134241Y0060478D01*
X0134301Y0060429D01*
X0134363Y0060383D01*
X0134427Y0060341D01*
X0134494Y0060302D01*
X0134562Y0060266D01*
X0134633Y0060234D01*
X0134704Y0060205D01*
X0134777Y0060180D01*
X0134852Y0060159D01*
X0134927Y0060141D01*
X0135003Y0060128D01*
X0135080Y0060118D01*
X0135157Y0060112D01*
X0135234Y0060110D01*
X0139736Y0060110D02*
X0139736Y0064855D01*
X0139738Y0064926D01*
X0139743Y0064997D01*
X0139753Y0065067D01*
X0139766Y0065137D01*
X0139782Y0065206D01*
X0139802Y0065274D01*
X0139826Y0065341D01*
X0139853Y0065407D01*
X0139884Y0065471D01*
X0139918Y0065533D01*
X0139955Y0065594D01*
X0139995Y0065652D01*
X0140038Y0065708D01*
X0140084Y0065762D01*
X0140133Y0065814D01*
X0140185Y0065863D01*
X0140239Y0065909D01*
X0140295Y0065952D01*
X0140353Y0065992D01*
X0140414Y0066029D01*
X0140476Y0066063D01*
X0140540Y0066094D01*
X0140606Y0066121D01*
X0140673Y0066145D01*
X0140741Y0066165D01*
X0140810Y0066181D01*
X0140880Y0066194D01*
X0140950Y0066204D01*
X0141021Y0066209D01*
X0141092Y0066211D01*
X0141092Y0066210D02*
X0141769Y0066210D01*
X0041444Y0089367D02*
X0040766Y0089367D01*
X0040695Y0089365D01*
X0040624Y0089360D01*
X0040554Y0089350D01*
X0040484Y0089337D01*
X0040415Y0089321D01*
X0040347Y0089301D01*
X0040280Y0089277D01*
X0040214Y0089250D01*
X0040150Y0089219D01*
X0040088Y0089185D01*
X0040027Y0089148D01*
X0039969Y0089108D01*
X0039913Y0089065D01*
X0039859Y0089019D01*
X0039807Y0088970D01*
X0039758Y0088918D01*
X0039712Y0088864D01*
X0039669Y0088808D01*
X0039629Y0088750D01*
X0039592Y0088689D01*
X0039558Y0088627D01*
X0039527Y0088563D01*
X0039500Y0088497D01*
X0039476Y0088430D01*
X0039456Y0088362D01*
X0039440Y0088293D01*
X0039427Y0088223D01*
X0039417Y0088153D01*
X0039412Y0088082D01*
X0039410Y0088011D01*
X0039410Y0083267D01*
X0036772Y0083267D02*
X0034739Y0083267D01*
X0034739Y0083266D02*
X0034667Y0083268D01*
X0034595Y0083274D01*
X0034523Y0083283D01*
X0034452Y0083297D01*
X0034382Y0083314D01*
X0034313Y0083335D01*
X0034245Y0083359D01*
X0034179Y0083387D01*
X0034114Y0083419D01*
X0034051Y0083454D01*
X0033989Y0083492D01*
X0033930Y0083534D01*
X0033874Y0083578D01*
X0033819Y0083626D01*
X0033767Y0083676D01*
X0033719Y0083729D01*
X0033672Y0083785D01*
X0033629Y0083843D01*
X0033589Y0083903D01*
X0033553Y0083965D01*
X0033520Y0084029D01*
X0033490Y0084095D01*
X0033463Y0084162D01*
X0033441Y0084231D01*
X0033422Y0084300D01*
X0033406Y0084371D01*
X0033395Y0084442D01*
X0033387Y0084514D01*
X0033383Y0084586D01*
X0033383Y0084658D01*
X0033387Y0084730D01*
X0033395Y0084802D01*
X0033406Y0084873D01*
X0033422Y0084944D01*
X0033441Y0085013D01*
X0033463Y0085082D01*
X0033490Y0085149D01*
X0033520Y0085215D01*
X0033553Y0085279D01*
X0033589Y0085341D01*
X0033629Y0085401D01*
X0033672Y0085459D01*
X0033719Y0085515D01*
X0033767Y0085568D01*
X0033819Y0085618D01*
X0033874Y0085666D01*
X0033930Y0085710D01*
X0033989Y0085752D01*
X0034051Y0085790D01*
X0034114Y0085825D01*
X0034179Y0085857D01*
X0034245Y0085885D01*
X0034313Y0085909D01*
X0034382Y0085930D01*
X0034452Y0085947D01*
X0034523Y0085961D01*
X0034595Y0085970D01*
X0034667Y0085976D01*
X0034739Y0085978D01*
X0036094Y0085978D01*
X0035077Y0085978D02*
X0034996Y0085980D01*
X0034916Y0085986D01*
X0034836Y0085995D01*
X0034756Y0086009D01*
X0034678Y0086026D01*
X0034600Y0086047D01*
X0034523Y0086071D01*
X0034447Y0086099D01*
X0034373Y0086131D01*
X0034301Y0086166D01*
X0034230Y0086205D01*
X0034161Y0086247D01*
X0034094Y0086292D01*
X0034030Y0086340D01*
X0033968Y0086392D01*
X0033908Y0086446D01*
X0033851Y0086503D01*
X0033797Y0086563D01*
X0033745Y0086625D01*
X0033697Y0086689D01*
X0033652Y0086756D01*
X0033610Y0086825D01*
X0033571Y0086896D01*
X0033536Y0086968D01*
X0033504Y0087042D01*
X0033476Y0087118D01*
X0033452Y0087195D01*
X0033431Y0087273D01*
X0033414Y0087351D01*
X0033400Y0087431D01*
X0033391Y0087511D01*
X0033385Y0087591D01*
X0033383Y0087672D01*
X0033385Y0087753D01*
X0033391Y0087833D01*
X0033400Y0087913D01*
X0033414Y0087993D01*
X0033431Y0088071D01*
X0033452Y0088149D01*
X0033476Y0088226D01*
X0033504Y0088302D01*
X0033536Y0088376D01*
X0033571Y0088448D01*
X0033610Y0088519D01*
X0033652Y0088588D01*
X0033697Y0088655D01*
X0033745Y0088719D01*
X0033797Y0088781D01*
X0033851Y0088841D01*
X0033908Y0088898D01*
X0033968Y0088952D01*
X0034030Y0089004D01*
X0034094Y0089052D01*
X0034161Y0089097D01*
X0034230Y0089139D01*
X0034301Y0089178D01*
X0034373Y0089213D01*
X0034447Y0089245D01*
X0034523Y0089273D01*
X0034600Y0089297D01*
X0034678Y0089318D01*
X0034756Y0089335D01*
X0034836Y0089349D01*
X0034916Y0089358D01*
X0034996Y0089364D01*
X0035077Y0089366D01*
X0035077Y0089367D02*
X0036772Y0089367D01*
X0026456Y0066798D02*
X0025779Y0066798D01*
X0025708Y0066796D01*
X0025637Y0066791D01*
X0025567Y0066781D01*
X0025497Y0066768D01*
X0025428Y0066752D01*
X0025360Y0066732D01*
X0025293Y0066708D01*
X0025227Y0066681D01*
X0025163Y0066650D01*
X0025101Y0066616D01*
X0025040Y0066579D01*
X0024982Y0066539D01*
X0024926Y0066496D01*
X0024872Y0066450D01*
X0024820Y0066401D01*
X0024771Y0066349D01*
X0024725Y0066295D01*
X0024682Y0066239D01*
X0024642Y0066181D01*
X0024605Y0066120D01*
X0024571Y0066058D01*
X0024540Y0065994D01*
X0024513Y0065928D01*
X0024489Y0065861D01*
X0024469Y0065793D01*
X0024453Y0065724D01*
X0024440Y0065654D01*
X0024430Y0065584D01*
X0024425Y0065513D01*
X0024423Y0065442D01*
X0024423Y0060698D01*
X0021784Y0062053D02*
X0020090Y0060698D01*
X0020090Y0066798D01*
X0021784Y0066798D02*
X0018396Y0066798D01*
D12*
X0019724Y0026043D02*
X0069259Y0026043D01*
X0069259Y0014075D02*
X0019724Y0014075D01*
X0089842Y0014075D02*
X0139377Y0014075D01*
X0139377Y0026043D02*
X0089842Y0026043D01*
D13*
X0089582Y0034465D02*
X0089582Y0001394D01*
X0139582Y0001394D01*
X0139582Y0034465D01*
X0139582Y0050213D02*
X0139582Y0057299D01*
X0131905Y0057299D01*
X0097259Y0057299D02*
X0089582Y0057299D01*
X0089582Y0050213D01*
X0069464Y0050213D02*
X0069464Y0057299D01*
X0061787Y0057299D01*
X0069464Y0034465D02*
X0069464Y0001394D01*
X0019464Y0001394D01*
X0019464Y0034465D01*
X0019464Y0050213D02*
X0019464Y0057299D01*
X0027141Y0057299D01*
M02*
