G75*
%MOIN*%
%OFA0B0*%
%FSLAX25Y25*%
%IPPOS*%
%LPD*%
%AMOC8*
5,1,8,0,0,1.08239X$1,22.5*
%
%ADD10C,0.00600*%
%ADD11C,0.13055*%
%ADD12C,0.02000*%
%ADD13R,0.05433X0.05433*%
%ADD14C,0.05433*%
%ADD15C,0.02978*%
%ADD16C,0.01200*%
D10*
X0001300Y0012452D02*
X0158780Y0012452D01*
X0158780Y0051764D01*
X0146969Y0051764D01*
X0146969Y0091192D01*
X0013111Y0091192D01*
X0013111Y0051764D01*
X0001300Y0051764D01*
X0001300Y0012452D01*
D11*
X0018598Y0042260D03*
X0070330Y0042260D03*
X0088716Y0042260D03*
X0140448Y0042260D03*
D12*
X0134933Y0042506D02*
X0093988Y0042506D01*
X0065327Y0042506D02*
X0024382Y0042506D01*
D13*
X0030686Y0052940D03*
X0100722Y0053023D03*
D14*
X0110574Y0053023D03*
X0118442Y0053023D03*
X0128292Y0053023D03*
X0058256Y0052940D03*
X0048406Y0052940D03*
X0040538Y0052940D03*
D15*
X0063752Y0066915D03*
X0061389Y0081088D03*
X0088500Y0066915D03*
X0090900Y0081088D03*
D16*
X0090879Y0081151D02*
X0115822Y0081151D01*
X0118428Y0078545D01*
X0118468Y0053000D01*
X0110560Y0052950D02*
X0110519Y0064421D01*
X0108023Y0066917D01*
X0088469Y0066917D01*
X0063752Y0066915D02*
X0050778Y0066915D01*
X0048412Y0064549D01*
X0048412Y0052694D01*
X0040541Y0052630D02*
X0040541Y0078183D01*
X0043485Y0081127D01*
X0061530Y0081127D01*
M02*
