G75*
%MOIN*%
%OFA0B0*%
%FSLAX25Y25*%
%IPPOS*%
%LPD*%
%AMOC8*
5,1,8,0,0,1.08239X$1,22.5*
%
%ADD10C,0.00394*%
%ADD11C,0.00000*%
D10*
X0010387Y0007469D02*
X0010387Y0042237D01*
X0010385Y0042365D01*
X0010379Y0042494D01*
X0010370Y0042622D01*
X0010356Y0042749D01*
X0010339Y0042877D01*
X0010317Y0043003D01*
X0010292Y0043129D01*
X0010263Y0043254D01*
X0010231Y0043379D01*
X0010195Y0043502D01*
X0010154Y0043624D01*
X0010111Y0043744D01*
X0010063Y0043864D01*
X0010012Y0043982D01*
X0009958Y0044098D01*
X0009900Y0044213D01*
X0009839Y0044325D01*
X0009774Y0044436D01*
X0009706Y0044545D01*
X0009635Y0044652D01*
X0009560Y0044756D01*
X0009482Y0044859D01*
X0009402Y0044959D01*
X0009318Y0045056D01*
X0009231Y0045151D01*
X0009142Y0045243D01*
X0009050Y0045332D01*
X0008955Y0045419D01*
X0008858Y0045503D01*
X0008758Y0045583D01*
X0008655Y0045661D01*
X0008551Y0045736D01*
X0008444Y0045807D01*
X0008335Y0045875D01*
X0008224Y0045940D01*
X0008112Y0046001D01*
X0007997Y0046059D01*
X0007881Y0046113D01*
X0007763Y0046164D01*
X0007643Y0046212D01*
X0007523Y0046255D01*
X0007401Y0046296D01*
X0007278Y0046332D01*
X0007153Y0046364D01*
X0007028Y0046393D01*
X0006902Y0046418D01*
X0006776Y0046440D01*
X0006648Y0046457D01*
X0006521Y0046471D01*
X0006393Y0046480D01*
X0006264Y0046486D01*
X0006136Y0046488D01*
X0001301Y0046488D01*
X0001301Y0065978D01*
X0063196Y0065978D01*
X0061970Y0064165D02*
X0061204Y0064093D01*
X0060748Y0063476D01*
X0060922Y0062878D01*
X0061250Y0063549D01*
X0061932Y0063701D01*
X0062156Y0062977D01*
X0061850Y0062262D01*
X0061381Y0061628D01*
X0060926Y0060986D01*
X0060534Y0060304D01*
X0061178Y0059979D01*
X0061966Y0059972D01*
X0062741Y0059984D01*
X0062283Y0060386D01*
X0061496Y0060408D01*
X0061415Y0060903D01*
X0062340Y0062178D01*
X0062627Y0062900D01*
X0062548Y0063675D01*
X0061970Y0064165D01*
X0062407Y0063795D02*
X0060984Y0063795D01*
X0061178Y0063403D02*
X0060769Y0063403D01*
X0060883Y0063010D02*
X0060987Y0063010D01*
X0060010Y0062646D02*
X0059829Y0063410D01*
X0059318Y0063988D01*
X0058611Y0064180D01*
X0058529Y0063767D01*
X0059180Y0063477D01*
X0059471Y0062762D01*
X0059492Y0061975D01*
X0059402Y0061194D01*
X0058556Y0060423D01*
X0058263Y0060858D01*
X0058263Y0063221D01*
X0058467Y0063741D01*
X0058514Y0064193D01*
X0057776Y0064202D01*
X0057766Y0063425D01*
X0057766Y0062637D01*
X0057766Y0062055D01*
X0057765Y0060480D01*
X0058043Y0059995D01*
X0058825Y0060085D01*
X0059533Y0060405D01*
X0059912Y0061083D01*
X0060032Y0061860D01*
X0060010Y0062646D01*
X0060011Y0062618D02*
X0059475Y0062618D01*
X0059485Y0062226D02*
X0060022Y0062226D01*
X0060028Y0061834D02*
X0059476Y0061834D01*
X0059431Y0061442D02*
X0059968Y0061442D01*
X0059893Y0061049D02*
X0059244Y0061049D01*
X0059674Y0060657D02*
X0058813Y0060657D01*
X0058398Y0060657D02*
X0057765Y0060657D01*
X0057765Y0061049D02*
X0058263Y0061049D01*
X0058263Y0061442D02*
X0057765Y0061442D01*
X0057765Y0061834D02*
X0058263Y0061834D01*
X0058263Y0062226D02*
X0057766Y0062226D01*
X0057766Y0062618D02*
X0058263Y0062618D01*
X0058263Y0063010D02*
X0057766Y0063010D01*
X0057766Y0063403D02*
X0058334Y0063403D01*
X0058472Y0063795D02*
X0057770Y0063795D01*
X0057776Y0064187D02*
X0058514Y0064187D01*
X0058535Y0063795D02*
X0059488Y0063795D01*
X0059210Y0063403D02*
X0059831Y0063403D01*
X0059924Y0063010D02*
X0059370Y0063010D01*
X0061823Y0062226D02*
X0062359Y0062226D01*
X0062515Y0062618D02*
X0062002Y0062618D01*
X0062146Y0063010D02*
X0062615Y0063010D01*
X0062576Y0063403D02*
X0062024Y0063403D01*
X0055321Y0062179D02*
X0055122Y0062923D01*
X0054702Y0063586D01*
X0054182Y0064178D01*
X0053618Y0064726D01*
X0053026Y0065246D01*
X0052459Y0064987D01*
X0053620Y0063946D01*
X0054162Y0063376D01*
X0054595Y0062721D01*
X0054732Y0061949D01*
X0054765Y0061162D01*
X0054776Y0060374D01*
X0054780Y0052499D01*
X0054413Y0051822D01*
X0053949Y0051186D01*
X0053431Y0050594D01*
X0052878Y0050033D01*
X0052295Y0049504D01*
X0051668Y0049028D01*
X0050999Y0048613D01*
X0050301Y0048249D01*
X0049579Y0047935D01*
X0048837Y0047672D01*
X0048076Y0047468D01*
X0047301Y0047332D01*
X0046517Y0047254D01*
X0045731Y0047219D01*
X0044944Y0047230D01*
X0044162Y0047320D01*
X0043394Y0047492D01*
X0042643Y0047731D01*
X0041915Y0048031D01*
X0041214Y0048388D01*
X0040541Y0048796D01*
X0039899Y0049252D01*
X0039291Y0049752D01*
X0038718Y0050292D01*
X0038183Y0050870D01*
X0037690Y0051484D01*
X0037246Y0052134D01*
X0036857Y0052818D01*
X0036528Y0053533D01*
X0036263Y0054275D01*
X0036068Y0055038D01*
X0035943Y0055815D01*
X0035889Y0056601D01*
X0035904Y0057388D01*
X0035984Y0058171D01*
X0036120Y0058946D01*
X0036303Y0059712D01*
X0036533Y0060465D01*
X0036811Y0061202D01*
X0037138Y0061918D01*
X0037515Y0062609D01*
X0037941Y0063271D01*
X0038417Y0063898D01*
X0038942Y0064485D01*
X0039382Y0065056D01*
X0038819Y0065193D01*
X0038278Y0064622D01*
X0037770Y0064020D01*
X0037312Y0063380D01*
X0036902Y0062708D01*
X0036538Y0062009D01*
X0036222Y0061288D01*
X0035951Y0060549D01*
X0035727Y0059794D01*
X0035548Y0059027D01*
X0035417Y0058251D01*
X0035334Y0057468D01*
X0035307Y0056681D01*
X0035352Y0055895D01*
X0035468Y0055116D01*
X0035650Y0054351D01*
X0035895Y0053602D01*
X0036198Y0052876D01*
X0036554Y0052174D01*
X0036959Y0051499D01*
X0037427Y0050865D01*
X0037951Y0050278D01*
X0038503Y0049716D01*
X0039078Y0049179D01*
X0039682Y0048673D01*
X0040333Y0048232D01*
X0041018Y0047844D01*
X0041727Y0047499D01*
X0042454Y0047199D01*
X0043200Y0046948D01*
X0043964Y0046759D01*
X0044515Y0046678D01*
X0045301Y0046645D01*
X0046089Y0046666D01*
X0046874Y0046724D01*
X0047655Y0046821D01*
X0048428Y0046970D01*
X0049185Y0047185D01*
X0049926Y0047453D01*
X0050645Y0047773D01*
X0051339Y0048145D01*
X0052004Y0048567D01*
X0052635Y0049038D01*
X0053230Y0049553D01*
X0053786Y0050111D01*
X0054300Y0050707D01*
X0054772Y0051338D01*
X0055185Y0052007D01*
X0055327Y0052729D01*
X0055341Y0053516D01*
X0055348Y0055092D01*
X0055344Y0056667D01*
X0055321Y0062179D01*
X0055308Y0062226D02*
X0054682Y0062226D01*
X0054736Y0061834D02*
X0055322Y0061834D01*
X0055324Y0061442D02*
X0054753Y0061442D01*
X0054766Y0061049D02*
X0055325Y0061049D01*
X0055327Y0060657D02*
X0054772Y0060657D01*
X0054776Y0060265D02*
X0055329Y0060265D01*
X0055331Y0059873D02*
X0054776Y0059873D01*
X0054776Y0059481D02*
X0055332Y0059481D01*
X0055334Y0059088D02*
X0054777Y0059088D01*
X0054777Y0058696D02*
X0055336Y0058696D01*
X0055337Y0058304D02*
X0054777Y0058304D01*
X0054777Y0057912D02*
X0055339Y0057912D01*
X0055341Y0057519D02*
X0054778Y0057519D01*
X0054778Y0057127D02*
X0055342Y0057127D01*
X0055344Y0056735D02*
X0054778Y0056735D01*
X0054778Y0056343D02*
X0055345Y0056343D01*
X0055346Y0055951D02*
X0054778Y0055951D01*
X0054779Y0055558D02*
X0055347Y0055558D01*
X0055348Y0055166D02*
X0054779Y0055166D01*
X0054779Y0054774D02*
X0055346Y0054774D01*
X0055345Y0054382D02*
X0054779Y0054382D01*
X0054779Y0053990D02*
X0055343Y0053990D01*
X0055342Y0053597D02*
X0054780Y0053597D01*
X0054780Y0053205D02*
X0055335Y0053205D01*
X0055328Y0052813D02*
X0054780Y0052813D01*
X0054738Y0052421D02*
X0055266Y0052421D01*
X0055189Y0052028D02*
X0054525Y0052028D01*
X0054278Y0051636D02*
X0054956Y0051636D01*
X0054702Y0051244D02*
X0053991Y0051244D01*
X0053656Y0050852D02*
X0054408Y0050852D01*
X0054087Y0050460D02*
X0053299Y0050460D01*
X0052913Y0050067D02*
X0053743Y0050067D01*
X0053352Y0049675D02*
X0052483Y0049675D01*
X0052918Y0049283D02*
X0052003Y0049283D01*
X0052438Y0048891D02*
X0051447Y0048891D01*
X0051896Y0048499D02*
X0050780Y0048499D01*
X0051267Y0048106D02*
X0049974Y0048106D01*
X0050512Y0047714D02*
X0048955Y0047714D01*
X0049563Y0047322D02*
X0047202Y0047322D01*
X0048222Y0046930D02*
X0043274Y0046930D01*
X0044151Y0047322D02*
X0042156Y0047322D01*
X0042695Y0047714D02*
X0041285Y0047714D01*
X0041767Y0048106D02*
X0040555Y0048106D01*
X0041032Y0048499D02*
X0039940Y0048499D01*
X0040408Y0048891D02*
X0039422Y0048891D01*
X0039862Y0049283D02*
X0038966Y0049283D01*
X0038547Y0049675D02*
X0039385Y0049675D01*
X0038957Y0050067D02*
X0038157Y0050067D01*
X0037789Y0050460D02*
X0038563Y0050460D01*
X0038199Y0050852D02*
X0037439Y0050852D01*
X0037147Y0051244D02*
X0037882Y0051244D01*
X0037586Y0051636D02*
X0036877Y0051636D01*
X0036641Y0052028D02*
X0037318Y0052028D01*
X0037083Y0052421D02*
X0036429Y0052421D01*
X0036230Y0052813D02*
X0036860Y0052813D01*
X0036679Y0053205D02*
X0036061Y0053205D01*
X0035897Y0053597D02*
X0036505Y0053597D01*
X0036365Y0053990D02*
X0035768Y0053990D01*
X0035643Y0054382D02*
X0036236Y0054382D01*
X0036136Y0054774D02*
X0035549Y0054774D01*
X0035209Y0054774D02*
X0034629Y0054774D01*
X0034629Y0055166D02*
X0035209Y0055166D01*
X0035460Y0055166D02*
X0036047Y0055166D01*
X0035984Y0055558D02*
X0035402Y0055558D01*
X0035209Y0055558D02*
X0034629Y0055558D01*
X0034629Y0055951D02*
X0035209Y0055951D01*
X0035349Y0055951D02*
X0035934Y0055951D01*
X0035907Y0056343D02*
X0035326Y0056343D01*
X0035209Y0056343D02*
X0034629Y0056343D01*
X0034629Y0056735D02*
X0035209Y0056735D01*
X0035309Y0056735D02*
X0035892Y0056735D01*
X0035899Y0057127D02*
X0035322Y0057127D01*
X0035209Y0057127D02*
X0034629Y0057127D01*
X0034629Y0057519D02*
X0035209Y0057519D01*
X0035340Y0057519D02*
X0035917Y0057519D01*
X0035958Y0057912D02*
X0035381Y0057912D01*
X0035209Y0057912D02*
X0034629Y0057912D01*
X0034629Y0058304D02*
X0035209Y0058304D01*
X0035426Y0058304D02*
X0036007Y0058304D01*
X0036076Y0058696D02*
X0035492Y0058696D01*
X0035209Y0058696D02*
X0034629Y0058696D01*
X0034629Y0059088D02*
X0035209Y0059088D01*
X0035563Y0059088D02*
X0036154Y0059088D01*
X0036247Y0059481D02*
X0035654Y0059481D01*
X0035750Y0059873D02*
X0036352Y0059873D01*
X0036472Y0060265D02*
X0035867Y0060265D01*
X0035991Y0060657D02*
X0036605Y0060657D01*
X0036753Y0061049D02*
X0036135Y0061049D01*
X0036289Y0061442D02*
X0036921Y0061442D01*
X0037100Y0061834D02*
X0036461Y0061834D01*
X0036651Y0062226D02*
X0037306Y0062226D01*
X0037521Y0062618D02*
X0036855Y0062618D01*
X0037086Y0063010D02*
X0037773Y0063010D01*
X0038041Y0063403D02*
X0037328Y0063403D01*
X0037609Y0063795D02*
X0038339Y0063795D01*
X0038675Y0064187D02*
X0037911Y0064187D01*
X0038242Y0064579D02*
X0039015Y0064579D01*
X0039317Y0064971D02*
X0038609Y0064971D01*
X0035209Y0063432D02*
X0034740Y0064033D01*
X0034188Y0064595D01*
X0033612Y0065133D01*
X0033024Y0065455D01*
X0032974Y0064917D01*
X0033570Y0064403D01*
X0034144Y0063864D01*
X0034629Y0063257D01*
X0034629Y0052231D01*
X0034362Y0051527D01*
X0033859Y0050921D01*
X0033309Y0050358D01*
X0032731Y0049823D01*
X0032120Y0049327D01*
X0031462Y0048895D01*
X0030772Y0048516D01*
X0030056Y0048187D01*
X0029319Y0047909D01*
X0028564Y0047687D01*
X0027793Y0047530D01*
X0027011Y0047438D01*
X0026225Y0047391D01*
X0025438Y0047387D01*
X0024653Y0047448D01*
X0023880Y0047600D01*
X0023124Y0047820D01*
X0022390Y0048103D01*
X0021680Y0048443D01*
X0020998Y0048837D01*
X0020347Y0049279D01*
X0019729Y0049767D01*
X0019146Y0050296D01*
X0018598Y0050862D01*
X0018093Y0051466D01*
X0017634Y0052105D01*
X0017228Y0052780D01*
X0016880Y0053487D01*
X0016597Y0054221D01*
X0016381Y0054978D01*
X0016236Y0055752D01*
X0016161Y0056535D01*
X0016156Y0057323D01*
X0016217Y0058107D01*
X0016338Y0058885D01*
X0016507Y0059654D01*
X0016723Y0060411D01*
X0016987Y0061153D01*
X0017300Y0061876D01*
X0017662Y0062575D01*
X0018074Y0063246D01*
X0018535Y0063884D01*
X0019047Y0064482D01*
X0019586Y0065056D01*
X0019242Y0065526D01*
X0018699Y0064956D01*
X0018177Y0064367D01*
X0017704Y0063737D01*
X0017280Y0063073D01*
X0016903Y0062382D01*
X0016573Y0061668D01*
X0016289Y0060933D01*
X0016050Y0060183D01*
X0015859Y0059419D01*
X0015714Y0058645D01*
X0015617Y0057864D01*
X0015571Y0057078D01*
X0015594Y0056291D01*
X0015690Y0055510D01*
X0015853Y0054739D01*
X0016080Y0053986D01*
X0016366Y0053252D01*
X0016707Y0052543D01*
X0017099Y0051860D01*
X0017544Y0051211D01*
X0018056Y0050613D01*
X0018601Y0050044D01*
X0019170Y0049500D01*
X0019764Y0048983D01*
X0020400Y0048520D01*
X0021078Y0048119D01*
X0021780Y0047762D01*
X0022502Y0047448D01*
X0023243Y0047182D01*
X0024002Y0046972D01*
X0024950Y0046822D01*
X0025736Y0046806D01*
X0026523Y0046847D01*
X0027308Y0046911D01*
X0028087Y0047022D01*
X0028858Y0047184D01*
X0029614Y0047403D01*
X0030351Y0047680D01*
X0031064Y0048014D01*
X0031749Y0048402D01*
X0032404Y0048839D01*
X0033027Y0049320D01*
X0033620Y0049838D01*
X0034173Y0050399D01*
X0034675Y0051005D01*
X0035138Y0051642D01*
X0035209Y0052407D01*
X0035209Y0063432D01*
X0035209Y0063403D02*
X0034512Y0063403D01*
X0034629Y0063010D02*
X0035209Y0063010D01*
X0035209Y0062618D02*
X0034629Y0062618D01*
X0034629Y0062226D02*
X0035209Y0062226D01*
X0035209Y0061834D02*
X0034629Y0061834D01*
X0034629Y0061442D02*
X0035209Y0061442D01*
X0035209Y0061049D02*
X0034629Y0061049D01*
X0034629Y0060657D02*
X0035209Y0060657D01*
X0035209Y0060265D02*
X0034629Y0060265D01*
X0034629Y0059873D02*
X0035209Y0059873D01*
X0035209Y0059481D02*
X0034629Y0059481D01*
X0028741Y0059754D02*
X0028741Y0061328D01*
X0029225Y0061631D01*
X0030801Y0061631D01*
X0031147Y0061189D01*
X0031726Y0061019D01*
X0031726Y0061807D01*
X0031343Y0062212D01*
X0028981Y0062212D01*
X0028741Y0062759D01*
X0028741Y0063547D01*
X0028608Y0064202D01*
X0028160Y0063862D01*
X0028159Y0063075D01*
X0028105Y0062295D01*
X0027374Y0062585D01*
X0025924Y0063201D01*
X0025202Y0063517D01*
X0024473Y0063797D01*
X0024182Y0063229D01*
X0024180Y0062441D01*
X0023621Y0062212D01*
X0021259Y0062212D01*
X0021194Y0061489D01*
X0021543Y0061051D01*
X0021816Y0061631D01*
X0024179Y0061631D01*
X0024180Y0060844D01*
X0024335Y0060134D01*
X0025056Y0060266D01*
X0025782Y0060569D01*
X0027943Y0061525D01*
X0028133Y0061008D01*
X0028161Y0059906D01*
X0028741Y0059754D01*
X0028741Y0059873D02*
X0028288Y0059873D01*
X0028152Y0060265D02*
X0028741Y0060265D01*
X0028741Y0060657D02*
X0028142Y0060657D01*
X0028118Y0061049D02*
X0028741Y0061049D01*
X0028922Y0061442D02*
X0027974Y0061442D01*
X0027753Y0061442D02*
X0024179Y0061442D01*
X0024179Y0061049D02*
X0026868Y0061049D01*
X0025982Y0060657D02*
X0024221Y0060657D01*
X0024307Y0060265D02*
X0025051Y0060265D01*
X0021727Y0061442D02*
X0021232Y0061442D01*
X0021225Y0061834D02*
X0031701Y0061834D01*
X0031726Y0061442D02*
X0030949Y0061442D01*
X0031623Y0061049D02*
X0031726Y0061049D01*
X0028974Y0062226D02*
X0023656Y0062226D01*
X0024180Y0062618D02*
X0027297Y0062618D01*
X0028128Y0062618D02*
X0028802Y0062618D01*
X0028741Y0063010D02*
X0028155Y0063010D01*
X0028160Y0063403D02*
X0028741Y0063403D01*
X0028690Y0063795D02*
X0028160Y0063795D01*
X0028588Y0064187D02*
X0028611Y0064187D01*
X0025463Y0063403D02*
X0024271Y0063403D01*
X0024181Y0063010D02*
X0026373Y0063010D01*
X0024478Y0063795D02*
X0024472Y0063795D01*
X0019138Y0064579D02*
X0018365Y0064579D01*
X0018042Y0064187D02*
X0018795Y0064187D01*
X0018471Y0063795D02*
X0017748Y0063795D01*
X0017491Y0063403D02*
X0018187Y0063403D01*
X0017929Y0063010D02*
X0017246Y0063010D01*
X0017032Y0062618D02*
X0017689Y0062618D01*
X0017482Y0062226D02*
X0016831Y0062226D01*
X0016649Y0061834D02*
X0017282Y0061834D01*
X0017112Y0061442D02*
X0016485Y0061442D01*
X0016333Y0061049D02*
X0016950Y0061049D01*
X0016811Y0060657D02*
X0016201Y0060657D01*
X0016077Y0060265D02*
X0016682Y0060265D01*
X0016570Y0059873D02*
X0015973Y0059873D01*
X0015874Y0059481D02*
X0016469Y0059481D01*
X0016383Y0059088D02*
X0015797Y0059088D01*
X0015723Y0058696D02*
X0016309Y0058696D01*
X0016248Y0058304D02*
X0015671Y0058304D01*
X0015623Y0057912D02*
X0016202Y0057912D01*
X0016171Y0057519D02*
X0015596Y0057519D01*
X0015574Y0057127D02*
X0016157Y0057127D01*
X0016160Y0056735D02*
X0015581Y0056735D01*
X0015593Y0056343D02*
X0016179Y0056343D01*
X0016217Y0055951D02*
X0015636Y0055951D01*
X0015684Y0055558D02*
X0016272Y0055558D01*
X0016346Y0055166D02*
X0015762Y0055166D01*
X0015846Y0054774D02*
X0016439Y0054774D01*
X0016551Y0054382D02*
X0015961Y0054382D01*
X0016079Y0053990D02*
X0016686Y0053990D01*
X0016838Y0053597D02*
X0016232Y0053597D01*
X0016389Y0053205D02*
X0017019Y0053205D01*
X0017212Y0052813D02*
X0016578Y0052813D01*
X0016777Y0052421D02*
X0017444Y0052421D01*
X0017689Y0052028D02*
X0017002Y0052028D01*
X0017252Y0051636D02*
X0017971Y0051636D01*
X0018279Y0051244D02*
X0017521Y0051244D01*
X0017851Y0050852D02*
X0018609Y0050852D01*
X0018987Y0050460D02*
X0018203Y0050460D01*
X0018579Y0050067D02*
X0019398Y0050067D01*
X0018987Y0049675D02*
X0019846Y0049675D01*
X0019419Y0049283D02*
X0020343Y0049283D01*
X0019890Y0048891D02*
X0020920Y0048891D01*
X0020437Y0048499D02*
X0021585Y0048499D01*
X0021102Y0048106D02*
X0022382Y0048106D01*
X0021889Y0047714D02*
X0023487Y0047714D01*
X0022853Y0047322D02*
X0029333Y0047322D01*
X0028656Y0047714D02*
X0030424Y0047714D01*
X0029841Y0048106D02*
X0031226Y0048106D01*
X0030733Y0048499D02*
X0031893Y0048499D01*
X0031453Y0048891D02*
X0032471Y0048891D01*
X0032053Y0049283D02*
X0032979Y0049283D01*
X0032549Y0049675D02*
X0033434Y0049675D01*
X0033846Y0050067D02*
X0032995Y0050067D01*
X0033409Y0050460D02*
X0034223Y0050460D01*
X0034548Y0050852D02*
X0033792Y0050852D01*
X0034128Y0051244D02*
X0034848Y0051244D01*
X0035134Y0051636D02*
X0034404Y0051636D01*
X0034552Y0052028D02*
X0035174Y0052028D01*
X0035209Y0052421D02*
X0034629Y0052421D01*
X0034629Y0052813D02*
X0035209Y0052813D01*
X0035209Y0053205D02*
X0034629Y0053205D01*
X0034629Y0053597D02*
X0035209Y0053597D01*
X0035209Y0053990D02*
X0034629Y0053990D01*
X0034629Y0054382D02*
X0035209Y0054382D01*
X0047869Y0059724D02*
X0048312Y0060068D01*
X0048312Y0060856D01*
X0048324Y0061631D01*
X0050687Y0061631D01*
X0050876Y0060970D01*
X0051297Y0061334D01*
X0051297Y0062122D01*
X0050599Y0062212D01*
X0049024Y0062212D01*
X0048312Y0062286D01*
X0048312Y0063862D01*
X0047865Y0064202D01*
X0047731Y0063547D01*
X0047724Y0062760D01*
X0047382Y0062405D01*
X0045929Y0063015D01*
X0045206Y0063327D01*
X0044487Y0063647D01*
X0043790Y0063699D01*
X0043751Y0062913D01*
X0043665Y0062212D01*
X0041303Y0062212D01*
X0040765Y0061962D01*
X0040765Y0061174D01*
X0041341Y0061201D01*
X0041702Y0061631D01*
X0043278Y0061631D01*
X0043750Y0061317D01*
X0043756Y0060529D01*
X0044185Y0060099D01*
X0044919Y0060385D01*
X0045643Y0060694D01*
X0047082Y0061333D01*
X0047693Y0061481D01*
X0047712Y0060693D01*
X0047720Y0060378D01*
X0047869Y0059724D01*
X0047835Y0059873D02*
X0048061Y0059873D01*
X0048312Y0060265D02*
X0047746Y0060265D01*
X0047713Y0060657D02*
X0048312Y0060657D01*
X0048315Y0061049D02*
X0047704Y0061049D01*
X0047694Y0061442D02*
X0048321Y0061442D01*
X0047531Y0061442D02*
X0043563Y0061442D01*
X0043752Y0061049D02*
X0046442Y0061049D01*
X0045556Y0060657D02*
X0043755Y0060657D01*
X0044019Y0060265D02*
X0044611Y0060265D01*
X0041543Y0061442D02*
X0040765Y0061442D01*
X0040765Y0061834D02*
X0051297Y0061834D01*
X0051297Y0061442D02*
X0050741Y0061442D01*
X0050854Y0061049D02*
X0050968Y0061049D01*
X0048888Y0062226D02*
X0043667Y0062226D01*
X0043715Y0062618D02*
X0046874Y0062618D01*
X0047587Y0062618D02*
X0048312Y0062618D01*
X0048312Y0063010D02*
X0047726Y0063010D01*
X0047730Y0063403D02*
X0048312Y0063403D01*
X0048312Y0063795D02*
X0047782Y0063795D01*
X0047862Y0064187D02*
X0047884Y0064187D01*
X0045036Y0063403D02*
X0043775Y0063403D01*
X0043756Y0063010D02*
X0045939Y0063010D01*
X0052914Y0064579D02*
X0053769Y0064579D01*
X0054173Y0064187D02*
X0053351Y0064187D01*
X0053764Y0063795D02*
X0054518Y0063795D01*
X0054818Y0063403D02*
X0054137Y0063403D01*
X0054404Y0063010D02*
X0055066Y0063010D01*
X0055203Y0062618D02*
X0054613Y0062618D01*
X0060737Y0060657D02*
X0061455Y0060657D01*
X0061521Y0061049D02*
X0060971Y0061049D01*
X0061249Y0061442D02*
X0061806Y0061442D01*
X0061533Y0061834D02*
X0062091Y0061834D01*
X0062421Y0060265D02*
X0060611Y0060265D01*
X0059223Y0060265D02*
X0057889Y0060265D01*
X0072029Y0060265D02*
X0072610Y0060265D01*
X0072610Y0060657D02*
X0072029Y0060657D01*
X0072029Y0061049D02*
X0072610Y0061049D01*
X0072610Y0061442D02*
X0072029Y0061442D01*
X0072029Y0061834D02*
X0072610Y0061834D01*
X0072610Y0062226D02*
X0072029Y0062226D01*
X0072029Y0062618D02*
X0072610Y0062618D01*
X0072610Y0063010D02*
X0072029Y0063010D01*
X0072029Y0063403D02*
X0072610Y0063403D01*
X0072610Y0063795D02*
X0072059Y0063795D01*
X0072029Y0063484D02*
X0072029Y0055609D01*
X0071932Y0054917D01*
X0067207Y0054892D01*
X0064845Y0054868D01*
X0064057Y0054855D01*
X0063287Y0054808D01*
X0063268Y0053233D01*
X0063248Y0049296D01*
X0063221Y0037483D01*
X0063219Y0036224D01*
X0063198Y0019686D01*
X0063469Y0019170D01*
X0098907Y0019170D01*
X0098976Y0019835D01*
X0098358Y0020005D01*
X0097892Y0019751D01*
X0064028Y0019751D01*
X0063820Y0020330D01*
X0063820Y0054193D01*
X0064467Y0054333D01*
X0098330Y0054333D01*
X0098401Y0053617D01*
X0098401Y0020078D01*
X0098981Y0019933D01*
X0098981Y0054535D01*
X0098572Y0054914D01*
X0090697Y0054914D01*
X0090273Y0055278D01*
X0090273Y0063940D01*
X0089747Y0064202D01*
X0089693Y0063469D01*
X0089693Y0055594D01*
X0089586Y0054914D01*
X0073048Y0054914D01*
X0072610Y0055263D01*
X0072610Y0063926D01*
X0072098Y0064202D01*
X0072029Y0063484D01*
X0072097Y0064187D02*
X0072126Y0064187D01*
X0074434Y0063573D02*
X0074434Y0061998D01*
X0074434Y0061417D01*
X0074434Y0059841D01*
X0074970Y0059702D01*
X0074932Y0060095D01*
X0074932Y0063196D01*
X0075455Y0063414D01*
X0076020Y0062892D01*
X0076160Y0062124D01*
X0076142Y0061337D01*
X0075978Y0060570D01*
X0075685Y0060225D01*
X0074980Y0060057D01*
X0075066Y0059699D01*
X0075790Y0059832D01*
X0076396Y0060310D01*
X0076647Y0061051D01*
X0076708Y0061835D01*
X0076631Y0062618D01*
X0076070Y0062618D01*
X0076141Y0062226D02*
X0076670Y0062226D01*
X0076631Y0062618D02*
X0076349Y0063347D01*
X0075704Y0063775D01*
X0074925Y0063870D01*
X0074434Y0063573D01*
X0074434Y0063403D02*
X0075429Y0063403D01*
X0075467Y0063403D02*
X0076264Y0063403D01*
X0076479Y0063010D02*
X0075892Y0063010D01*
X0075538Y0063795D02*
X0074801Y0063795D01*
X0074932Y0063010D02*
X0074434Y0063010D01*
X0074434Y0062618D02*
X0074932Y0062618D01*
X0074932Y0062226D02*
X0074434Y0062226D01*
X0074434Y0061834D02*
X0074932Y0061834D01*
X0074932Y0061442D02*
X0074434Y0061442D01*
X0074434Y0061049D02*
X0074932Y0061049D01*
X0074932Y0060657D02*
X0074434Y0060657D01*
X0074434Y0060265D02*
X0074932Y0060265D01*
X0074953Y0059873D02*
X0074434Y0059873D01*
X0075024Y0059873D02*
X0075841Y0059873D01*
X0075719Y0060265D02*
X0076339Y0060265D01*
X0076514Y0060657D02*
X0075997Y0060657D01*
X0076080Y0061049D02*
X0076647Y0061049D01*
X0076677Y0061442D02*
X0076144Y0061442D01*
X0076153Y0061834D02*
X0076708Y0061834D01*
X0077189Y0060905D02*
X0077401Y0060167D01*
X0077790Y0059804D01*
X0078565Y0059751D01*
X0079183Y0060197D01*
X0079382Y0060948D01*
X0079027Y0061628D01*
X0079034Y0062142D01*
X0079308Y0062864D01*
X0079015Y0063584D01*
X0078308Y0063870D01*
X0077604Y0063582D01*
X0077290Y0062868D01*
X0077804Y0062975D01*
X0078303Y0063509D01*
X0078807Y0062984D01*
X0078628Y0062247D01*
X0078178Y0061726D01*
X0078791Y0061323D01*
X0078830Y0060549D01*
X0078242Y0060141D01*
X0077700Y0060612D01*
X0077189Y0060905D01*
X0077260Y0060657D02*
X0077621Y0060657D01*
X0077373Y0060265D02*
X0078099Y0060265D01*
X0078420Y0060265D02*
X0079201Y0060265D01*
X0079305Y0060657D02*
X0078825Y0060657D01*
X0078805Y0061049D02*
X0079329Y0061049D01*
X0079124Y0061442D02*
X0078610Y0061442D01*
X0078271Y0061834D02*
X0079030Y0061834D01*
X0079066Y0062226D02*
X0078609Y0062226D01*
X0078718Y0062618D02*
X0079214Y0062618D01*
X0079248Y0063010D02*
X0078782Y0063010D01*
X0079089Y0063403D02*
X0078405Y0063403D01*
X0078204Y0063403D02*
X0077525Y0063403D01*
X0077353Y0063010D02*
X0077837Y0063010D01*
X0078125Y0063795D02*
X0078493Y0063795D01*
X0089693Y0063403D02*
X0090273Y0063403D01*
X0090273Y0063795D02*
X0089717Y0063795D01*
X0089746Y0064187D02*
X0089777Y0064187D01*
X0091269Y0063500D02*
X0091269Y0061925D01*
X0091269Y0061343D01*
X0091269Y0059768D01*
X0091795Y0059620D01*
X0091767Y0060003D01*
X0091766Y0063104D01*
X0092281Y0063334D01*
X0092850Y0062818D01*
X0092994Y0062051D01*
X0092977Y0061264D01*
X0092816Y0060496D01*
X0092528Y0060147D01*
X0091815Y0059966D01*
X0091891Y0059615D01*
X0092615Y0059746D01*
X0093226Y0060219D01*
X0093480Y0060959D01*
X0093542Y0061743D01*
X0093468Y0062525D01*
X0093189Y0063256D01*
X0092548Y0063689D01*
X0091770Y0063787D01*
X0091269Y0063500D01*
X0091269Y0063403D02*
X0092972Y0063403D01*
X0093283Y0063010D02*
X0092638Y0063010D01*
X0092888Y0062618D02*
X0093433Y0062618D01*
X0093497Y0062226D02*
X0092961Y0062226D01*
X0092989Y0061834D02*
X0093534Y0061834D01*
X0093519Y0061442D02*
X0092981Y0061442D01*
X0092932Y0061049D02*
X0093488Y0061049D01*
X0093377Y0060657D02*
X0092850Y0060657D01*
X0092626Y0060265D02*
X0093242Y0060265D01*
X0092779Y0059873D02*
X0091835Y0059873D01*
X0091776Y0059873D02*
X0091269Y0059873D01*
X0091269Y0060265D02*
X0091767Y0060265D01*
X0091767Y0060657D02*
X0091269Y0060657D01*
X0091269Y0061049D02*
X0091767Y0061049D01*
X0091767Y0061442D02*
X0091269Y0061442D01*
X0091269Y0061834D02*
X0091767Y0061834D01*
X0091767Y0062226D02*
X0091269Y0062226D01*
X0091269Y0062618D02*
X0091767Y0062618D01*
X0091766Y0063010D02*
X0091269Y0063010D01*
X0090273Y0063010D02*
X0089693Y0063010D01*
X0089693Y0062618D02*
X0090273Y0062618D01*
X0090273Y0062226D02*
X0089693Y0062226D01*
X0089693Y0061834D02*
X0090273Y0061834D01*
X0090273Y0061442D02*
X0089693Y0061442D01*
X0089693Y0061049D02*
X0090273Y0061049D01*
X0090273Y0060657D02*
X0089693Y0060657D01*
X0089693Y0060265D02*
X0090273Y0060265D01*
X0090273Y0059873D02*
X0089693Y0059873D01*
X0089693Y0059481D02*
X0090273Y0059481D01*
X0090273Y0059088D02*
X0089693Y0059088D01*
X0089693Y0058696D02*
X0090273Y0058696D01*
X0090273Y0058304D02*
X0089693Y0058304D01*
X0089693Y0057912D02*
X0090273Y0057912D01*
X0090273Y0057519D02*
X0089693Y0057519D01*
X0089693Y0057127D02*
X0090273Y0057127D01*
X0090273Y0056735D02*
X0089693Y0056735D01*
X0089693Y0056343D02*
X0090273Y0056343D01*
X0090273Y0055951D02*
X0089693Y0055951D01*
X0089687Y0055558D02*
X0090273Y0055558D01*
X0090403Y0055166D02*
X0089625Y0055166D01*
X0098364Y0053990D02*
X0098981Y0053990D01*
X0098981Y0054382D02*
X0063282Y0054382D01*
X0063286Y0054774D02*
X0098723Y0054774D01*
X0098981Y0053597D02*
X0098401Y0053597D01*
X0098401Y0053205D02*
X0098981Y0053205D01*
X0098981Y0052813D02*
X0098401Y0052813D01*
X0098401Y0052421D02*
X0098981Y0052421D01*
X0098981Y0052028D02*
X0098401Y0052028D01*
X0098401Y0051636D02*
X0098981Y0051636D01*
X0098981Y0051244D02*
X0098401Y0051244D01*
X0098401Y0050852D02*
X0098981Y0050852D01*
X0098981Y0050460D02*
X0098401Y0050460D01*
X0098401Y0050067D02*
X0098981Y0050067D01*
X0098981Y0049675D02*
X0098401Y0049675D01*
X0098401Y0049283D02*
X0098981Y0049283D01*
X0098981Y0048891D02*
X0098401Y0048891D01*
X0098401Y0048499D02*
X0098981Y0048499D01*
X0098981Y0048106D02*
X0098401Y0048106D01*
X0098401Y0047714D02*
X0098981Y0047714D01*
X0098981Y0047322D02*
X0098401Y0047322D01*
X0098401Y0046930D02*
X0098981Y0046930D01*
X0098981Y0046538D02*
X0098401Y0046538D01*
X0098401Y0046145D02*
X0098981Y0046145D01*
X0098981Y0045753D02*
X0098401Y0045753D01*
X0098401Y0045361D02*
X0098981Y0045361D01*
X0098981Y0044969D02*
X0098401Y0044969D01*
X0098401Y0044576D02*
X0098981Y0044576D01*
X0098981Y0044184D02*
X0098401Y0044184D01*
X0098401Y0043792D02*
X0098981Y0043792D01*
X0098981Y0043400D02*
X0098401Y0043400D01*
X0098401Y0043008D02*
X0098981Y0043008D01*
X0098981Y0042615D02*
X0098401Y0042615D01*
X0098401Y0042223D02*
X0098981Y0042223D01*
X0098981Y0041831D02*
X0098401Y0041831D01*
X0098401Y0041439D02*
X0098981Y0041439D01*
X0098981Y0041047D02*
X0098401Y0041047D01*
X0098401Y0040654D02*
X0098981Y0040654D01*
X0098981Y0040262D02*
X0098401Y0040262D01*
X0098401Y0039870D02*
X0098981Y0039870D01*
X0098981Y0039478D02*
X0098401Y0039478D01*
X0098401Y0039085D02*
X0098981Y0039085D01*
X0098981Y0038693D02*
X0098401Y0038693D01*
X0098401Y0038301D02*
X0098981Y0038301D01*
X0098981Y0037909D02*
X0098401Y0037909D01*
X0098401Y0037517D02*
X0098981Y0037517D01*
X0098981Y0037124D02*
X0098401Y0037124D01*
X0098401Y0036732D02*
X0098981Y0036732D01*
X0098981Y0036340D02*
X0098401Y0036340D01*
X0098401Y0035948D02*
X0098981Y0035948D01*
X0098981Y0035556D02*
X0098401Y0035556D01*
X0098401Y0035163D02*
X0098981Y0035163D01*
X0098981Y0034771D02*
X0098401Y0034771D01*
X0098401Y0034379D02*
X0098981Y0034379D01*
X0098981Y0033987D02*
X0098401Y0033987D01*
X0098401Y0033595D02*
X0098981Y0033595D01*
X0098981Y0033202D02*
X0098401Y0033202D01*
X0098401Y0032810D02*
X0098981Y0032810D01*
X0098981Y0032418D02*
X0098401Y0032418D01*
X0098401Y0032026D02*
X0098981Y0032026D01*
X0098981Y0031633D02*
X0098401Y0031633D01*
X0098401Y0031241D02*
X0098981Y0031241D01*
X0098981Y0030849D02*
X0098401Y0030849D01*
X0098401Y0030457D02*
X0098981Y0030457D01*
X0098981Y0030065D02*
X0098401Y0030065D01*
X0098401Y0029672D02*
X0098981Y0029672D01*
X0098981Y0029280D02*
X0098401Y0029280D01*
X0098401Y0028888D02*
X0098981Y0028888D01*
X0098981Y0028496D02*
X0098401Y0028496D01*
X0098401Y0028104D02*
X0098981Y0028104D01*
X0098981Y0027711D02*
X0098401Y0027711D01*
X0098401Y0027319D02*
X0098981Y0027319D01*
X0098981Y0026927D02*
X0098401Y0026927D01*
X0098401Y0026535D02*
X0098981Y0026535D01*
X0098981Y0026142D02*
X0098401Y0026142D01*
X0098401Y0025750D02*
X0098981Y0025750D01*
X0098981Y0025358D02*
X0098401Y0025358D01*
X0098401Y0024966D02*
X0098981Y0024966D01*
X0098981Y0024574D02*
X0098401Y0024574D01*
X0098401Y0024181D02*
X0098981Y0024181D01*
X0098981Y0023789D02*
X0098401Y0023789D01*
X0098401Y0023397D02*
X0098981Y0023397D01*
X0098981Y0023005D02*
X0098401Y0023005D01*
X0098401Y0022613D02*
X0098981Y0022613D01*
X0098981Y0022220D02*
X0098401Y0022220D01*
X0098401Y0021828D02*
X0098981Y0021828D01*
X0098981Y0021436D02*
X0098401Y0021436D01*
X0098401Y0021044D02*
X0098981Y0021044D01*
X0098981Y0020652D02*
X0098401Y0020652D01*
X0098401Y0020259D02*
X0098981Y0020259D01*
X0098860Y0019867D02*
X0098104Y0019867D01*
X0098938Y0019475D02*
X0063309Y0019475D01*
X0063198Y0019867D02*
X0063987Y0019867D01*
X0063845Y0020259D02*
X0063198Y0020259D01*
X0063199Y0020652D02*
X0063820Y0020652D01*
X0063820Y0021044D02*
X0063199Y0021044D01*
X0063200Y0021436D02*
X0063820Y0021436D01*
X0063820Y0021828D02*
X0063200Y0021828D01*
X0063201Y0022220D02*
X0063820Y0022220D01*
X0063820Y0022613D02*
X0063202Y0022613D01*
X0063202Y0023005D02*
X0063820Y0023005D01*
X0063820Y0023397D02*
X0063202Y0023397D01*
X0063203Y0023789D02*
X0063820Y0023789D01*
X0063820Y0024181D02*
X0063204Y0024181D01*
X0063204Y0024574D02*
X0063820Y0024574D01*
X0063820Y0024966D02*
X0063205Y0024966D01*
X0063205Y0025358D02*
X0063820Y0025358D01*
X0063820Y0025750D02*
X0063206Y0025750D01*
X0063206Y0026142D02*
X0063820Y0026142D01*
X0063820Y0026535D02*
X0063207Y0026535D01*
X0063207Y0026927D02*
X0063820Y0026927D01*
X0063820Y0027319D02*
X0063208Y0027319D01*
X0063208Y0027711D02*
X0063820Y0027711D01*
X0063820Y0028104D02*
X0063209Y0028104D01*
X0063209Y0028496D02*
X0063820Y0028496D01*
X0063820Y0028888D02*
X0063210Y0028888D01*
X0063210Y0029280D02*
X0063820Y0029280D01*
X0063820Y0029672D02*
X0063211Y0029672D01*
X0063211Y0030065D02*
X0063820Y0030065D01*
X0063820Y0030457D02*
X0063212Y0030457D01*
X0063212Y0030849D02*
X0063820Y0030849D01*
X0063820Y0031241D02*
X0063213Y0031241D01*
X0063213Y0031633D02*
X0063820Y0031633D01*
X0063820Y0032026D02*
X0063214Y0032026D01*
X0063214Y0032418D02*
X0063820Y0032418D01*
X0063820Y0032810D02*
X0063215Y0032810D01*
X0063215Y0033202D02*
X0063820Y0033202D01*
X0063820Y0033595D02*
X0063216Y0033595D01*
X0063216Y0033987D02*
X0063820Y0033987D01*
X0063820Y0034379D02*
X0063217Y0034379D01*
X0063217Y0034771D02*
X0063820Y0034771D01*
X0063820Y0035163D02*
X0063218Y0035163D01*
X0063218Y0035556D02*
X0063820Y0035556D01*
X0063820Y0035948D02*
X0063219Y0035948D01*
X0063219Y0036340D02*
X0063820Y0036340D01*
X0063820Y0036732D02*
X0063220Y0036732D01*
X0063220Y0037124D02*
X0063820Y0037124D01*
X0063820Y0037517D02*
X0063221Y0037517D01*
X0063222Y0037909D02*
X0063820Y0037909D01*
X0063820Y0038301D02*
X0063223Y0038301D01*
X0063224Y0038693D02*
X0063820Y0038693D01*
X0063820Y0039085D02*
X0063225Y0039085D01*
X0063226Y0039478D02*
X0063820Y0039478D01*
X0063820Y0039870D02*
X0063227Y0039870D01*
X0063228Y0040262D02*
X0063820Y0040262D01*
X0063820Y0040654D02*
X0063228Y0040654D01*
X0063229Y0041047D02*
X0063820Y0041047D01*
X0063820Y0041439D02*
X0063230Y0041439D01*
X0063231Y0041831D02*
X0063820Y0041831D01*
X0063820Y0042223D02*
X0063232Y0042223D01*
X0063233Y0042615D02*
X0063820Y0042615D01*
X0063820Y0043008D02*
X0063234Y0043008D01*
X0063235Y0043400D02*
X0063820Y0043400D01*
X0063820Y0043792D02*
X0063236Y0043792D01*
X0063237Y0044184D02*
X0063820Y0044184D01*
X0063820Y0044576D02*
X0063238Y0044576D01*
X0063238Y0044969D02*
X0063820Y0044969D01*
X0063820Y0045361D02*
X0063239Y0045361D01*
X0063240Y0045753D02*
X0063820Y0045753D01*
X0063820Y0046145D02*
X0063241Y0046145D01*
X0063242Y0046538D02*
X0063820Y0046538D01*
X0063820Y0046930D02*
X0063243Y0046930D01*
X0063244Y0047322D02*
X0063820Y0047322D01*
X0063820Y0047714D02*
X0063245Y0047714D01*
X0063246Y0048106D02*
X0063820Y0048106D01*
X0063820Y0048499D02*
X0063247Y0048499D01*
X0063248Y0048891D02*
X0063820Y0048891D01*
X0063820Y0049283D02*
X0063248Y0049283D01*
X0063250Y0049675D02*
X0063820Y0049675D01*
X0063820Y0050067D02*
X0063252Y0050067D01*
X0063254Y0050460D02*
X0063820Y0050460D01*
X0063820Y0050852D02*
X0063256Y0050852D01*
X0063258Y0051244D02*
X0063820Y0051244D01*
X0063820Y0051636D02*
X0063260Y0051636D01*
X0063262Y0052028D02*
X0063820Y0052028D01*
X0063820Y0052421D02*
X0063264Y0052421D01*
X0063266Y0052813D02*
X0063820Y0052813D01*
X0063820Y0053205D02*
X0063268Y0053205D01*
X0063272Y0053597D02*
X0063820Y0053597D01*
X0063820Y0053990D02*
X0063277Y0053990D01*
X0071967Y0055166D02*
X0072731Y0055166D01*
X0072610Y0055558D02*
X0072022Y0055558D01*
X0072029Y0055951D02*
X0072610Y0055951D01*
X0072610Y0056343D02*
X0072029Y0056343D01*
X0072029Y0056735D02*
X0072610Y0056735D01*
X0072610Y0057127D02*
X0072029Y0057127D01*
X0072029Y0057519D02*
X0072610Y0057519D01*
X0072610Y0057912D02*
X0072029Y0057912D01*
X0072029Y0058304D02*
X0072610Y0058304D01*
X0072610Y0058696D02*
X0072029Y0058696D01*
X0072029Y0059088D02*
X0072610Y0059088D01*
X0072610Y0059481D02*
X0072029Y0059481D01*
X0072029Y0059873D02*
X0072610Y0059873D01*
X0077716Y0059873D02*
X0078733Y0059873D01*
X0094033Y0060593D02*
X0094719Y0059674D01*
X0095501Y0059684D01*
X0096100Y0060151D01*
X0096234Y0060914D01*
X0095864Y0061538D01*
X0095583Y0061285D01*
X0095731Y0060582D01*
X0095562Y0060201D01*
X0094856Y0060110D01*
X0094536Y0060797D01*
X0094870Y0061475D01*
X0095525Y0061343D01*
X0095853Y0061628D01*
X0096020Y0062188D01*
X0096116Y0062945D01*
X0095700Y0063599D01*
X0094959Y0063768D01*
X0094330Y0063342D01*
X0094184Y0062580D01*
X0094468Y0061925D01*
X0094744Y0062199D01*
X0094631Y0062911D01*
X0095153Y0063408D01*
X0095640Y0062866D01*
X0095454Y0062067D01*
X0094801Y0062145D01*
X0094465Y0061836D01*
X0094210Y0061343D01*
X0094033Y0060593D01*
X0094048Y0060657D02*
X0094601Y0060657D01*
X0094660Y0061049D02*
X0094141Y0061049D01*
X0094261Y0061442D02*
X0094853Y0061442D01*
X0095036Y0061442D02*
X0095638Y0061442D01*
X0095757Y0061442D02*
X0095922Y0061442D01*
X0095915Y0061834D02*
X0094464Y0061834D01*
X0094337Y0062226D02*
X0094740Y0062226D01*
X0094677Y0062618D02*
X0094191Y0062618D01*
X0094266Y0063010D02*
X0094735Y0063010D01*
X0094419Y0063403D02*
X0095147Y0063403D01*
X0095158Y0063403D02*
X0095825Y0063403D01*
X0096074Y0063010D02*
X0095510Y0063010D01*
X0095582Y0062618D02*
X0096074Y0062618D01*
X0096025Y0062226D02*
X0095491Y0062226D01*
X0095633Y0061049D02*
X0096154Y0061049D01*
X0096189Y0060657D02*
X0095715Y0060657D01*
X0095590Y0060265D02*
X0096120Y0060265D01*
X0095743Y0059873D02*
X0094571Y0059873D01*
X0094784Y0060265D02*
X0094278Y0060265D01*
X0111172Y0060265D02*
X0111752Y0060265D01*
X0111752Y0060657D02*
X0111172Y0060657D01*
X0111172Y0061049D02*
X0111752Y0061049D01*
X0111752Y0061442D02*
X0111172Y0061442D01*
X0111172Y0061834D02*
X0111752Y0061834D01*
X0111752Y0062226D02*
X0111172Y0062226D01*
X0111172Y0062618D02*
X0111752Y0062618D01*
X0111752Y0063010D02*
X0111172Y0063010D01*
X0111172Y0063403D02*
X0111752Y0063403D01*
X0111752Y0063795D02*
X0111172Y0063795D01*
X0111172Y0064075D02*
X0111172Y0055412D01*
X0110879Y0054916D01*
X0105366Y0054884D01*
X0103053Y0054851D01*
X0103067Y0054333D01*
X0136881Y0054333D01*
X0137543Y0054208D01*
X0137543Y0019833D01*
X0136838Y0019751D01*
X0102975Y0019751D01*
X0102962Y0020526D01*
X0102962Y0053602D01*
X0103014Y0054284D01*
X0102958Y0054832D01*
X0102424Y0054612D01*
X0102409Y0053037D01*
X0102393Y0049887D01*
X0102363Y0037287D01*
X0102362Y0036815D01*
X0102340Y0019490D01*
X0102808Y0019170D01*
X0137458Y0019170D01*
X0138123Y0019293D01*
X0138123Y0054731D01*
X0137518Y0054914D01*
X0129643Y0054914D01*
X0129416Y0055474D01*
X0129416Y0064136D01*
X0128835Y0064060D01*
X0128835Y0055398D01*
X0128532Y0054914D01*
X0111994Y0054914D01*
X0111752Y0055459D01*
X0111752Y0064122D01*
X0111172Y0064075D01*
X0114275Y0063403D02*
X0114844Y0063403D01*
X0114853Y0063455D02*
X0115579Y0063221D01*
X0115933Y0062536D01*
X0115969Y0061750D01*
X0115898Y0060966D01*
X0115565Y0060271D01*
X0115180Y0060130D01*
X0115241Y0059752D01*
X0115926Y0060006D01*
X0116356Y0060650D01*
X0116499Y0061423D01*
X0116495Y0062209D01*
X0116340Y0062980D01*
X0115883Y0063601D01*
X0115143Y0063850D01*
X0114356Y0063870D01*
X0114240Y0063199D01*
X0114240Y0062411D01*
X0114240Y0061042D01*
X0114240Y0060254D01*
X0114412Y0059654D01*
X0115146Y0059729D01*
X0115095Y0060143D01*
X0114737Y0060420D01*
X0114737Y0062783D01*
X0114853Y0063455D01*
X0115016Y0063403D02*
X0116029Y0063403D01*
X0116318Y0063010D02*
X0115688Y0063010D01*
X0115890Y0062618D02*
X0116413Y0062618D01*
X0116492Y0062226D02*
X0115947Y0062226D01*
X0115966Y0061834D02*
X0116497Y0061834D01*
X0116499Y0061442D02*
X0115941Y0061442D01*
X0115906Y0061049D02*
X0116430Y0061049D01*
X0116357Y0060657D02*
X0115750Y0060657D01*
X0115549Y0060265D02*
X0116099Y0060265D01*
X0115568Y0059873D02*
X0115222Y0059873D01*
X0115128Y0059873D02*
X0114349Y0059873D01*
X0114240Y0060265D02*
X0114938Y0060265D01*
X0114737Y0060657D02*
X0114240Y0060657D01*
X0114240Y0061049D02*
X0114737Y0061049D01*
X0114737Y0061442D02*
X0114240Y0061442D01*
X0114240Y0061834D02*
X0114737Y0061834D01*
X0114737Y0062226D02*
X0114240Y0062226D01*
X0114240Y0062618D02*
X0114737Y0062618D01*
X0114776Y0063010D02*
X0114240Y0063010D01*
X0114343Y0063795D02*
X0115308Y0063795D01*
X0117857Y0062896D02*
X0117507Y0062191D01*
X0117192Y0061523D01*
X0117533Y0061292D01*
X0117853Y0061958D01*
X0118217Y0062656D01*
X0118361Y0062396D01*
X0118376Y0061608D01*
X0118121Y0061066D01*
X0117559Y0061234D01*
X0117156Y0061432D01*
X0116934Y0060743D01*
X0118386Y0060538D01*
X0118386Y0059800D01*
X0118884Y0059770D01*
X0118910Y0060556D01*
X0119219Y0061033D01*
X0118884Y0061501D01*
X0118884Y0063863D01*
X0118226Y0063593D01*
X0117857Y0062896D01*
X0117918Y0063010D02*
X0118884Y0063010D01*
X0118884Y0062618D02*
X0118238Y0062618D01*
X0118198Y0062618D02*
X0117719Y0062618D01*
X0117524Y0062226D02*
X0117993Y0062226D01*
X0118364Y0062226D02*
X0118884Y0062226D01*
X0118884Y0061834D02*
X0118372Y0061834D01*
X0118297Y0061442D02*
X0118926Y0061442D01*
X0119208Y0061049D02*
X0117032Y0061049D01*
X0117313Y0061442D02*
X0117605Y0061442D01*
X0117794Y0061834D02*
X0117338Y0061834D01*
X0117541Y0060657D02*
X0118975Y0060657D01*
X0118900Y0060265D02*
X0118386Y0060265D01*
X0118386Y0059873D02*
X0118887Y0059873D01*
X0111752Y0059873D02*
X0111172Y0059873D01*
X0111172Y0059481D02*
X0111752Y0059481D01*
X0111752Y0059088D02*
X0111172Y0059088D01*
X0111172Y0058696D02*
X0111752Y0058696D01*
X0111752Y0058304D02*
X0111172Y0058304D01*
X0111172Y0057912D02*
X0111752Y0057912D01*
X0111752Y0057519D02*
X0111172Y0057519D01*
X0111172Y0057127D02*
X0111752Y0057127D01*
X0111752Y0056735D02*
X0111172Y0056735D01*
X0111172Y0056343D02*
X0111752Y0056343D01*
X0111752Y0055951D02*
X0111172Y0055951D01*
X0111172Y0055558D02*
X0111752Y0055558D01*
X0111882Y0055166D02*
X0111026Y0055166D01*
X0103055Y0054774D02*
X0137981Y0054774D01*
X0138123Y0054382D02*
X0103066Y0054382D01*
X0103004Y0054382D02*
X0102422Y0054382D01*
X0102418Y0053990D02*
X0102992Y0053990D01*
X0102962Y0053597D02*
X0102415Y0053597D01*
X0102411Y0053205D02*
X0102962Y0053205D01*
X0102962Y0052813D02*
X0102408Y0052813D01*
X0102406Y0052421D02*
X0102962Y0052421D01*
X0102962Y0052028D02*
X0102404Y0052028D01*
X0102402Y0051636D02*
X0102962Y0051636D01*
X0102962Y0051244D02*
X0102400Y0051244D01*
X0102398Y0050852D02*
X0102962Y0050852D01*
X0102962Y0050460D02*
X0102396Y0050460D01*
X0102394Y0050067D02*
X0102962Y0050067D01*
X0102962Y0049675D02*
X0102393Y0049675D01*
X0102392Y0049283D02*
X0102962Y0049283D01*
X0102962Y0048891D02*
X0102391Y0048891D01*
X0102390Y0048499D02*
X0102962Y0048499D01*
X0102962Y0048106D02*
X0102389Y0048106D01*
X0102388Y0047714D02*
X0102962Y0047714D01*
X0102962Y0047322D02*
X0102387Y0047322D01*
X0102386Y0046930D02*
X0102962Y0046930D01*
X0102962Y0046538D02*
X0102385Y0046538D01*
X0102384Y0046145D02*
X0102962Y0046145D01*
X0102962Y0045753D02*
X0102383Y0045753D01*
X0102382Y0045361D02*
X0102962Y0045361D01*
X0102962Y0044969D02*
X0102381Y0044969D01*
X0102380Y0044576D02*
X0102962Y0044576D01*
X0102962Y0044184D02*
X0102380Y0044184D01*
X0102379Y0043792D02*
X0102962Y0043792D01*
X0102962Y0043400D02*
X0102378Y0043400D01*
X0102377Y0043008D02*
X0102962Y0043008D01*
X0102962Y0042615D02*
X0102376Y0042615D01*
X0102375Y0042223D02*
X0102962Y0042223D01*
X0102962Y0041831D02*
X0102374Y0041831D01*
X0102373Y0041439D02*
X0102962Y0041439D01*
X0102962Y0041047D02*
X0102372Y0041047D01*
X0102371Y0040654D02*
X0102962Y0040654D01*
X0102962Y0040262D02*
X0102370Y0040262D01*
X0102369Y0039870D02*
X0102962Y0039870D01*
X0102962Y0039478D02*
X0102368Y0039478D01*
X0102367Y0039085D02*
X0102962Y0039085D01*
X0102962Y0038693D02*
X0102366Y0038693D01*
X0102365Y0038301D02*
X0102962Y0038301D01*
X0102962Y0037909D02*
X0102364Y0037909D01*
X0102364Y0037517D02*
X0102962Y0037517D01*
X0102962Y0037124D02*
X0102363Y0037124D01*
X0102362Y0036732D02*
X0102962Y0036732D01*
X0102962Y0036340D02*
X0102361Y0036340D01*
X0102361Y0035948D02*
X0102962Y0035948D01*
X0102962Y0035556D02*
X0102360Y0035556D01*
X0102360Y0035163D02*
X0102962Y0035163D01*
X0102962Y0034771D02*
X0102359Y0034771D01*
X0102359Y0034379D02*
X0102962Y0034379D01*
X0102962Y0033987D02*
X0102358Y0033987D01*
X0102358Y0033595D02*
X0102962Y0033595D01*
X0102962Y0033202D02*
X0102357Y0033202D01*
X0102357Y0032810D02*
X0102962Y0032810D01*
X0102962Y0032418D02*
X0102356Y0032418D01*
X0102356Y0032026D02*
X0102962Y0032026D01*
X0102962Y0031633D02*
X0102355Y0031633D01*
X0102355Y0031241D02*
X0102962Y0031241D01*
X0102962Y0030849D02*
X0102354Y0030849D01*
X0102354Y0030457D02*
X0102962Y0030457D01*
X0102962Y0030065D02*
X0102353Y0030065D01*
X0102353Y0029672D02*
X0102962Y0029672D01*
X0102962Y0029280D02*
X0102352Y0029280D01*
X0102352Y0028888D02*
X0102962Y0028888D01*
X0102962Y0028496D02*
X0102351Y0028496D01*
X0102351Y0028104D02*
X0102962Y0028104D01*
X0102962Y0027711D02*
X0102350Y0027711D01*
X0102350Y0027319D02*
X0102962Y0027319D01*
X0102962Y0026927D02*
X0102349Y0026927D01*
X0102349Y0026535D02*
X0102962Y0026535D01*
X0102962Y0026142D02*
X0102348Y0026142D01*
X0102348Y0025750D02*
X0102962Y0025750D01*
X0102962Y0025358D02*
X0102347Y0025358D01*
X0102347Y0024966D02*
X0102962Y0024966D01*
X0102962Y0024574D02*
X0102346Y0024574D01*
X0102346Y0024181D02*
X0102962Y0024181D01*
X0102962Y0023789D02*
X0102345Y0023789D01*
X0102345Y0023397D02*
X0102962Y0023397D01*
X0102962Y0023005D02*
X0102344Y0023005D01*
X0102344Y0022613D02*
X0102962Y0022613D01*
X0102962Y0022220D02*
X0102343Y0022220D01*
X0102343Y0021828D02*
X0102962Y0021828D01*
X0102962Y0021436D02*
X0102342Y0021436D01*
X0102342Y0021044D02*
X0102962Y0021044D01*
X0102962Y0020652D02*
X0102341Y0020652D01*
X0102341Y0020259D02*
X0102966Y0020259D01*
X0102973Y0019867D02*
X0102340Y0019867D01*
X0102361Y0019475D02*
X0138123Y0019475D01*
X0138123Y0019867D02*
X0137543Y0019867D01*
X0137543Y0020259D02*
X0138123Y0020259D01*
X0138123Y0020652D02*
X0137543Y0020652D01*
X0137543Y0021044D02*
X0138123Y0021044D01*
X0138123Y0021436D02*
X0137543Y0021436D01*
X0137543Y0021828D02*
X0138123Y0021828D01*
X0138123Y0022220D02*
X0137543Y0022220D01*
X0137543Y0022613D02*
X0138123Y0022613D01*
X0138123Y0023005D02*
X0137543Y0023005D01*
X0137543Y0023397D02*
X0138123Y0023397D01*
X0138123Y0023789D02*
X0137543Y0023789D01*
X0137543Y0024181D02*
X0138123Y0024181D01*
X0138123Y0024574D02*
X0137543Y0024574D01*
X0137543Y0024966D02*
X0138123Y0024966D01*
X0138123Y0025358D02*
X0137543Y0025358D01*
X0137543Y0025750D02*
X0138123Y0025750D01*
X0138123Y0026142D02*
X0137543Y0026142D01*
X0137543Y0026535D02*
X0138123Y0026535D01*
X0138123Y0026927D02*
X0137543Y0026927D01*
X0137543Y0027319D02*
X0138123Y0027319D01*
X0138123Y0027711D02*
X0137543Y0027711D01*
X0137543Y0028104D02*
X0138123Y0028104D01*
X0138123Y0028496D02*
X0137543Y0028496D01*
X0137543Y0028888D02*
X0138123Y0028888D01*
X0138123Y0029280D02*
X0137543Y0029280D01*
X0137543Y0029672D02*
X0138123Y0029672D01*
X0138123Y0030065D02*
X0137543Y0030065D01*
X0137543Y0030457D02*
X0138123Y0030457D01*
X0138123Y0030849D02*
X0137543Y0030849D01*
X0137543Y0031241D02*
X0138123Y0031241D01*
X0138123Y0031633D02*
X0137543Y0031633D01*
X0137543Y0032026D02*
X0138123Y0032026D01*
X0138123Y0032418D02*
X0137543Y0032418D01*
X0137543Y0032810D02*
X0138123Y0032810D01*
X0138123Y0033202D02*
X0137543Y0033202D01*
X0137543Y0033595D02*
X0138123Y0033595D01*
X0138123Y0033987D02*
X0137543Y0033987D01*
X0137543Y0034379D02*
X0138123Y0034379D01*
X0138123Y0034771D02*
X0137543Y0034771D01*
X0137543Y0035163D02*
X0138123Y0035163D01*
X0138123Y0035556D02*
X0137543Y0035556D01*
X0137543Y0035948D02*
X0138123Y0035948D01*
X0138123Y0036340D02*
X0137543Y0036340D01*
X0137543Y0036732D02*
X0138123Y0036732D01*
X0138123Y0037124D02*
X0137543Y0037124D01*
X0137543Y0037517D02*
X0138123Y0037517D01*
X0138123Y0037909D02*
X0137543Y0037909D01*
X0137543Y0038301D02*
X0138123Y0038301D01*
X0138123Y0038693D02*
X0137543Y0038693D01*
X0137543Y0039085D02*
X0138123Y0039085D01*
X0138123Y0039478D02*
X0137543Y0039478D01*
X0137543Y0039870D02*
X0138123Y0039870D01*
X0138123Y0040262D02*
X0137543Y0040262D01*
X0137543Y0040654D02*
X0138123Y0040654D01*
X0138123Y0041047D02*
X0137543Y0041047D01*
X0137543Y0041439D02*
X0138123Y0041439D01*
X0138123Y0041831D02*
X0137543Y0041831D01*
X0137543Y0042223D02*
X0138123Y0042223D01*
X0138123Y0042615D02*
X0137543Y0042615D01*
X0137543Y0043008D02*
X0138123Y0043008D01*
X0138123Y0043400D02*
X0137543Y0043400D01*
X0137543Y0043792D02*
X0138123Y0043792D01*
X0138123Y0044184D02*
X0137543Y0044184D01*
X0137543Y0044576D02*
X0138123Y0044576D01*
X0138123Y0044969D02*
X0137543Y0044969D01*
X0137543Y0045361D02*
X0138123Y0045361D01*
X0138123Y0045753D02*
X0137543Y0045753D01*
X0137543Y0046145D02*
X0138123Y0046145D01*
X0138123Y0046538D02*
X0137543Y0046538D01*
X0137543Y0046930D02*
X0138123Y0046930D01*
X0138123Y0047322D02*
X0137543Y0047322D01*
X0137543Y0047714D02*
X0138123Y0047714D01*
X0138123Y0048106D02*
X0137543Y0048106D01*
X0137543Y0048499D02*
X0138123Y0048499D01*
X0138123Y0048891D02*
X0137543Y0048891D01*
X0137543Y0049283D02*
X0138123Y0049283D01*
X0138123Y0049675D02*
X0137543Y0049675D01*
X0137543Y0050067D02*
X0138123Y0050067D01*
X0138123Y0050460D02*
X0137543Y0050460D01*
X0137543Y0050852D02*
X0138123Y0050852D01*
X0138123Y0051244D02*
X0137543Y0051244D01*
X0137543Y0051636D02*
X0138123Y0051636D01*
X0138123Y0052028D02*
X0137543Y0052028D01*
X0137543Y0052421D02*
X0138123Y0052421D01*
X0138123Y0052813D02*
X0137543Y0052813D01*
X0137543Y0053205D02*
X0138123Y0053205D01*
X0138123Y0053597D02*
X0137543Y0053597D01*
X0137543Y0053990D02*
X0138123Y0053990D01*
X0141561Y0053990D02*
X0142195Y0053990D01*
X0142104Y0053798D02*
X0142357Y0054333D01*
X0176220Y0054333D01*
X0176645Y0054039D01*
X0177265Y0054190D01*
X0177251Y0054914D01*
X0168589Y0054914D01*
X0168558Y0055670D01*
X0168558Y0063546D01*
X0168427Y0064202D01*
X0167978Y0063864D01*
X0167978Y0055201D01*
X0167478Y0054914D01*
X0150940Y0054914D01*
X0150894Y0055656D01*
X0150894Y0063531D01*
X0150778Y0064202D01*
X0150314Y0063878D01*
X0150314Y0055216D01*
X0149824Y0054915D01*
X0144312Y0054883D01*
X0142737Y0054863D01*
X0141950Y0054846D01*
X0141563Y0054416D01*
X0141534Y0049691D01*
X0141505Y0037090D01*
X0141504Y0036618D01*
X0141482Y0019293D01*
X0142147Y0019170D01*
X0176797Y0019170D01*
X0177265Y0019490D01*
X0177265Y0054091D01*
X0176686Y0053962D01*
X0176686Y0020424D01*
X0176571Y0019751D01*
X0142708Y0019751D01*
X0142104Y0019935D01*
X0142104Y0053798D01*
X0142104Y0053597D02*
X0141558Y0053597D01*
X0141556Y0053205D02*
X0142104Y0053205D01*
X0142104Y0052813D02*
X0141554Y0052813D01*
X0141551Y0052421D02*
X0142104Y0052421D01*
X0142104Y0052028D02*
X0141549Y0052028D01*
X0141546Y0051636D02*
X0142104Y0051636D01*
X0142104Y0051244D02*
X0141544Y0051244D01*
X0141542Y0050852D02*
X0142104Y0050852D01*
X0142104Y0050460D02*
X0141539Y0050460D01*
X0141537Y0050067D02*
X0142104Y0050067D01*
X0142104Y0049675D02*
X0141534Y0049675D01*
X0141534Y0049283D02*
X0142104Y0049283D01*
X0142104Y0048891D02*
X0141533Y0048891D01*
X0141532Y0048499D02*
X0142104Y0048499D01*
X0142104Y0048106D02*
X0141531Y0048106D01*
X0141530Y0047714D02*
X0142104Y0047714D01*
X0142104Y0047322D02*
X0141529Y0047322D01*
X0141528Y0046930D02*
X0142104Y0046930D01*
X0142104Y0046538D02*
X0141527Y0046538D01*
X0141526Y0046145D02*
X0142104Y0046145D01*
X0142104Y0045753D02*
X0141525Y0045753D01*
X0141524Y0045361D02*
X0142104Y0045361D01*
X0142104Y0044969D02*
X0141523Y0044969D01*
X0141522Y0044576D02*
X0142104Y0044576D01*
X0142104Y0044184D02*
X0141522Y0044184D01*
X0141521Y0043792D02*
X0142104Y0043792D01*
X0142104Y0043400D02*
X0141520Y0043400D01*
X0141519Y0043008D02*
X0142104Y0043008D01*
X0142104Y0042615D02*
X0141518Y0042615D01*
X0141517Y0042223D02*
X0142104Y0042223D01*
X0142104Y0041831D02*
X0141516Y0041831D01*
X0141515Y0041439D02*
X0142104Y0041439D01*
X0142104Y0041047D02*
X0141514Y0041047D01*
X0141513Y0040654D02*
X0142104Y0040654D01*
X0142104Y0040262D02*
X0141512Y0040262D01*
X0141511Y0039870D02*
X0142104Y0039870D01*
X0142104Y0039478D02*
X0141511Y0039478D01*
X0141510Y0039085D02*
X0142104Y0039085D01*
X0142104Y0038693D02*
X0141509Y0038693D01*
X0141508Y0038301D02*
X0142104Y0038301D01*
X0142104Y0037909D02*
X0141507Y0037909D01*
X0141506Y0037517D02*
X0142104Y0037517D01*
X0142104Y0037124D02*
X0141505Y0037124D01*
X0141504Y0036732D02*
X0142104Y0036732D01*
X0142104Y0036340D02*
X0141504Y0036340D01*
X0141503Y0035948D02*
X0142104Y0035948D01*
X0142104Y0035556D02*
X0141503Y0035556D01*
X0141502Y0035163D02*
X0142104Y0035163D01*
X0142104Y0034771D02*
X0141502Y0034771D01*
X0141501Y0034379D02*
X0142104Y0034379D01*
X0142104Y0033987D02*
X0141501Y0033987D01*
X0141500Y0033595D02*
X0142104Y0033595D01*
X0142104Y0033202D02*
X0141500Y0033202D01*
X0141499Y0032810D02*
X0142104Y0032810D01*
X0142104Y0032418D02*
X0141499Y0032418D01*
X0141498Y0032026D02*
X0142104Y0032026D01*
X0142104Y0031633D02*
X0141498Y0031633D01*
X0141497Y0031241D02*
X0142104Y0031241D01*
X0142104Y0030849D02*
X0141497Y0030849D01*
X0141496Y0030457D02*
X0142104Y0030457D01*
X0142104Y0030065D02*
X0141496Y0030065D01*
X0141495Y0029672D02*
X0142104Y0029672D01*
X0142104Y0029280D02*
X0141495Y0029280D01*
X0141494Y0028888D02*
X0142104Y0028888D01*
X0142104Y0028496D02*
X0141494Y0028496D01*
X0141493Y0028104D02*
X0142104Y0028104D01*
X0142104Y0027711D02*
X0141493Y0027711D01*
X0141492Y0027319D02*
X0142104Y0027319D01*
X0142104Y0026927D02*
X0141492Y0026927D01*
X0141491Y0026535D02*
X0142104Y0026535D01*
X0142104Y0026142D02*
X0141491Y0026142D01*
X0141490Y0025750D02*
X0142104Y0025750D01*
X0142104Y0025358D02*
X0141490Y0025358D01*
X0141489Y0024966D02*
X0142104Y0024966D01*
X0142104Y0024574D02*
X0141489Y0024574D01*
X0141488Y0024181D02*
X0142104Y0024181D01*
X0142104Y0023789D02*
X0141488Y0023789D01*
X0141487Y0023397D02*
X0142104Y0023397D01*
X0142104Y0023005D02*
X0141487Y0023005D01*
X0141486Y0022613D02*
X0142104Y0022613D01*
X0142104Y0022220D02*
X0141486Y0022220D01*
X0141485Y0021828D02*
X0142104Y0021828D01*
X0142104Y0021436D02*
X0141485Y0021436D01*
X0141484Y0021044D02*
X0142104Y0021044D01*
X0142104Y0020652D02*
X0141484Y0020652D01*
X0141483Y0020259D02*
X0142104Y0020259D01*
X0142327Y0019867D02*
X0141483Y0019867D01*
X0141482Y0019475D02*
X0177244Y0019475D01*
X0177265Y0019867D02*
X0176591Y0019867D01*
X0176658Y0020259D02*
X0177265Y0020259D01*
X0177265Y0020652D02*
X0176686Y0020652D01*
X0176686Y0021044D02*
X0177265Y0021044D01*
X0177265Y0021436D02*
X0176686Y0021436D01*
X0176686Y0021828D02*
X0177265Y0021828D01*
X0177265Y0022220D02*
X0176686Y0022220D01*
X0176686Y0022613D02*
X0177265Y0022613D01*
X0177265Y0023005D02*
X0176686Y0023005D01*
X0176686Y0023397D02*
X0177265Y0023397D01*
X0177265Y0023789D02*
X0176686Y0023789D01*
X0176686Y0024181D02*
X0177265Y0024181D01*
X0177265Y0024574D02*
X0176686Y0024574D01*
X0176686Y0024966D02*
X0177265Y0024966D01*
X0177265Y0025358D02*
X0176686Y0025358D01*
X0176686Y0025750D02*
X0177265Y0025750D01*
X0177265Y0026142D02*
X0176686Y0026142D01*
X0176686Y0026535D02*
X0177265Y0026535D01*
X0177265Y0026927D02*
X0176686Y0026927D01*
X0176686Y0027319D02*
X0177265Y0027319D01*
X0177265Y0027711D02*
X0176686Y0027711D01*
X0176686Y0028104D02*
X0177265Y0028104D01*
X0177265Y0028496D02*
X0176686Y0028496D01*
X0176686Y0028888D02*
X0177265Y0028888D01*
X0177265Y0029280D02*
X0176686Y0029280D01*
X0176686Y0029672D02*
X0177265Y0029672D01*
X0177265Y0030065D02*
X0176686Y0030065D01*
X0176686Y0030457D02*
X0177265Y0030457D01*
X0177265Y0030849D02*
X0176686Y0030849D01*
X0176686Y0031241D02*
X0177265Y0031241D01*
X0177265Y0031633D02*
X0176686Y0031633D01*
X0176686Y0032026D02*
X0177265Y0032026D01*
X0177265Y0032418D02*
X0176686Y0032418D01*
X0176686Y0032810D02*
X0177265Y0032810D01*
X0177265Y0033202D02*
X0176686Y0033202D01*
X0176686Y0033595D02*
X0177265Y0033595D01*
X0177265Y0033987D02*
X0176686Y0033987D01*
X0176686Y0034379D02*
X0177265Y0034379D01*
X0177265Y0034771D02*
X0176686Y0034771D01*
X0176686Y0035163D02*
X0177265Y0035163D01*
X0177265Y0035556D02*
X0176686Y0035556D01*
X0176686Y0035948D02*
X0177265Y0035948D01*
X0177265Y0036340D02*
X0176686Y0036340D01*
X0176686Y0036732D02*
X0177265Y0036732D01*
X0177265Y0037124D02*
X0176686Y0037124D01*
X0176686Y0037517D02*
X0177265Y0037517D01*
X0177265Y0037909D02*
X0176686Y0037909D01*
X0176686Y0038301D02*
X0177265Y0038301D01*
X0177265Y0038693D02*
X0176686Y0038693D01*
X0176686Y0039085D02*
X0177265Y0039085D01*
X0177265Y0039478D02*
X0176686Y0039478D01*
X0176686Y0039870D02*
X0177265Y0039870D01*
X0177265Y0040262D02*
X0176686Y0040262D01*
X0176686Y0040654D02*
X0177265Y0040654D01*
X0177265Y0041047D02*
X0176686Y0041047D01*
X0176686Y0041439D02*
X0177265Y0041439D01*
X0177265Y0041831D02*
X0176686Y0041831D01*
X0176686Y0042223D02*
X0177265Y0042223D01*
X0177265Y0042615D02*
X0176686Y0042615D01*
X0176686Y0043008D02*
X0177265Y0043008D01*
X0177265Y0043400D02*
X0176686Y0043400D01*
X0176686Y0043792D02*
X0177265Y0043792D01*
X0177265Y0044184D02*
X0176686Y0044184D01*
X0176686Y0044576D02*
X0177265Y0044576D01*
X0177265Y0044969D02*
X0176686Y0044969D01*
X0176686Y0045361D02*
X0177265Y0045361D01*
X0177265Y0045753D02*
X0176686Y0045753D01*
X0176686Y0046145D02*
X0177265Y0046145D01*
X0177265Y0046538D02*
X0176686Y0046538D01*
X0176686Y0046930D02*
X0177265Y0046930D01*
X0177265Y0047322D02*
X0176686Y0047322D01*
X0176686Y0047714D02*
X0177265Y0047714D01*
X0177265Y0048106D02*
X0176686Y0048106D01*
X0176686Y0048499D02*
X0177265Y0048499D01*
X0177265Y0048891D02*
X0176686Y0048891D01*
X0176686Y0049283D02*
X0177265Y0049283D01*
X0177265Y0049675D02*
X0176686Y0049675D01*
X0176686Y0050067D02*
X0177265Y0050067D01*
X0177265Y0050460D02*
X0176686Y0050460D01*
X0176686Y0050852D02*
X0177265Y0050852D01*
X0177265Y0051244D02*
X0176686Y0051244D01*
X0176686Y0051636D02*
X0177265Y0051636D01*
X0177265Y0052028D02*
X0176686Y0052028D01*
X0176686Y0052421D02*
X0177265Y0052421D01*
X0177265Y0052813D02*
X0176686Y0052813D01*
X0176686Y0053205D02*
X0177265Y0053205D01*
X0177265Y0053597D02*
X0176686Y0053597D01*
X0176809Y0053990D02*
X0177265Y0053990D01*
X0177261Y0054382D02*
X0141563Y0054382D01*
X0141885Y0054774D02*
X0177254Y0054774D01*
X0180622Y0054068D02*
X0180614Y0053281D01*
X0180594Y0049343D01*
X0180565Y0036743D01*
X0180542Y0019418D01*
X0180999Y0019087D01*
X0215650Y0019087D01*
X0215745Y0018395D01*
X0215745Y0014458D01*
X0215745Y0014423D01*
X0215746Y0010485D01*
X0215847Y0009799D01*
X0230810Y0009799D01*
X0230839Y0010558D01*
X0230839Y0027095D01*
X0230170Y0027215D01*
X0216832Y0027215D01*
X0217072Y0026634D01*
X0229623Y0026634D01*
X0230258Y0026482D01*
X0230258Y0019394D01*
X0230108Y0018756D01*
X0223808Y0018756D01*
X0223292Y0018485D01*
X0223292Y0010924D01*
X0223872Y0010937D01*
X0223872Y0017976D01*
X0224460Y0018175D01*
X0229973Y0018175D01*
X0230258Y0017672D01*
X0230258Y0010573D01*
X0229664Y0010380D01*
X0224151Y0010380D01*
X0223896Y0010845D01*
X0223267Y0010833D01*
X0222999Y0010380D01*
X0216699Y0010380D01*
X0216325Y0010793D01*
X0216325Y0026543D01*
X0216974Y0026628D01*
X0216743Y0027243D01*
X0216326Y0027546D01*
X0216326Y0054321D01*
X0216048Y0054831D01*
X0208173Y0054831D01*
X0207619Y0055064D01*
X0207619Y0063727D01*
X0207224Y0064119D01*
X0207039Y0063517D01*
X0207039Y0054854D01*
X0206274Y0054831D01*
X0190524Y0054831D01*
X0189955Y0055049D01*
X0189955Y0063712D01*
X0189575Y0064119D01*
X0189375Y0063531D01*
X0189375Y0054869D01*
X0188621Y0054831D01*
X0183108Y0054797D01*
X0181583Y0054776D01*
X0181664Y0054250D01*
X0215478Y0054250D01*
X0215745Y0053730D01*
X0215745Y0020143D01*
X0215432Y0019668D01*
X0181569Y0019668D01*
X0181164Y0020050D01*
X0181164Y0053913D01*
X0181575Y0054221D01*
X0181484Y0054774D01*
X0180746Y0054753D01*
X0180622Y0054068D01*
X0180621Y0053990D02*
X0181266Y0053990D01*
X0181164Y0053597D02*
X0180617Y0053597D01*
X0180614Y0053205D02*
X0181164Y0053205D01*
X0181164Y0052813D02*
X0180612Y0052813D01*
X0180610Y0052421D02*
X0181164Y0052421D01*
X0181164Y0052028D02*
X0180608Y0052028D01*
X0180606Y0051636D02*
X0181164Y0051636D01*
X0181164Y0051244D02*
X0180604Y0051244D01*
X0180602Y0050852D02*
X0181164Y0050852D01*
X0181164Y0050460D02*
X0180600Y0050460D01*
X0180598Y0050067D02*
X0181164Y0050067D01*
X0181164Y0049675D02*
X0180596Y0049675D01*
X0180594Y0049283D02*
X0181164Y0049283D01*
X0181164Y0048891D02*
X0180593Y0048891D01*
X0180592Y0048499D02*
X0181164Y0048499D01*
X0181164Y0048106D02*
X0180591Y0048106D01*
X0180591Y0047714D02*
X0181164Y0047714D01*
X0181164Y0047322D02*
X0180590Y0047322D01*
X0180589Y0046930D02*
X0181164Y0046930D01*
X0181164Y0046538D02*
X0180588Y0046538D01*
X0180587Y0046145D02*
X0181164Y0046145D01*
X0181164Y0045753D02*
X0180586Y0045753D01*
X0180585Y0045361D02*
X0181164Y0045361D01*
X0181164Y0044969D02*
X0180584Y0044969D01*
X0180583Y0044576D02*
X0181164Y0044576D01*
X0181164Y0044184D02*
X0180582Y0044184D01*
X0180581Y0043792D02*
X0181164Y0043792D01*
X0181164Y0043400D02*
X0180581Y0043400D01*
X0180580Y0043008D02*
X0181164Y0043008D01*
X0181164Y0042615D02*
X0180579Y0042615D01*
X0180578Y0042223D02*
X0181164Y0042223D01*
X0181164Y0041831D02*
X0180577Y0041831D01*
X0180576Y0041439D02*
X0181164Y0041439D01*
X0181164Y0041047D02*
X0180575Y0041047D01*
X0180574Y0040654D02*
X0181164Y0040654D01*
X0181164Y0040262D02*
X0180573Y0040262D01*
X0180572Y0039870D02*
X0181164Y0039870D01*
X0181164Y0039478D02*
X0180572Y0039478D01*
X0180571Y0039085D02*
X0181164Y0039085D01*
X0181164Y0038693D02*
X0180570Y0038693D01*
X0180569Y0038301D02*
X0181164Y0038301D01*
X0181164Y0037909D02*
X0180568Y0037909D01*
X0180567Y0037517D02*
X0181164Y0037517D01*
X0181164Y0037124D02*
X0180566Y0037124D01*
X0180565Y0036732D02*
X0181164Y0036732D01*
X0181164Y0036340D02*
X0180565Y0036340D01*
X0180564Y0035948D02*
X0181164Y0035948D01*
X0181164Y0035556D02*
X0180564Y0035556D01*
X0180563Y0035163D02*
X0181164Y0035163D01*
X0181164Y0034771D02*
X0180563Y0034771D01*
X0180562Y0034379D02*
X0181164Y0034379D01*
X0181164Y0033987D02*
X0180562Y0033987D01*
X0180561Y0033595D02*
X0181164Y0033595D01*
X0181164Y0033202D02*
X0180561Y0033202D01*
X0180560Y0032810D02*
X0181164Y0032810D01*
X0181164Y0032418D02*
X0180560Y0032418D01*
X0180559Y0032026D02*
X0181164Y0032026D01*
X0181164Y0031633D02*
X0180558Y0031633D01*
X0180558Y0031241D02*
X0181164Y0031241D01*
X0181164Y0030849D02*
X0180557Y0030849D01*
X0180557Y0030457D02*
X0181164Y0030457D01*
X0181164Y0030065D02*
X0180556Y0030065D01*
X0180556Y0029672D02*
X0181164Y0029672D01*
X0181164Y0029280D02*
X0180555Y0029280D01*
X0180555Y0028888D02*
X0181164Y0028888D01*
X0181164Y0028496D02*
X0180554Y0028496D01*
X0180554Y0028104D02*
X0181164Y0028104D01*
X0181164Y0027711D02*
X0180553Y0027711D01*
X0180553Y0027319D02*
X0181164Y0027319D01*
X0181164Y0026927D02*
X0180552Y0026927D01*
X0180552Y0026535D02*
X0181164Y0026535D01*
X0181164Y0026142D02*
X0180551Y0026142D01*
X0180551Y0025750D02*
X0181164Y0025750D01*
X0181164Y0025358D02*
X0180550Y0025358D01*
X0180550Y0024966D02*
X0181164Y0024966D01*
X0181164Y0024574D02*
X0180549Y0024574D01*
X0180549Y0024181D02*
X0181164Y0024181D01*
X0181164Y0023789D02*
X0180548Y0023789D01*
X0180548Y0023397D02*
X0181164Y0023397D01*
X0181164Y0023005D02*
X0180547Y0023005D01*
X0180547Y0022613D02*
X0181164Y0022613D01*
X0181164Y0022220D02*
X0180546Y0022220D01*
X0180545Y0021828D02*
X0181164Y0021828D01*
X0181164Y0021436D02*
X0180545Y0021436D01*
X0180544Y0021044D02*
X0181164Y0021044D01*
X0181164Y0020652D02*
X0180544Y0020652D01*
X0180543Y0020259D02*
X0181164Y0020259D01*
X0181358Y0019867D02*
X0180543Y0019867D01*
X0180542Y0019475D02*
X0216325Y0019475D01*
X0216325Y0019867D02*
X0215563Y0019867D01*
X0215745Y0020259D02*
X0216325Y0020259D01*
X0216325Y0020652D02*
X0215745Y0020652D01*
X0215745Y0021044D02*
X0216325Y0021044D01*
X0216325Y0021436D02*
X0215745Y0021436D01*
X0215745Y0021828D02*
X0216325Y0021828D01*
X0216325Y0022220D02*
X0215745Y0022220D01*
X0215745Y0022613D02*
X0216325Y0022613D01*
X0216325Y0023005D02*
X0215745Y0023005D01*
X0215745Y0023397D02*
X0216325Y0023397D01*
X0216325Y0023789D02*
X0215745Y0023789D01*
X0215745Y0024181D02*
X0216325Y0024181D01*
X0216325Y0024574D02*
X0215745Y0024574D01*
X0215745Y0024966D02*
X0216325Y0024966D01*
X0216325Y0025358D02*
X0215745Y0025358D01*
X0215745Y0025750D02*
X0216325Y0025750D01*
X0216325Y0026142D02*
X0215745Y0026142D01*
X0215745Y0026535D02*
X0216325Y0026535D01*
X0216861Y0026927D02*
X0215745Y0026927D01*
X0215745Y0027319D02*
X0216639Y0027319D01*
X0216951Y0026927D02*
X0230839Y0026927D01*
X0230839Y0026535D02*
X0230036Y0026535D01*
X0230258Y0026142D02*
X0230839Y0026142D01*
X0230839Y0025750D02*
X0230258Y0025750D01*
X0230258Y0025358D02*
X0230839Y0025358D01*
X0230839Y0024966D02*
X0230258Y0024966D01*
X0230258Y0024574D02*
X0230839Y0024574D01*
X0230839Y0024181D02*
X0230258Y0024181D01*
X0230258Y0023789D02*
X0230839Y0023789D01*
X0230839Y0023397D02*
X0230258Y0023397D01*
X0230258Y0023005D02*
X0230839Y0023005D01*
X0230839Y0022613D02*
X0230258Y0022613D01*
X0230258Y0022220D02*
X0230839Y0022220D01*
X0230839Y0021828D02*
X0230258Y0021828D01*
X0230258Y0021436D02*
X0230839Y0021436D01*
X0230839Y0021044D02*
X0230258Y0021044D01*
X0230258Y0020652D02*
X0230839Y0020652D01*
X0230839Y0020259D02*
X0230258Y0020259D01*
X0230258Y0019867D02*
X0230839Y0019867D01*
X0230839Y0019475D02*
X0230258Y0019475D01*
X0230185Y0019083D02*
X0230839Y0019083D01*
X0230839Y0018690D02*
X0223684Y0018690D01*
X0223292Y0018298D02*
X0230839Y0018298D01*
X0230839Y0017906D02*
X0230125Y0017906D01*
X0230258Y0017514D02*
X0230839Y0017514D01*
X0230839Y0017122D02*
X0230258Y0017122D01*
X0230258Y0016729D02*
X0230839Y0016729D01*
X0230839Y0016337D02*
X0230258Y0016337D01*
X0230258Y0015945D02*
X0230839Y0015945D01*
X0230839Y0015553D02*
X0230258Y0015553D01*
X0230258Y0015161D02*
X0230839Y0015161D01*
X0230839Y0014768D02*
X0230258Y0014768D01*
X0230258Y0014376D02*
X0230839Y0014376D01*
X0230839Y0013984D02*
X0230258Y0013984D01*
X0230258Y0013592D02*
X0230839Y0013592D01*
X0230839Y0013199D02*
X0230258Y0013199D01*
X0230258Y0012807D02*
X0230839Y0012807D01*
X0230839Y0012415D02*
X0230258Y0012415D01*
X0230258Y0012023D02*
X0230839Y0012023D01*
X0230839Y0011631D02*
X0230258Y0011631D01*
X0230258Y0011238D02*
X0230839Y0011238D01*
X0230839Y0010846D02*
X0230258Y0010846D01*
X0229892Y0010454D02*
X0230835Y0010454D01*
X0230820Y0010062D02*
X0215808Y0010062D01*
X0215750Y0010454D02*
X0216632Y0010454D01*
X0216325Y0010846D02*
X0215746Y0010846D01*
X0215746Y0011238D02*
X0216325Y0011238D01*
X0216325Y0011631D02*
X0215745Y0011631D01*
X0215745Y0012023D02*
X0216325Y0012023D01*
X0216325Y0012415D02*
X0215745Y0012415D01*
X0215745Y0012807D02*
X0216325Y0012807D01*
X0216325Y0013199D02*
X0215745Y0013199D01*
X0215745Y0013592D02*
X0216325Y0013592D01*
X0216325Y0013984D02*
X0215745Y0013984D01*
X0215745Y0014376D02*
X0216325Y0014376D01*
X0216325Y0014768D02*
X0215745Y0014768D01*
X0215745Y0015161D02*
X0216325Y0015161D01*
X0216325Y0015553D02*
X0215745Y0015553D01*
X0215745Y0015945D02*
X0216325Y0015945D01*
X0216325Y0016337D02*
X0215745Y0016337D01*
X0215745Y0016729D02*
X0216325Y0016729D01*
X0216325Y0017122D02*
X0215745Y0017122D01*
X0215745Y0017514D02*
X0216325Y0017514D01*
X0216325Y0017906D02*
X0215745Y0017906D01*
X0215745Y0018298D02*
X0216325Y0018298D01*
X0216325Y0018690D02*
X0215704Y0018690D01*
X0215650Y0019083D02*
X0216325Y0019083D01*
X0223292Y0017906D02*
X0223872Y0017906D01*
X0223872Y0017514D02*
X0223292Y0017514D01*
X0223292Y0017122D02*
X0223872Y0017122D01*
X0223872Y0016729D02*
X0223292Y0016729D01*
X0223292Y0016337D02*
X0223872Y0016337D01*
X0223872Y0015945D02*
X0223292Y0015945D01*
X0223292Y0015553D02*
X0223872Y0015553D01*
X0223872Y0015161D02*
X0223292Y0015161D01*
X0223292Y0014768D02*
X0223872Y0014768D01*
X0223872Y0014376D02*
X0223292Y0014376D01*
X0223292Y0013984D02*
X0223872Y0013984D01*
X0223872Y0013592D02*
X0223292Y0013592D01*
X0223292Y0013199D02*
X0223872Y0013199D01*
X0223872Y0012807D02*
X0223292Y0012807D01*
X0223292Y0012415D02*
X0223872Y0012415D01*
X0223872Y0012023D02*
X0223292Y0012023D01*
X0223292Y0011631D02*
X0223872Y0011631D01*
X0223872Y0011238D02*
X0223292Y0011238D01*
X0223043Y0010454D02*
X0224110Y0010454D01*
X0214209Y0011820D02*
X0214241Y0014971D01*
X0214219Y0015757D01*
X0213723Y0015577D01*
X0213095Y0015201D01*
X0213754Y0015010D01*
X0213754Y0013435D01*
X0213754Y0012739D01*
X0213753Y0011951D01*
X0214209Y0011820D01*
X0214211Y0012023D02*
X0213753Y0012023D01*
X0213753Y0012415D02*
X0214215Y0012415D01*
X0214219Y0012807D02*
X0213754Y0012807D01*
X0213754Y0013199D02*
X0214223Y0013199D01*
X0214227Y0013592D02*
X0213754Y0013592D01*
X0213754Y0013984D02*
X0214231Y0013984D01*
X0214235Y0014376D02*
X0213754Y0014376D01*
X0213754Y0014768D02*
X0214239Y0014768D01*
X0214236Y0015161D02*
X0213234Y0015161D01*
X0213683Y0015553D02*
X0214225Y0015553D01*
X0212246Y0014768D02*
X0211761Y0014768D01*
X0211788Y0014703D02*
X0211841Y0013918D01*
X0211809Y0013131D01*
X0211494Y0013222D01*
X0211283Y0012667D01*
X0210776Y0012339D01*
X0210499Y0013062D01*
X0210445Y0013847D01*
X0210486Y0014633D01*
X0210753Y0015308D01*
X0210616Y0015769D01*
X0210168Y0015198D01*
X0209974Y0014437D01*
X0209946Y0013651D01*
X0210061Y0012873D01*
X0210337Y0012140D01*
X0211022Y0011805D01*
X0211743Y0011697D01*
X0212007Y0011655D01*
X0212098Y0012378D01*
X0212286Y0013140D01*
X0212330Y0013926D01*
X0212266Y0014710D01*
X0212020Y0015455D01*
X0211408Y0015907D01*
X0210695Y0015814D01*
X0210820Y0015358D01*
X0211488Y0015414D01*
X0211788Y0014703D01*
X0211810Y0014376D02*
X0212293Y0014376D01*
X0212325Y0013984D02*
X0211837Y0013984D01*
X0211828Y0013592D02*
X0212311Y0013592D01*
X0212289Y0013199D02*
X0211812Y0013199D01*
X0211573Y0013199D02*
X0211485Y0013199D01*
X0211337Y0012807D02*
X0212204Y0012807D01*
X0212108Y0012415D02*
X0210894Y0012415D01*
X0210747Y0012415D02*
X0210233Y0012415D01*
X0210085Y0012807D02*
X0210596Y0012807D01*
X0210489Y0013199D02*
X0210013Y0013199D01*
X0209955Y0013592D02*
X0210463Y0013592D01*
X0210452Y0013984D02*
X0209958Y0013984D01*
X0209972Y0014376D02*
X0210473Y0014376D01*
X0210539Y0014768D02*
X0210059Y0014768D01*
X0210159Y0015161D02*
X0210694Y0015161D01*
X0210680Y0015553D02*
X0210447Y0015553D01*
X0210767Y0015553D02*
X0211888Y0015553D01*
X0212117Y0015161D02*
X0211595Y0015161D01*
X0205863Y0013561D02*
X0205545Y0014219D01*
X0205545Y0017369D01*
X0205501Y0018113D01*
X0192901Y0018113D01*
X0192193Y0018033D01*
X0192193Y0014096D01*
X0191838Y0013507D01*
X0192063Y0012901D01*
X0192193Y0012514D01*
X0192192Y0011524D01*
X0192172Y0010737D01*
X0191609Y0011275D01*
X0191054Y0011834D01*
X0191490Y0012391D01*
X0192012Y0012913D01*
X0191778Y0013430D01*
X0190705Y0012344D01*
X0190356Y0011784D01*
X0192024Y0010111D01*
X0192193Y0009394D01*
X0192193Y0007819D01*
X0192774Y0007882D01*
X0192774Y0017332D01*
X0193361Y0017533D01*
X0204386Y0017533D01*
X0204964Y0017323D01*
X0204964Y0012396D01*
X0204965Y0007671D01*
X0205545Y0007863D01*
X0205545Y0009438D01*
X0205918Y0010071D01*
X0206441Y0010592D01*
X0206109Y0011007D01*
X0205586Y0010487D01*
X0205545Y0011176D01*
X0205545Y0012751D01*
X0205862Y0012777D01*
X0206416Y0012218D01*
X0206683Y0011616D01*
X0206178Y0011078D01*
X0206510Y0010662D01*
X0207024Y0011192D01*
X0207448Y0011812D01*
X0206952Y0012422D01*
X0206411Y0012994D01*
X0205863Y0013561D01*
X0205848Y0013592D02*
X0204964Y0013592D01*
X0204964Y0013984D02*
X0205659Y0013984D01*
X0205545Y0014376D02*
X0204964Y0014376D01*
X0204964Y0014768D02*
X0205545Y0014768D01*
X0205545Y0015161D02*
X0204964Y0015161D01*
X0204964Y0015553D02*
X0205545Y0015553D01*
X0205545Y0015945D02*
X0204964Y0015945D01*
X0204964Y0016337D02*
X0205545Y0016337D01*
X0205545Y0016729D02*
X0204964Y0016729D01*
X0204964Y0017122D02*
X0205545Y0017122D01*
X0205536Y0017514D02*
X0204438Y0017514D01*
X0205513Y0017906D02*
X0192193Y0017906D01*
X0192193Y0017514D02*
X0193306Y0017514D01*
X0192774Y0017122D02*
X0192193Y0017122D01*
X0192193Y0016729D02*
X0192774Y0016729D01*
X0192774Y0016337D02*
X0192193Y0016337D01*
X0192193Y0015945D02*
X0192774Y0015945D01*
X0192774Y0015553D02*
X0192193Y0015553D01*
X0192193Y0015161D02*
X0192774Y0015161D01*
X0192774Y0014768D02*
X0192193Y0014768D01*
X0192193Y0014376D02*
X0192774Y0014376D01*
X0192774Y0013984D02*
X0192126Y0013984D01*
X0191889Y0013592D02*
X0192774Y0013592D01*
X0192774Y0013199D02*
X0191952Y0013199D01*
X0191882Y0013199D02*
X0191550Y0013199D01*
X0191906Y0012807D02*
X0191163Y0012807D01*
X0191514Y0012415D02*
X0190776Y0012415D01*
X0190505Y0012023D02*
X0191202Y0012023D01*
X0191256Y0011631D02*
X0190509Y0011631D01*
X0190900Y0011238D02*
X0191647Y0011238D01*
X0191291Y0010846D02*
X0192058Y0010846D01*
X0192175Y0010846D02*
X0192774Y0010846D01*
X0192774Y0010454D02*
X0191683Y0010454D01*
X0192036Y0010062D02*
X0192774Y0010062D01*
X0192774Y0009670D02*
X0192128Y0009670D01*
X0192193Y0009277D02*
X0192774Y0009277D01*
X0192774Y0008885D02*
X0192193Y0008885D01*
X0192193Y0008493D02*
X0192774Y0008493D01*
X0192774Y0008101D02*
X0192193Y0008101D01*
X0192185Y0011238D02*
X0192774Y0011238D01*
X0192774Y0011631D02*
X0192192Y0011631D01*
X0192193Y0012023D02*
X0192774Y0012023D01*
X0192774Y0012415D02*
X0192193Y0012415D01*
X0192094Y0012807D02*
X0192774Y0012807D01*
X0194959Y0013814D02*
X0195401Y0013187D01*
X0195551Y0013126D01*
X0196332Y0013082D01*
X0196987Y0013467D01*
X0197168Y0014221D01*
X0196819Y0014891D01*
X0196185Y0015358D01*
X0195594Y0015873D01*
X0195682Y0016605D01*
X0196387Y0016653D01*
X0196768Y0016041D01*
X0197020Y0016566D01*
X0196518Y0017146D01*
X0195750Y0017125D01*
X0195160Y0016625D01*
X0195078Y0015866D01*
X0195564Y0015257D01*
X0196192Y0014781D01*
X0196670Y0014191D01*
X0196348Y0013529D01*
X0195608Y0013628D01*
X0195296Y0014292D01*
X0194959Y0013814D01*
X0195079Y0013984D02*
X0195440Y0013984D01*
X0195116Y0013592D02*
X0195877Y0013592D01*
X0196378Y0013592D02*
X0197017Y0013592D01*
X0197111Y0013984D02*
X0196569Y0013984D01*
X0196520Y0014376D02*
X0197087Y0014376D01*
X0196883Y0014768D02*
X0196202Y0014768D01*
X0196453Y0015161D02*
X0195691Y0015161D01*
X0195962Y0015553D02*
X0195328Y0015553D01*
X0195087Y0015945D02*
X0195602Y0015945D01*
X0195650Y0016337D02*
X0195129Y0016337D01*
X0195283Y0016729D02*
X0196878Y0016729D01*
X0196910Y0016337D02*
X0196584Y0016337D01*
X0196538Y0017122D02*
X0195746Y0017122D01*
X0197510Y0016968D02*
X0197692Y0015403D01*
X0197847Y0014008D01*
X0197934Y0013225D01*
X0198420Y0013289D01*
X0198533Y0014068D01*
X0198727Y0015632D01*
X0198859Y0015775D01*
X0198965Y0014994D01*
X0199161Y0013431D01*
X0199641Y0013105D01*
X0199739Y0013883D01*
X0200102Y0017013D01*
X0199664Y0017049D01*
X0199516Y0015481D01*
X0199363Y0014796D01*
X0199241Y0015573D01*
X0199064Y0017139D01*
X0198527Y0016899D01*
X0198423Y0016118D01*
X0198332Y0015336D01*
X0198214Y0014590D01*
X0198115Y0015371D01*
X0198039Y0016155D01*
X0197939Y0016936D01*
X0197510Y0016968D01*
X0197538Y0016729D02*
X0197965Y0016729D01*
X0198016Y0016337D02*
X0197583Y0016337D01*
X0197629Y0015945D02*
X0198059Y0015945D01*
X0198403Y0015945D02*
X0199199Y0015945D01*
X0199560Y0015945D02*
X0199978Y0015945D01*
X0200024Y0016337D02*
X0199597Y0016337D01*
X0199634Y0016729D02*
X0200069Y0016729D01*
X0200779Y0016415D02*
X0201398Y0016209D01*
X0201398Y0013890D01*
X0201398Y0013103D01*
X0201896Y0013129D01*
X0201895Y0015492D01*
X0201885Y0016279D01*
X0201847Y0017066D01*
X0201319Y0016790D01*
X0200779Y0016415D01*
X0201014Y0016337D02*
X0201883Y0016337D01*
X0201889Y0015945D02*
X0201398Y0015945D01*
X0201398Y0015553D02*
X0201894Y0015553D01*
X0201895Y0015161D02*
X0201398Y0015161D01*
X0201398Y0014768D02*
X0201895Y0014768D01*
X0201895Y0014376D02*
X0201398Y0014376D01*
X0201398Y0013984D02*
X0201895Y0013984D01*
X0201895Y0013592D02*
X0201398Y0013592D01*
X0201398Y0013199D02*
X0201896Y0013199D01*
X0199703Y0013592D02*
X0199141Y0013592D01*
X0199092Y0013984D02*
X0199751Y0013984D01*
X0199796Y0014376D02*
X0199043Y0014376D01*
X0198994Y0014768D02*
X0199842Y0014768D01*
X0199887Y0015161D02*
X0199444Y0015161D01*
X0199306Y0015161D02*
X0198943Y0015161D01*
X0198668Y0015161D02*
X0198304Y0015161D01*
X0198142Y0015161D02*
X0197719Y0015161D01*
X0197674Y0015553D02*
X0198098Y0015553D01*
X0198357Y0015553D02*
X0198717Y0015553D01*
X0198890Y0015553D02*
X0199244Y0015553D01*
X0199523Y0015553D02*
X0199933Y0015553D01*
X0199154Y0016337D02*
X0198452Y0016337D01*
X0198505Y0016729D02*
X0199110Y0016729D01*
X0199066Y0017122D02*
X0199026Y0017122D01*
X0201231Y0016729D02*
X0201864Y0016729D01*
X0198619Y0014768D02*
X0198242Y0014768D01*
X0198191Y0014768D02*
X0197762Y0014768D01*
X0197806Y0014376D02*
X0198571Y0014376D01*
X0198520Y0013984D02*
X0197850Y0013984D01*
X0197893Y0013592D02*
X0198463Y0013592D01*
X0199502Y0013199D02*
X0199653Y0013199D01*
X0196532Y0013199D02*
X0195393Y0013199D01*
X0204964Y0013199D02*
X0206212Y0013199D01*
X0206588Y0012807D02*
X0204964Y0012807D01*
X0204964Y0012415D02*
X0205545Y0012415D01*
X0205545Y0012023D02*
X0204964Y0012023D01*
X0204964Y0011631D02*
X0205545Y0011631D01*
X0205545Y0011238D02*
X0204964Y0011238D01*
X0204964Y0010846D02*
X0205564Y0010846D01*
X0205947Y0010846D02*
X0206238Y0010846D01*
X0206363Y0010846D02*
X0206689Y0010846D01*
X0206329Y0011238D02*
X0207056Y0011238D01*
X0207324Y0011631D02*
X0206677Y0011631D01*
X0206503Y0012023D02*
X0207276Y0012023D01*
X0206957Y0012415D02*
X0206221Y0012415D01*
X0210576Y0012023D02*
X0212053Y0012023D01*
X0206303Y0010454D02*
X0204964Y0010454D01*
X0204964Y0010062D02*
X0205913Y0010062D01*
X0205681Y0009670D02*
X0204964Y0009670D01*
X0204964Y0009277D02*
X0205545Y0009277D01*
X0205545Y0008885D02*
X0204964Y0008885D01*
X0204964Y0008493D02*
X0205545Y0008493D01*
X0205545Y0008101D02*
X0204964Y0008101D01*
X0204965Y0007709D02*
X0205077Y0007709D01*
X0231443Y0007469D02*
X0010387Y0007469D01*
X0073087Y0012150D02*
X0073287Y0011591D01*
X0074365Y0010511D01*
X0074512Y0011113D01*
X0073989Y0011635D01*
X0073865Y0012193D01*
X0074422Y0012750D01*
X0074849Y0012994D01*
X0074849Y0012206D01*
X0074843Y0011217D01*
X0074591Y0011099D01*
X0074429Y0010437D01*
X0074849Y0009874D01*
X0074849Y0008299D01*
X0075167Y0007830D01*
X0075430Y0008355D01*
X0075430Y0017017D01*
X0075619Y0017616D01*
X0087431Y0017616D01*
X0087620Y0017017D01*
X0087620Y0012089D01*
X0087620Y0008152D01*
X0088003Y0007747D01*
X0088201Y0008337D01*
X0088201Y0009124D01*
X0088293Y0009873D01*
X0089371Y0010953D01*
X0089043Y0011374D01*
X0088523Y0010850D01*
X0088200Y0010861D01*
X0088200Y0012436D01*
X0088235Y0013140D01*
X0088794Y0012585D01*
X0089334Y0012011D01*
X0089097Y0011454D01*
X0089440Y0011024D01*
X0089941Y0011566D01*
X0089870Y0012206D01*
X0089342Y0012790D01*
X0088248Y0013924D01*
X0088201Y0014692D01*
X0088201Y0017842D01*
X0087767Y0018196D01*
X0075167Y0018196D01*
X0074849Y0017726D01*
X0074849Y0014576D01*
X0074747Y0013831D01*
X0073087Y0012150D01*
X0073133Y0012023D02*
X0073903Y0012023D01*
X0073994Y0011631D02*
X0073273Y0011631D01*
X0073639Y0011238D02*
X0074386Y0011238D01*
X0074446Y0010846D02*
X0074030Y0010846D01*
X0074529Y0010846D02*
X0075430Y0010846D01*
X0075430Y0010454D02*
X0074433Y0010454D01*
X0074709Y0010062D02*
X0075430Y0010062D01*
X0075430Y0009670D02*
X0074849Y0009670D01*
X0074849Y0009277D02*
X0075430Y0009277D01*
X0075430Y0008885D02*
X0074849Y0008885D01*
X0074849Y0008493D02*
X0075430Y0008493D01*
X0075303Y0008101D02*
X0074984Y0008101D01*
X0074843Y0011238D02*
X0075430Y0011238D01*
X0075430Y0011631D02*
X0074846Y0011631D01*
X0074848Y0012023D02*
X0075430Y0012023D01*
X0075430Y0012415D02*
X0074849Y0012415D01*
X0074849Y0012807D02*
X0075430Y0012807D01*
X0075430Y0013199D02*
X0074124Y0013199D01*
X0073737Y0012807D02*
X0074522Y0012807D01*
X0074087Y0012415D02*
X0073350Y0012415D01*
X0074512Y0013592D02*
X0075430Y0013592D01*
X0075430Y0013984D02*
X0074768Y0013984D01*
X0074822Y0014376D02*
X0075430Y0014376D01*
X0075430Y0014768D02*
X0074849Y0014768D01*
X0074849Y0015161D02*
X0075430Y0015161D01*
X0075430Y0015553D02*
X0074849Y0015553D01*
X0074849Y0015945D02*
X0075430Y0015945D01*
X0075430Y0016337D02*
X0074849Y0016337D01*
X0074849Y0016729D02*
X0075430Y0016729D01*
X0075463Y0017122D02*
X0074849Y0017122D01*
X0074849Y0017514D02*
X0075587Y0017514D01*
X0074971Y0017906D02*
X0088122Y0017906D01*
X0088201Y0017514D02*
X0087463Y0017514D01*
X0087587Y0017122D02*
X0088201Y0017122D01*
X0088201Y0016729D02*
X0087620Y0016729D01*
X0087620Y0016337D02*
X0088201Y0016337D01*
X0088201Y0015945D02*
X0087620Y0015945D01*
X0087620Y0015553D02*
X0088201Y0015553D01*
X0088201Y0015161D02*
X0087620Y0015161D01*
X0087620Y0014768D02*
X0088201Y0014768D01*
X0088220Y0014376D02*
X0087620Y0014376D01*
X0087620Y0013984D02*
X0088245Y0013984D01*
X0088569Y0013592D02*
X0087620Y0013592D01*
X0087620Y0013199D02*
X0088947Y0013199D01*
X0088570Y0012807D02*
X0089326Y0012807D01*
X0089681Y0012415D02*
X0088954Y0012415D01*
X0089323Y0012023D02*
X0089890Y0012023D01*
X0089934Y0011631D02*
X0089172Y0011631D01*
X0089149Y0011238D02*
X0088909Y0011238D01*
X0089269Y0011238D02*
X0089638Y0011238D01*
X0089265Y0010846D02*
X0087620Y0010846D01*
X0087620Y0010454D02*
X0088873Y0010454D01*
X0088481Y0010062D02*
X0087620Y0010062D01*
X0087620Y0009670D02*
X0088268Y0009670D01*
X0088220Y0009277D02*
X0087620Y0009277D01*
X0087620Y0008885D02*
X0088201Y0008885D01*
X0088201Y0008493D02*
X0087620Y0008493D01*
X0087668Y0008101D02*
X0088122Y0008101D01*
X0088200Y0011238D02*
X0087620Y0011238D01*
X0087620Y0011631D02*
X0088200Y0011631D01*
X0088200Y0012023D02*
X0087620Y0012023D01*
X0087620Y0012415D02*
X0088200Y0012415D01*
X0088219Y0012807D02*
X0087620Y0012807D01*
X0085023Y0012957D02*
X0084552Y0013180D01*
X0084551Y0013797D01*
X0084424Y0014346D01*
X0084549Y0014947D01*
X0084545Y0015812D01*
X0084344Y0015776D01*
X0083985Y0015075D01*
X0083645Y0014365D01*
X0084365Y0014302D01*
X0084502Y0013849D01*
X0083800Y0013883D01*
X0083141Y0014012D01*
X0083366Y0014758D01*
X0083708Y0015467D01*
X0084071Y0016166D01*
X0084454Y0016854D01*
X0085047Y0017034D01*
X0085087Y0014672D01*
X0085523Y0014233D01*
X0085064Y0013741D01*
X0085023Y0012957D01*
X0085036Y0013199D02*
X0084552Y0013199D01*
X0084552Y0013592D02*
X0085057Y0013592D01*
X0085291Y0013984D02*
X0084508Y0013984D01*
X0084461Y0013984D02*
X0083285Y0013984D01*
X0083251Y0014376D02*
X0083650Y0014376D01*
X0083838Y0014768D02*
X0083371Y0014768D01*
X0083560Y0015161D02*
X0084029Y0015161D01*
X0084230Y0015553D02*
X0083752Y0015553D01*
X0083956Y0015945D02*
X0085065Y0015945D01*
X0085058Y0016337D02*
X0084166Y0016337D01*
X0084385Y0016729D02*
X0085052Y0016729D01*
X0082847Y0016983D02*
X0082397Y0016913D01*
X0082249Y0015345D01*
X0082085Y0014764D01*
X0081973Y0015543D01*
X0081796Y0017109D01*
X0081256Y0016763D01*
X0081156Y0015982D01*
X0081064Y0015200D01*
X0080941Y0014560D01*
X0080848Y0015342D01*
X0080772Y0016126D01*
X0080665Y0016906D01*
X0080256Y0016831D01*
X0080437Y0015266D01*
X0080505Y0014655D01*
X0080678Y0013089D01*
X0081169Y0013259D01*
X0081277Y0014038D01*
X0081472Y0015602D01*
X0081605Y0015639D01*
X0081710Y0014858D01*
X0081906Y0013295D01*
X0082399Y0013070D01*
X0082484Y0013853D01*
X0082847Y0016983D01*
X0082817Y0016729D02*
X0082380Y0016729D01*
X0082343Y0016337D02*
X0082772Y0016337D01*
X0082726Y0015945D02*
X0082306Y0015945D01*
X0081928Y0015945D02*
X0081151Y0015945D01*
X0080789Y0015945D02*
X0080358Y0015945D01*
X0080313Y0016337D02*
X0080743Y0016337D01*
X0080689Y0016729D02*
X0080267Y0016729D01*
X0079737Y0016533D02*
X0079561Y0015957D01*
X0079165Y0016533D01*
X0078460Y0016561D01*
X0078309Y0015840D01*
X0078880Y0015308D01*
X0079516Y0014843D01*
X0079904Y0014193D01*
X0079755Y0013431D01*
X0079125Y0013007D01*
X0078343Y0013028D01*
X0077712Y0013678D01*
X0077980Y0014214D01*
X0078308Y0013583D01*
X0079036Y0013426D01*
X0079410Y0014054D01*
X0078973Y0014665D01*
X0078345Y0015140D01*
X0077837Y0015732D01*
X0077874Y0016494D01*
X0078438Y0017021D01*
X0079205Y0017082D01*
X0079737Y0016533D01*
X0079677Y0016337D02*
X0079300Y0016337D01*
X0079547Y0016729D02*
X0078126Y0016729D01*
X0077866Y0016337D02*
X0078413Y0016337D01*
X0078331Y0015945D02*
X0077847Y0015945D01*
X0077991Y0015553D02*
X0078617Y0015553D01*
X0078327Y0015161D02*
X0079081Y0015161D01*
X0078836Y0014768D02*
X0079560Y0014768D01*
X0079795Y0014376D02*
X0079179Y0014376D01*
X0079368Y0013984D02*
X0079863Y0013984D01*
X0079786Y0013592D02*
X0079135Y0013592D01*
X0079410Y0013199D02*
X0078176Y0013199D01*
X0078303Y0013592D02*
X0077796Y0013592D01*
X0077865Y0013984D02*
X0078100Y0013984D01*
X0080536Y0014376D02*
X0081319Y0014376D01*
X0081270Y0013984D02*
X0080579Y0013984D01*
X0080622Y0013592D02*
X0081215Y0013592D01*
X0080997Y0013199D02*
X0080666Y0013199D01*
X0081869Y0013592D02*
X0082455Y0013592D01*
X0082499Y0013984D02*
X0081820Y0013984D01*
X0081771Y0014376D02*
X0082544Y0014376D01*
X0082590Y0014768D02*
X0082087Y0014768D01*
X0082085Y0014768D02*
X0081721Y0014768D01*
X0081368Y0014768D02*
X0080981Y0014768D01*
X0080916Y0014768D02*
X0080492Y0014768D01*
X0080448Y0015161D02*
X0080870Y0015161D01*
X0081056Y0015161D02*
X0081417Y0015161D01*
X0081669Y0015161D02*
X0082028Y0015161D01*
X0082197Y0015161D02*
X0082635Y0015161D01*
X0082681Y0015553D02*
X0082269Y0015553D01*
X0081972Y0015553D02*
X0081617Y0015553D01*
X0081466Y0015553D02*
X0081105Y0015553D01*
X0080828Y0015553D02*
X0080403Y0015553D01*
X0081201Y0016337D02*
X0081883Y0016337D01*
X0081839Y0016729D02*
X0081252Y0016729D01*
X0084546Y0015553D02*
X0085072Y0015553D01*
X0085078Y0015161D02*
X0084548Y0015161D01*
X0084512Y0014768D02*
X0085085Y0014768D01*
X0085381Y0014376D02*
X0084430Y0014376D01*
X0082413Y0013199D02*
X0082116Y0013199D01*
X0112149Y0011872D02*
X0113817Y0010200D01*
X0113992Y0009484D01*
X0113992Y0007909D01*
X0114572Y0007957D01*
X0114572Y0017407D01*
X0115151Y0017616D01*
X0126177Y0017616D01*
X0126762Y0017414D01*
X0126762Y0012486D01*
X0126763Y0007761D01*
X0127343Y0007939D01*
X0127343Y0009514D01*
X0127712Y0010149D01*
X0128235Y0010670D01*
X0127913Y0011095D01*
X0127389Y0010575D01*
X0127343Y0011252D01*
X0127343Y0012827D01*
X0127655Y0012865D01*
X0128210Y0012306D01*
X0128486Y0011704D01*
X0127981Y0011166D01*
X0128304Y0010740D01*
X0128818Y0011270D01*
X0129249Y0011888D01*
X0128755Y0012499D01*
X0128214Y0013072D01*
X0127667Y0013638D01*
X0127343Y0014295D01*
X0127343Y0017445D01*
X0127307Y0018196D01*
X0114707Y0018196D01*
X0113992Y0018124D01*
X0113992Y0014186D01*
X0113641Y0013595D01*
X0113857Y0012980D01*
X0113991Y0012604D01*
X0113990Y0011614D01*
X0113972Y0010827D01*
X0113412Y0011353D01*
X0112857Y0011912D01*
X0113283Y0012469D01*
X0113805Y0012991D01*
X0113581Y0013518D01*
X0112509Y0012432D01*
X0112149Y0011872D01*
X0112246Y0012023D02*
X0112942Y0012023D01*
X0113136Y0011631D02*
X0112390Y0011631D01*
X0112781Y0011238D02*
X0113534Y0011238D01*
X0113981Y0011238D02*
X0114572Y0011238D01*
X0114572Y0010846D02*
X0113972Y0010846D01*
X0113951Y0010846D02*
X0113172Y0010846D01*
X0113564Y0010454D02*
X0114572Y0010454D01*
X0114572Y0010062D02*
X0113851Y0010062D01*
X0113946Y0009670D02*
X0114572Y0009670D01*
X0114572Y0009277D02*
X0113992Y0009277D01*
X0113992Y0008885D02*
X0114572Y0008885D01*
X0114572Y0008493D02*
X0113992Y0008493D01*
X0113992Y0008101D02*
X0114572Y0008101D01*
X0126763Y0008101D02*
X0127343Y0008101D01*
X0127343Y0008493D02*
X0126763Y0008493D01*
X0126763Y0008885D02*
X0127343Y0008885D01*
X0127343Y0009277D02*
X0126763Y0009277D01*
X0126763Y0009670D02*
X0127433Y0009670D01*
X0127661Y0010062D02*
X0126763Y0010062D01*
X0126763Y0010454D02*
X0128018Y0010454D01*
X0128101Y0010846D02*
X0127662Y0010846D01*
X0127370Y0010846D02*
X0126762Y0010846D01*
X0126762Y0011238D02*
X0127344Y0011238D01*
X0127343Y0011631D02*
X0126762Y0011631D01*
X0126762Y0012023D02*
X0127343Y0012023D01*
X0127343Y0012415D02*
X0126762Y0012415D01*
X0126762Y0012807D02*
X0127343Y0012807D01*
X0127712Y0012807D02*
X0128464Y0012807D01*
X0128823Y0012415D02*
X0128102Y0012415D01*
X0128340Y0012023D02*
X0129140Y0012023D01*
X0129069Y0011631D02*
X0128417Y0011631D01*
X0128049Y0011238D02*
X0128787Y0011238D01*
X0128406Y0010846D02*
X0128223Y0010846D01*
X0124435Y0013284D02*
X0123776Y0012902D01*
X0123006Y0012993D01*
X0122733Y0013265D01*
X0122540Y0014012D01*
X0123017Y0013809D01*
X0123522Y0013290D01*
X0124124Y0013712D01*
X0124087Y0014477D01*
X0123463Y0014875D01*
X0123907Y0015395D01*
X0124081Y0016116D01*
X0123617Y0016684D01*
X0123116Y0016130D01*
X0122619Y0016097D01*
X0122962Y0016792D01*
X0123690Y0017035D01*
X0124372Y0016699D01*
X0124590Y0015960D01*
X0124277Y0015255D01*
X0124423Y0014743D01*
X0124688Y0014019D01*
X0124435Y0013284D01*
X0124289Y0013199D02*
X0122799Y0013199D01*
X0122649Y0013592D02*
X0123228Y0013592D01*
X0123952Y0013592D02*
X0124541Y0013592D01*
X0124676Y0013984D02*
X0124111Y0013984D01*
X0124092Y0014376D02*
X0124557Y0014376D01*
X0124416Y0014768D02*
X0123630Y0014768D01*
X0123707Y0015161D02*
X0124304Y0015161D01*
X0124410Y0015553D02*
X0123945Y0015553D01*
X0124040Y0015945D02*
X0124584Y0015945D01*
X0124479Y0016337D02*
X0123900Y0016337D01*
X0124310Y0016729D02*
X0122931Y0016729D01*
X0122738Y0016337D02*
X0123304Y0016337D01*
X0122112Y0016535D02*
X0121885Y0017035D01*
X0121666Y0016411D01*
X0121593Y0015627D01*
X0121507Y0014845D01*
X0121325Y0015096D01*
X0121145Y0016661D01*
X0120695Y0017014D01*
X0120507Y0016264D01*
X0120317Y0014700D01*
X0120194Y0014894D01*
X0120034Y0016461D01*
X0119674Y0017034D01*
X0119614Y0016331D01*
X0119880Y0013984D01*
X0120578Y0013984D01*
X0120629Y0014376D02*
X0119836Y0014376D01*
X0119880Y0013984D02*
X0119986Y0013203D01*
X0120329Y0012864D01*
X0120526Y0013590D01*
X0120731Y0015152D01*
X0120854Y0015918D01*
X0120971Y0015139D01*
X0121169Y0013577D01*
X0121384Y0012914D01*
X0121751Y0013406D01*
X0122112Y0016535D01*
X0122089Y0016337D02*
X0121659Y0016337D01*
X0121623Y0015945D02*
X0122044Y0015945D01*
X0121999Y0015553D02*
X0121585Y0015553D01*
X0121273Y0015553D02*
X0120909Y0015553D01*
X0120795Y0015553D02*
X0120420Y0015553D01*
X0120127Y0015553D02*
X0119702Y0015553D01*
X0119658Y0015945D02*
X0120087Y0015945D01*
X0120468Y0015945D02*
X0121227Y0015945D01*
X0121182Y0016337D02*
X0120525Y0016337D01*
X0120623Y0016729D02*
X0121058Y0016729D01*
X0121778Y0016729D02*
X0122024Y0016729D01*
X0120047Y0016337D02*
X0119615Y0016337D01*
X0119648Y0016729D02*
X0119865Y0016729D01*
X0118932Y0016658D02*
X0118282Y0017043D01*
X0117541Y0016822D01*
X0117104Y0016188D01*
X0117266Y0015446D01*
X0117841Y0014912D01*
X0118466Y0014434D01*
X0118696Y0013736D01*
X0118112Y0013303D01*
X0117501Y0013705D01*
X0117054Y0014113D01*
X0117112Y0013377D01*
X0117884Y0012906D01*
X0118661Y0012987D01*
X0119157Y0013565D01*
X0119172Y0014342D01*
X0118636Y0014903D01*
X0118001Y0015369D01*
X0117563Y0015986D01*
X0117972Y0016594D01*
X0118598Y0016250D01*
X0119096Y0015920D01*
X0118932Y0016658D01*
X0118811Y0016729D02*
X0117477Y0016729D01*
X0117207Y0016337D02*
X0117799Y0016337D01*
X0117592Y0015945D02*
X0117157Y0015945D01*
X0117242Y0015553D02*
X0117870Y0015553D01*
X0117573Y0015161D02*
X0118285Y0015161D01*
X0118029Y0014768D02*
X0118765Y0014768D01*
X0118485Y0014376D02*
X0119139Y0014376D01*
X0119165Y0013984D02*
X0118614Y0013984D01*
X0118501Y0013592D02*
X0119157Y0013592D01*
X0118843Y0013199D02*
X0117403Y0013199D01*
X0117673Y0013592D02*
X0117095Y0013592D01*
X0117064Y0013984D02*
X0117195Y0013984D01*
X0114572Y0013984D02*
X0113872Y0013984D01*
X0113992Y0014376D02*
X0114572Y0014376D01*
X0114572Y0014768D02*
X0113992Y0014768D01*
X0113992Y0015161D02*
X0114572Y0015161D01*
X0114572Y0015553D02*
X0113992Y0015553D01*
X0113992Y0015945D02*
X0114572Y0015945D01*
X0114572Y0016337D02*
X0113992Y0016337D01*
X0113992Y0016729D02*
X0114572Y0016729D01*
X0114572Y0017122D02*
X0113992Y0017122D01*
X0113992Y0017514D02*
X0114868Y0017514D01*
X0113992Y0017906D02*
X0127321Y0017906D01*
X0127340Y0017514D02*
X0126472Y0017514D01*
X0126762Y0017122D02*
X0127343Y0017122D01*
X0127343Y0016729D02*
X0126762Y0016729D01*
X0126762Y0016337D02*
X0127343Y0016337D01*
X0127343Y0015945D02*
X0126762Y0015945D01*
X0126762Y0015553D02*
X0127343Y0015553D01*
X0127343Y0015161D02*
X0126762Y0015161D01*
X0126762Y0014768D02*
X0127343Y0014768D01*
X0127343Y0014376D02*
X0126762Y0014376D01*
X0126762Y0013984D02*
X0127496Y0013984D01*
X0127712Y0013592D02*
X0126762Y0013592D01*
X0126762Y0013199D02*
X0128091Y0013199D01*
X0122605Y0013984D02*
X0122547Y0013984D01*
X0121818Y0013984D02*
X0121117Y0013984D01*
X0121067Y0014376D02*
X0121863Y0014376D01*
X0121908Y0014768D02*
X0121018Y0014768D01*
X0120681Y0014768D02*
X0120325Y0014768D01*
X0120274Y0014768D02*
X0119791Y0014768D01*
X0119747Y0015161D02*
X0120167Y0015161D01*
X0120373Y0015161D02*
X0120732Y0015161D01*
X0120967Y0015161D02*
X0121318Y0015161D01*
X0121541Y0015161D02*
X0121953Y0015161D01*
X0119090Y0015945D02*
X0119058Y0015945D01*
X0119003Y0016337D02*
X0118439Y0016337D01*
X0119933Y0013592D02*
X0120527Y0013592D01*
X0120420Y0013199D02*
X0119990Y0013199D01*
X0121167Y0013592D02*
X0121772Y0013592D01*
X0121597Y0013199D02*
X0121291Y0013199D01*
X0114572Y0013199D02*
X0113780Y0013199D01*
X0113717Y0013199D02*
X0113267Y0013199D01*
X0113621Y0012807D02*
X0112879Y0012807D01*
X0113242Y0012415D02*
X0112498Y0012415D01*
X0113918Y0012807D02*
X0114572Y0012807D01*
X0114572Y0012415D02*
X0113991Y0012415D01*
X0113991Y0012023D02*
X0114572Y0012023D01*
X0114572Y0011631D02*
X0113990Y0011631D01*
X0113642Y0013592D02*
X0114572Y0013592D01*
X0151377Y0012155D02*
X0151567Y0011596D01*
X0152644Y0010516D01*
X0152801Y0011108D01*
X0152279Y0011630D01*
X0152145Y0012188D01*
X0152702Y0012745D01*
X0153134Y0013001D01*
X0153134Y0012213D01*
X0153128Y0011224D01*
X0152880Y0011096D01*
X0152709Y0010442D01*
X0153134Y0009881D01*
X0153134Y0008306D01*
X0153445Y0007830D01*
X0153714Y0008348D01*
X0153714Y0017010D01*
X0153897Y0017616D01*
X0165709Y0017616D01*
X0165905Y0017024D01*
X0165905Y0012096D01*
X0165905Y0008159D01*
X0166281Y0007747D01*
X0166485Y0008330D01*
X0166485Y0009117D01*
X0166573Y0009868D01*
X0167651Y0010948D01*
X0167333Y0011379D01*
X0166813Y0010855D01*
X0166485Y0010854D01*
X0166485Y0012429D01*
X0166515Y0013145D01*
X0167074Y0012590D01*
X0167614Y0012017D01*
X0167386Y0011459D01*
X0167719Y0011019D01*
X0168221Y0011560D01*
X0168160Y0012201D01*
X0167632Y0012785D01*
X0166538Y0013919D01*
X0166486Y0014685D01*
X0166486Y0017835D01*
X0166059Y0018196D01*
X0153459Y0018196D01*
X0153134Y0017733D01*
X0153134Y0014583D01*
X0153037Y0013835D01*
X0151377Y0012155D01*
X0151422Y0012023D02*
X0152185Y0012023D01*
X0152279Y0011631D02*
X0151555Y0011631D01*
X0151924Y0011238D02*
X0152671Y0011238D01*
X0152732Y0010846D02*
X0152315Y0010846D01*
X0152815Y0010846D02*
X0153714Y0010846D01*
X0153714Y0010454D02*
X0152712Y0010454D01*
X0152997Y0010062D02*
X0153714Y0010062D01*
X0153714Y0009670D02*
X0153134Y0009670D01*
X0153134Y0009277D02*
X0153714Y0009277D01*
X0153714Y0008885D02*
X0153134Y0008885D01*
X0153134Y0008493D02*
X0153714Y0008493D01*
X0153586Y0008101D02*
X0153268Y0008101D01*
X0153128Y0011238D02*
X0153714Y0011238D01*
X0153714Y0011631D02*
X0153130Y0011631D01*
X0153133Y0012023D02*
X0153714Y0012023D01*
X0153714Y0012415D02*
X0153134Y0012415D01*
X0153134Y0012807D02*
X0153714Y0012807D01*
X0153714Y0013199D02*
X0152409Y0013199D01*
X0152022Y0012807D02*
X0152807Y0012807D01*
X0152372Y0012415D02*
X0151634Y0012415D01*
X0152796Y0013592D02*
X0153714Y0013592D01*
X0153714Y0013984D02*
X0153056Y0013984D01*
X0153107Y0014376D02*
X0153714Y0014376D01*
X0153714Y0014768D02*
X0153134Y0014768D01*
X0153134Y0015161D02*
X0153714Y0015161D01*
X0153714Y0015553D02*
X0153134Y0015553D01*
X0153134Y0015945D02*
X0153714Y0015945D01*
X0153714Y0016337D02*
X0153134Y0016337D01*
X0153134Y0016729D02*
X0153714Y0016729D01*
X0153748Y0017122D02*
X0153134Y0017122D01*
X0153134Y0017514D02*
X0153866Y0017514D01*
X0153255Y0017906D02*
X0166402Y0017906D01*
X0166486Y0017514D02*
X0165743Y0017514D01*
X0165872Y0017122D02*
X0166486Y0017122D01*
X0166486Y0016729D02*
X0165905Y0016729D01*
X0165905Y0016337D02*
X0166486Y0016337D01*
X0166486Y0015945D02*
X0165905Y0015945D01*
X0165905Y0015553D02*
X0166486Y0015553D01*
X0166486Y0015161D02*
X0165905Y0015161D01*
X0165905Y0014768D02*
X0166486Y0014768D01*
X0166507Y0014376D02*
X0165905Y0014376D01*
X0165905Y0013984D02*
X0166534Y0013984D01*
X0166854Y0013592D02*
X0165905Y0013592D01*
X0165905Y0013199D02*
X0167232Y0013199D01*
X0166855Y0012807D02*
X0167610Y0012807D01*
X0167966Y0012415D02*
X0167239Y0012415D01*
X0167608Y0012023D02*
X0168177Y0012023D01*
X0168214Y0011631D02*
X0167456Y0011631D01*
X0167437Y0011238D02*
X0167194Y0011238D01*
X0167553Y0011238D02*
X0167923Y0011238D01*
X0167550Y0010846D02*
X0165905Y0010846D01*
X0165905Y0010454D02*
X0167158Y0010454D01*
X0166766Y0010062D02*
X0165905Y0010062D01*
X0165905Y0009670D02*
X0166550Y0009670D01*
X0166504Y0009277D02*
X0165905Y0009277D01*
X0165905Y0008885D02*
X0166485Y0008885D01*
X0166485Y0008493D02*
X0165905Y0008493D01*
X0165958Y0008101D02*
X0166405Y0008101D01*
X0166485Y0011238D02*
X0165905Y0011238D01*
X0165905Y0011631D02*
X0166485Y0011631D01*
X0166485Y0012023D02*
X0165905Y0012023D01*
X0165905Y0012415D02*
X0166485Y0012415D01*
X0166501Y0012807D02*
X0165905Y0012807D01*
X0163621Y0013088D02*
X0162840Y0013138D01*
X0162145Y0013284D01*
X0162565Y0013948D01*
X0163050Y0014568D01*
X0163460Y0015238D01*
X0163582Y0016010D01*
X0163272Y0016698D01*
X0162560Y0016949D01*
X0161880Y0016599D01*
X0161602Y0015871D01*
X0162088Y0015804D01*
X0162383Y0016490D01*
X0163038Y0016238D01*
X0163059Y0015463D01*
X0162655Y0014792D01*
X0162175Y0014168D01*
X0161742Y0013510D01*
X0161682Y0012722D01*
X0163258Y0012722D01*
X0163621Y0013088D01*
X0163342Y0012807D02*
X0161689Y0012807D01*
X0161718Y0013199D02*
X0162546Y0013199D01*
X0162340Y0013592D02*
X0161795Y0013592D01*
X0162054Y0013984D02*
X0162593Y0013984D01*
X0162335Y0014376D02*
X0162900Y0014376D01*
X0162637Y0014768D02*
X0163172Y0014768D01*
X0163413Y0015161D02*
X0162877Y0015161D01*
X0163057Y0015553D02*
X0163510Y0015553D01*
X0163572Y0015945D02*
X0163046Y0015945D01*
X0162780Y0016337D02*
X0163434Y0016337D01*
X0163183Y0016729D02*
X0162133Y0016729D01*
X0162317Y0016337D02*
X0161780Y0016337D01*
X0161630Y0015945D02*
X0162148Y0015945D01*
X0161029Y0015945D02*
X0160605Y0015945D01*
X0160642Y0016337D02*
X0161075Y0016337D01*
X0161108Y0016616D02*
X0160699Y0016950D01*
X0160553Y0015381D01*
X0160453Y0014601D01*
X0160280Y0015176D01*
X0160102Y0016741D01*
X0159584Y0016796D01*
X0159462Y0016018D01*
X0159371Y0015236D01*
X0159268Y0014455D01*
X0159152Y0014973D01*
X0159075Y0015757D01*
X0158987Y0016540D01*
X0158549Y0016855D01*
X0158602Y0016070D01*
X0158969Y0012941D01*
X0159459Y0013117D01*
X0159565Y0013897D01*
X0159659Y0014679D01*
X0159769Y0015459D01*
X0159931Y0015212D01*
X0160127Y0013649D01*
X0160289Y0012882D01*
X0160535Y0012775D01*
X0160733Y0013488D01*
X0160834Y0014269D01*
X0161108Y0016616D01*
X0160969Y0016729D02*
X0160678Y0016729D01*
X0160103Y0016729D02*
X0159573Y0016729D01*
X0159512Y0016337D02*
X0160148Y0016337D01*
X0160193Y0015945D02*
X0159454Y0015945D01*
X0159408Y0015553D02*
X0160237Y0015553D01*
X0160569Y0015553D02*
X0160984Y0015553D01*
X0160938Y0015161D02*
X0160524Y0015161D01*
X0160285Y0015161D02*
X0159938Y0015161D01*
X0159727Y0015161D02*
X0159361Y0015161D01*
X0159134Y0015161D02*
X0158709Y0015161D01*
X0158663Y0015553D02*
X0159095Y0015553D01*
X0159054Y0015945D02*
X0158617Y0015945D01*
X0158584Y0016337D02*
X0159010Y0016337D01*
X0158724Y0016729D02*
X0158557Y0016729D01*
X0157970Y0016473D02*
X0157377Y0016946D01*
X0156618Y0016802D01*
X0156114Y0016220D01*
X0156175Y0015462D01*
X0156722Y0014901D01*
X0157350Y0014427D01*
X0157691Y0013771D01*
X0157207Y0013231D01*
X0156524Y0013513D01*
X0156147Y0014048D01*
X0156036Y0013402D01*
X0156742Y0012839D01*
X0157523Y0012867D01*
X0158092Y0013370D01*
X0158176Y0014143D01*
X0157708Y0014749D01*
X0157071Y0015213D01*
X0156556Y0015785D01*
X0156839Y0016463D01*
X0157521Y0016274D01*
X0157963Y0015795D01*
X0157970Y0016473D01*
X0157969Y0016337D02*
X0157293Y0016337D01*
X0156786Y0016337D02*
X0156216Y0016337D01*
X0156137Y0015945D02*
X0156623Y0015945D01*
X0156765Y0015553D02*
X0156168Y0015553D01*
X0156469Y0015161D02*
X0157143Y0015161D01*
X0156897Y0014768D02*
X0157681Y0014768D01*
X0157376Y0014376D02*
X0157996Y0014376D01*
X0158159Y0013984D02*
X0157580Y0013984D01*
X0157531Y0013592D02*
X0158116Y0013592D01*
X0157899Y0013199D02*
X0156290Y0013199D01*
X0156468Y0013592D02*
X0156069Y0013592D01*
X0156136Y0013984D02*
X0156193Y0013984D01*
X0158801Y0014376D02*
X0159623Y0014376D01*
X0159576Y0013984D02*
X0158847Y0013984D01*
X0158893Y0013592D02*
X0159524Y0013592D01*
X0159470Y0013199D02*
X0158939Y0013199D01*
X0160139Y0013592D02*
X0160746Y0013592D01*
X0160797Y0013984D02*
X0160085Y0013984D01*
X0160036Y0014376D02*
X0160847Y0014376D01*
X0160892Y0014768D02*
X0160474Y0014768D01*
X0160402Y0014768D02*
X0159987Y0014768D01*
X0159672Y0014768D02*
X0159310Y0014768D01*
X0159198Y0014768D02*
X0158755Y0014768D01*
X0157965Y0015945D02*
X0157824Y0015945D01*
X0157648Y0016729D02*
X0156555Y0016729D01*
X0160222Y0013199D02*
X0160653Y0013199D01*
X0160544Y0012807D02*
X0160461Y0012807D01*
X0215745Y0027711D02*
X0216326Y0027711D01*
X0216326Y0028104D02*
X0215745Y0028104D01*
X0215745Y0028496D02*
X0216326Y0028496D01*
X0216326Y0028888D02*
X0215745Y0028888D01*
X0215745Y0029280D02*
X0216326Y0029280D01*
X0216326Y0029672D02*
X0215745Y0029672D01*
X0215745Y0030065D02*
X0216326Y0030065D01*
X0216326Y0030457D02*
X0215745Y0030457D01*
X0215745Y0030849D02*
X0216326Y0030849D01*
X0216326Y0031241D02*
X0215745Y0031241D01*
X0215745Y0031633D02*
X0216326Y0031633D01*
X0216326Y0032026D02*
X0215745Y0032026D01*
X0215745Y0032418D02*
X0216326Y0032418D01*
X0216326Y0032810D02*
X0215745Y0032810D01*
X0215745Y0033202D02*
X0216326Y0033202D01*
X0216326Y0033595D02*
X0215745Y0033595D01*
X0215745Y0033987D02*
X0216326Y0033987D01*
X0216326Y0034379D02*
X0215745Y0034379D01*
X0215745Y0034771D02*
X0216326Y0034771D01*
X0216326Y0035163D02*
X0215745Y0035163D01*
X0215745Y0035556D02*
X0216326Y0035556D01*
X0216326Y0035948D02*
X0215745Y0035948D01*
X0215745Y0036340D02*
X0216326Y0036340D01*
X0216326Y0036732D02*
X0215745Y0036732D01*
X0215745Y0037124D02*
X0216326Y0037124D01*
X0216326Y0037517D02*
X0215745Y0037517D01*
X0215745Y0037909D02*
X0216326Y0037909D01*
X0216326Y0038301D02*
X0215745Y0038301D01*
X0215745Y0038693D02*
X0216326Y0038693D01*
X0216326Y0039085D02*
X0215745Y0039085D01*
X0215745Y0039478D02*
X0216326Y0039478D01*
X0216326Y0039870D02*
X0215745Y0039870D01*
X0215745Y0040262D02*
X0216326Y0040262D01*
X0216326Y0040654D02*
X0215745Y0040654D01*
X0215745Y0041047D02*
X0216326Y0041047D01*
X0216326Y0041439D02*
X0215745Y0041439D01*
X0215745Y0041831D02*
X0216326Y0041831D01*
X0216326Y0042223D02*
X0215745Y0042223D01*
X0215745Y0042615D02*
X0216326Y0042615D01*
X0216326Y0043008D02*
X0215745Y0043008D01*
X0215745Y0043400D02*
X0216326Y0043400D01*
X0216326Y0043792D02*
X0215745Y0043792D01*
X0215745Y0044184D02*
X0216326Y0044184D01*
X0216326Y0044576D02*
X0215745Y0044576D01*
X0215745Y0044969D02*
X0216326Y0044969D01*
X0216326Y0045361D02*
X0215745Y0045361D01*
X0215745Y0045753D02*
X0216326Y0045753D01*
X0216326Y0046145D02*
X0215745Y0046145D01*
X0215745Y0046538D02*
X0216326Y0046538D01*
X0216326Y0046930D02*
X0215745Y0046930D01*
X0215745Y0047322D02*
X0216326Y0047322D01*
X0216326Y0047714D02*
X0215745Y0047714D01*
X0215745Y0048106D02*
X0216326Y0048106D01*
X0216326Y0048499D02*
X0215745Y0048499D01*
X0215745Y0048891D02*
X0216326Y0048891D01*
X0216326Y0049283D02*
X0215745Y0049283D01*
X0215745Y0049675D02*
X0216326Y0049675D01*
X0216326Y0050067D02*
X0215745Y0050067D01*
X0215745Y0050460D02*
X0216326Y0050460D01*
X0216326Y0050852D02*
X0215745Y0050852D01*
X0215745Y0051244D02*
X0216326Y0051244D01*
X0216326Y0051636D02*
X0215745Y0051636D01*
X0215745Y0052028D02*
X0216326Y0052028D01*
X0216326Y0052421D02*
X0215745Y0052421D01*
X0215745Y0052813D02*
X0216326Y0052813D01*
X0216326Y0053205D02*
X0215745Y0053205D01*
X0215745Y0053597D02*
X0216326Y0053597D01*
X0216326Y0053990D02*
X0215612Y0053990D01*
X0216293Y0054382D02*
X0181643Y0054382D01*
X0181549Y0054382D02*
X0180679Y0054382D01*
X0181583Y0054774D02*
X0216079Y0054774D01*
X0207619Y0055166D02*
X0207039Y0055166D01*
X0207039Y0055558D02*
X0207619Y0055558D01*
X0207619Y0055951D02*
X0207039Y0055951D01*
X0207039Y0056343D02*
X0207619Y0056343D01*
X0207619Y0056735D02*
X0207039Y0056735D01*
X0207039Y0057127D02*
X0207619Y0057127D01*
X0207619Y0057519D02*
X0207039Y0057519D01*
X0207039Y0057912D02*
X0207619Y0057912D01*
X0207619Y0058304D02*
X0207039Y0058304D01*
X0207039Y0058696D02*
X0207619Y0058696D01*
X0207619Y0059088D02*
X0207039Y0059088D01*
X0207039Y0059481D02*
X0207619Y0059481D01*
X0207782Y0059803D02*
X0208227Y0059515D01*
X0208247Y0060293D01*
X0208270Y0062655D01*
X0208257Y0063443D01*
X0207814Y0063401D01*
X0207132Y0063051D01*
X0207784Y0062862D01*
X0207784Y0061287D01*
X0207783Y0060591D01*
X0207782Y0059803D01*
X0207783Y0059873D02*
X0208236Y0059873D01*
X0208246Y0060265D02*
X0207783Y0060265D01*
X0207619Y0060265D02*
X0207039Y0060265D01*
X0207039Y0060657D02*
X0207619Y0060657D01*
X0207783Y0060657D02*
X0208250Y0060657D01*
X0208254Y0061049D02*
X0207784Y0061049D01*
X0207619Y0061049D02*
X0207039Y0061049D01*
X0207039Y0061442D02*
X0207619Y0061442D01*
X0207784Y0061442D02*
X0208258Y0061442D01*
X0208262Y0061834D02*
X0207784Y0061834D01*
X0207619Y0061834D02*
X0207039Y0061834D01*
X0207039Y0062226D02*
X0207619Y0062226D01*
X0207784Y0062226D02*
X0208266Y0062226D01*
X0208270Y0062618D02*
X0207784Y0062618D01*
X0207619Y0062618D02*
X0207039Y0062618D01*
X0207039Y0063010D02*
X0207619Y0063010D01*
X0207271Y0063010D02*
X0208264Y0063010D01*
X0208258Y0063403D02*
X0207832Y0063403D01*
X0207619Y0063403D02*
X0207039Y0063403D01*
X0207124Y0063795D02*
X0207550Y0063795D01*
X0206039Y0063071D02*
X0205445Y0063565D01*
X0204674Y0063704D01*
X0204052Y0063539D01*
X0204052Y0061963D01*
X0204052Y0061382D01*
X0204052Y0059806D01*
X0204463Y0059540D01*
X0204660Y0059942D01*
X0204550Y0060537D01*
X0204550Y0062900D01*
X0204947Y0063280D01*
X0205573Y0062840D01*
X0205771Y0062089D01*
X0205769Y0061302D01*
X0205642Y0060527D01*
X0204710Y0059920D01*
X0204553Y0059520D01*
X0205283Y0059627D01*
X0205938Y0060037D01*
X0206241Y0060757D01*
X0206325Y0061539D01*
X0206272Y0062323D01*
X0206039Y0063071D01*
X0206058Y0063010D02*
X0205331Y0063010D01*
X0205632Y0062618D02*
X0206180Y0062618D01*
X0206279Y0062226D02*
X0205735Y0062226D01*
X0205771Y0061834D02*
X0206305Y0061834D01*
X0206315Y0061442D02*
X0205770Y0061442D01*
X0205728Y0061049D02*
X0206272Y0061049D01*
X0206199Y0060657D02*
X0205663Y0060657D01*
X0206034Y0060265D02*
X0205240Y0060265D01*
X0205675Y0059873D02*
X0204692Y0059873D01*
X0204626Y0059873D02*
X0204052Y0059873D01*
X0204052Y0060265D02*
X0204600Y0060265D01*
X0204550Y0060657D02*
X0204052Y0060657D01*
X0204052Y0061049D02*
X0204550Y0061049D01*
X0204550Y0061442D02*
X0204052Y0061442D01*
X0204052Y0061834D02*
X0204550Y0061834D01*
X0204550Y0062226D02*
X0204052Y0062226D01*
X0204052Y0062618D02*
X0204550Y0062618D01*
X0204665Y0063010D02*
X0204052Y0063010D01*
X0204052Y0063403D02*
X0205640Y0063403D01*
X0209947Y0063106D02*
X0210436Y0062875D01*
X0210520Y0062172D01*
X0210520Y0061384D01*
X0210520Y0060640D01*
X0210520Y0059853D01*
X0210930Y0059475D01*
X0211018Y0060174D01*
X0211012Y0062537D01*
X0210989Y0063324D01*
X0210617Y0063466D01*
X0209947Y0063106D01*
X0210149Y0063010D02*
X0210999Y0063010D01*
X0211010Y0062618D02*
X0210467Y0062618D01*
X0210514Y0062226D02*
X0211013Y0062226D01*
X0211014Y0061834D02*
X0210520Y0061834D01*
X0210520Y0061442D02*
X0211015Y0061442D01*
X0211016Y0061049D02*
X0210520Y0061049D01*
X0210520Y0060657D02*
X0211017Y0060657D01*
X0211018Y0060265D02*
X0210520Y0060265D01*
X0210520Y0059873D02*
X0210980Y0059873D01*
X0210930Y0059481D02*
X0210923Y0059481D01*
X0207619Y0059873D02*
X0207039Y0059873D01*
X0194751Y0061004D02*
X0194646Y0060228D01*
X0194142Y0059647D01*
X0193381Y0059610D01*
X0194219Y0060426D01*
X0194238Y0061211D01*
X0193835Y0061830D01*
X0193233Y0061433D01*
X0193195Y0060651D01*
X0193522Y0059961D01*
X0192885Y0060099D01*
X0192676Y0060852D01*
X0192649Y0061639D01*
X0192701Y0062423D01*
X0193017Y0063142D01*
X0193581Y0063666D01*
X0194337Y0063567D01*
X0194667Y0062884D01*
X0194134Y0063117D01*
X0193489Y0063056D01*
X0193189Y0062332D01*
X0193245Y0061900D01*
X0193933Y0062217D01*
X0194536Y0061754D01*
X0194751Y0061004D01*
X0194738Y0061049D02*
X0194234Y0061049D01*
X0194224Y0060657D02*
X0194704Y0060657D01*
X0194651Y0060265D02*
X0194054Y0060265D01*
X0194338Y0059873D02*
X0193651Y0059873D01*
X0193378Y0060265D02*
X0192839Y0060265D01*
X0192730Y0060657D02*
X0193195Y0060657D01*
X0193214Y0061049D02*
X0192670Y0061049D01*
X0192656Y0061442D02*
X0193247Y0061442D01*
X0192662Y0061834D02*
X0194432Y0061834D01*
X0194626Y0061442D02*
X0194087Y0061442D01*
X0193203Y0062226D02*
X0192688Y0062226D01*
X0192786Y0062618D02*
X0193307Y0062618D01*
X0193470Y0063010D02*
X0192959Y0063010D01*
X0193297Y0063403D02*
X0194416Y0063403D01*
X0194378Y0063010D02*
X0194606Y0063010D01*
X0191926Y0062618D02*
X0191351Y0062618D01*
X0191485Y0062344D02*
X0191146Y0063038D01*
X0190427Y0063289D01*
X0190286Y0062643D01*
X0190286Y0060280D01*
X0190621Y0059975D01*
X0190719Y0059568D01*
X0189985Y0059491D01*
X0189788Y0060063D01*
X0189788Y0060851D01*
X0189788Y0062220D01*
X0189788Y0063008D01*
X0189879Y0063704D01*
X0190666Y0063688D01*
X0191410Y0063449D01*
X0191880Y0062838D01*
X0192041Y0062069D01*
X0192050Y0061282D01*
X0191912Y0060508D01*
X0191494Y0059855D01*
X0190814Y0059591D01*
X0190704Y0059957D01*
X0191093Y0060090D01*
X0191442Y0060775D01*
X0191517Y0061558D01*
X0191485Y0062344D01*
X0191490Y0062226D02*
X0192008Y0062226D01*
X0192044Y0061834D02*
X0191506Y0061834D01*
X0191506Y0061442D02*
X0192048Y0061442D01*
X0192008Y0061049D02*
X0191468Y0061049D01*
X0191382Y0060657D02*
X0191939Y0060657D01*
X0191757Y0060265D02*
X0191182Y0060265D01*
X0191506Y0059873D02*
X0190729Y0059873D01*
X0190646Y0059873D02*
X0189854Y0059873D01*
X0189955Y0059873D02*
X0189375Y0059873D01*
X0189375Y0060265D02*
X0189955Y0060265D01*
X0189788Y0060265D02*
X0190302Y0060265D01*
X0190286Y0060657D02*
X0189788Y0060657D01*
X0189955Y0060657D02*
X0189375Y0060657D01*
X0189375Y0061049D02*
X0189955Y0061049D01*
X0189788Y0061049D02*
X0190286Y0061049D01*
X0190286Y0061442D02*
X0189788Y0061442D01*
X0189955Y0061442D02*
X0189375Y0061442D01*
X0189375Y0061834D02*
X0189955Y0061834D01*
X0189788Y0061834D02*
X0190286Y0061834D01*
X0190286Y0062226D02*
X0189788Y0062226D01*
X0189955Y0062226D02*
X0189375Y0062226D01*
X0189375Y0062618D02*
X0189955Y0062618D01*
X0189788Y0062618D02*
X0190286Y0062618D01*
X0190366Y0063010D02*
X0189789Y0063010D01*
X0189955Y0063010D02*
X0189375Y0063010D01*
X0189375Y0063403D02*
X0189955Y0063403D01*
X0189840Y0063403D02*
X0191445Y0063403D01*
X0191160Y0063010D02*
X0191747Y0063010D01*
X0189878Y0063795D02*
X0189464Y0063795D01*
X0182026Y0065884D02*
X0176204Y0065884D01*
X0170226Y0063289D02*
X0169583Y0063700D01*
X0168838Y0063509D01*
X0168452Y0062840D01*
X0168781Y0062386D01*
X0169018Y0063096D01*
X0169712Y0063171D01*
X0169899Y0062434D01*
X0169589Y0061723D01*
X0169108Y0061099D01*
X0168657Y0060453D01*
X0168317Y0059747D01*
X0168310Y0059524D01*
X0169048Y0059475D01*
X0169835Y0059475D01*
X0170466Y0059632D01*
X0169863Y0059889D01*
X0169077Y0059922D01*
X0169234Y0060520D01*
X0169713Y0061145D01*
X0170164Y0061789D01*
X0170379Y0062539D01*
X0170226Y0063289D01*
X0170048Y0063403D02*
X0168777Y0063403D01*
X0168558Y0063403D02*
X0167978Y0063403D01*
X0167978Y0063795D02*
X0168508Y0063795D01*
X0168430Y0064187D02*
X0168407Y0064187D01*
X0166941Y0063584D02*
X0166407Y0063309D01*
X0165860Y0062923D01*
X0166485Y0062720D01*
X0166485Y0061932D01*
X0166485Y0060448D01*
X0166484Y0059661D01*
X0166941Y0059647D01*
X0166973Y0062798D01*
X0166941Y0063584D01*
X0166948Y0063403D02*
X0166589Y0063403D01*
X0166964Y0063010D02*
X0165984Y0063010D01*
X0166485Y0062618D02*
X0166971Y0062618D01*
X0166967Y0062226D02*
X0166485Y0062226D01*
X0166485Y0061834D02*
X0166963Y0061834D01*
X0166959Y0061442D02*
X0166485Y0061442D01*
X0166485Y0061049D02*
X0166955Y0061049D01*
X0166951Y0060657D02*
X0166485Y0060657D01*
X0166484Y0060265D02*
X0166947Y0060265D01*
X0166943Y0059873D02*
X0166484Y0059873D01*
X0167978Y0059873D02*
X0168558Y0059873D01*
X0168377Y0059873D02*
X0169901Y0059873D01*
X0169859Y0059481D02*
X0168960Y0059481D01*
X0168558Y0059481D02*
X0167978Y0059481D01*
X0167978Y0059088D02*
X0168558Y0059088D01*
X0168558Y0058696D02*
X0167978Y0058696D01*
X0167978Y0058304D02*
X0168558Y0058304D01*
X0168558Y0057912D02*
X0167978Y0057912D01*
X0167978Y0057519D02*
X0168558Y0057519D01*
X0168558Y0057127D02*
X0167978Y0057127D01*
X0167978Y0056735D02*
X0168558Y0056735D01*
X0168558Y0056343D02*
X0167978Y0056343D01*
X0167978Y0055951D02*
X0168558Y0055951D01*
X0168563Y0055558D02*
X0167978Y0055558D01*
X0167917Y0055166D02*
X0168578Y0055166D01*
X0150924Y0055166D02*
X0150233Y0055166D01*
X0150314Y0055558D02*
X0150900Y0055558D01*
X0150894Y0055951D02*
X0150314Y0055951D01*
X0150314Y0056343D02*
X0150894Y0056343D01*
X0150894Y0056735D02*
X0150314Y0056735D01*
X0150314Y0057127D02*
X0150894Y0057127D01*
X0150894Y0057519D02*
X0150314Y0057519D01*
X0150314Y0057912D02*
X0150894Y0057912D01*
X0150894Y0058304D02*
X0150314Y0058304D01*
X0150314Y0058696D02*
X0150894Y0058696D01*
X0150894Y0059088D02*
X0150314Y0059088D01*
X0150314Y0059481D02*
X0150894Y0059481D01*
X0150894Y0059873D02*
X0150314Y0059873D01*
X0150314Y0060265D02*
X0150894Y0060265D01*
X0150894Y0060657D02*
X0150314Y0060657D01*
X0150314Y0061049D02*
X0150894Y0061049D01*
X0150894Y0061442D02*
X0150314Y0061442D01*
X0150314Y0061834D02*
X0150894Y0061834D01*
X0150894Y0062226D02*
X0150314Y0062226D01*
X0150314Y0062618D02*
X0150894Y0062618D01*
X0150894Y0063010D02*
X0150314Y0063010D01*
X0150314Y0063403D02*
X0150894Y0063403D01*
X0150849Y0063795D02*
X0150314Y0063795D01*
X0150756Y0064187D02*
X0150781Y0064187D01*
X0153213Y0063787D02*
X0153134Y0063079D01*
X0153134Y0062291D01*
X0153134Y0060922D01*
X0153133Y0060134D01*
X0153342Y0059575D01*
X0154076Y0059652D01*
X0153956Y0060057D01*
X0153631Y0060375D01*
X0153631Y0062737D01*
X0153784Y0063372D01*
X0154500Y0063112D01*
X0154831Y0062416D01*
X0154862Y0061629D01*
X0154785Y0060847D01*
X0154428Y0060167D01*
X0154038Y0060038D01*
X0154171Y0059676D01*
X0154849Y0059946D01*
X0155261Y0060603D01*
X0155396Y0061377D01*
X0155385Y0062163D01*
X0155222Y0062932D01*
X0154745Y0063538D01*
X0154000Y0063772D01*
X0153213Y0063787D01*
X0153170Y0063403D02*
X0154852Y0063403D01*
X0154548Y0063010D02*
X0155160Y0063010D01*
X0155288Y0062618D02*
X0154735Y0062618D01*
X0154839Y0062226D02*
X0155372Y0062226D01*
X0155390Y0061834D02*
X0154854Y0061834D01*
X0154844Y0061442D02*
X0155395Y0061442D01*
X0155339Y0061049D02*
X0154805Y0061049D01*
X0154685Y0060657D02*
X0155271Y0060657D01*
X0155049Y0060265D02*
X0154480Y0060265D01*
X0154666Y0059873D02*
X0154099Y0059873D01*
X0154011Y0059873D02*
X0153231Y0059873D01*
X0153133Y0060265D02*
X0153743Y0060265D01*
X0153631Y0060657D02*
X0153134Y0060657D01*
X0153134Y0061049D02*
X0153631Y0061049D01*
X0153631Y0061442D02*
X0153134Y0061442D01*
X0153134Y0061834D02*
X0153631Y0061834D01*
X0153631Y0062226D02*
X0153134Y0062226D01*
X0153134Y0062618D02*
X0153631Y0062618D01*
X0153697Y0063010D02*
X0153134Y0063010D01*
X0156098Y0063010D02*
X0156615Y0063010D01*
X0156533Y0062847D02*
X0156796Y0063372D01*
X0157583Y0063373D01*
X0158023Y0063787D01*
X0156448Y0063787D01*
X0156115Y0063329D01*
X0156035Y0061756D01*
X0156537Y0061638D01*
X0157213Y0061928D01*
X0157582Y0061266D01*
X0157484Y0060494D01*
X0156923Y0060019D01*
X0156427Y0060553D01*
X0155876Y0060664D01*
X0156196Y0059954D01*
X0156730Y0059655D01*
X0157493Y0059767D01*
X0157967Y0060380D01*
X0158087Y0061152D01*
X0157851Y0061893D01*
X0157210Y0062299D01*
X0156466Y0062071D01*
X0156533Y0062847D01*
X0156514Y0062618D02*
X0156078Y0062618D01*
X0156059Y0062226D02*
X0156480Y0062226D01*
X0156973Y0062226D02*
X0157325Y0062226D01*
X0157265Y0061834D02*
X0157870Y0061834D01*
X0157995Y0061442D02*
X0157484Y0061442D01*
X0157554Y0061049D02*
X0158071Y0061049D01*
X0158010Y0060657D02*
X0157505Y0060657D01*
X0157214Y0060265D02*
X0157878Y0060265D01*
X0157575Y0059873D02*
X0156341Y0059873D01*
X0156056Y0060265D02*
X0156695Y0060265D01*
X0155910Y0060657D02*
X0155879Y0060657D01*
X0156039Y0061834D02*
X0156993Y0061834D01*
X0162753Y0061834D02*
X0163251Y0061834D01*
X0163251Y0062226D02*
X0162753Y0062226D01*
X0162753Y0062618D02*
X0163251Y0062618D01*
X0163251Y0063010D02*
X0162753Y0063010D01*
X0162753Y0063396D02*
X0162753Y0061821D01*
X0162753Y0061239D01*
X0162753Y0059664D01*
X0163300Y0059536D01*
X0163251Y0059941D01*
X0163251Y0063042D01*
X0163786Y0063244D01*
X0164345Y0062716D01*
X0164480Y0061947D01*
X0164460Y0061160D01*
X0164293Y0060394D01*
X0163994Y0060054D01*
X0163299Y0059902D01*
X0163397Y0059534D01*
X0164120Y0059670D01*
X0164722Y0060154D01*
X0164969Y0060897D01*
X0165027Y0061681D01*
X0164949Y0062464D01*
X0164661Y0063190D01*
X0164012Y0063612D01*
X0163233Y0063704D01*
X0162753Y0063396D01*
X0162764Y0063403D02*
X0164334Y0063403D01*
X0164033Y0063010D02*
X0164732Y0063010D01*
X0164887Y0062618D02*
X0164362Y0062618D01*
X0164431Y0062226D02*
X0164972Y0062226D01*
X0165011Y0061834D02*
X0164477Y0061834D01*
X0164467Y0061442D02*
X0165009Y0061442D01*
X0164980Y0061049D02*
X0164436Y0061049D01*
X0164350Y0060657D02*
X0164889Y0060657D01*
X0164759Y0060265D02*
X0164179Y0060265D01*
X0164372Y0059873D02*
X0163307Y0059873D01*
X0163259Y0059873D02*
X0162753Y0059873D01*
X0162753Y0060265D02*
X0163251Y0060265D01*
X0163251Y0060657D02*
X0162753Y0060657D01*
X0162753Y0061049D02*
X0163251Y0061049D01*
X0163251Y0061442D02*
X0162753Y0061442D01*
X0167978Y0061442D02*
X0168558Y0061442D01*
X0168558Y0061834D02*
X0167978Y0061834D01*
X0167978Y0062226D02*
X0168558Y0062226D01*
X0168558Y0062618D02*
X0167978Y0062618D01*
X0167978Y0063010D02*
X0168558Y0063010D01*
X0168550Y0063010D02*
X0168989Y0063010D01*
X0168858Y0062618D02*
X0168613Y0062618D01*
X0169752Y0063010D02*
X0170283Y0063010D01*
X0170363Y0062618D02*
X0169852Y0062618D01*
X0169808Y0062226D02*
X0170289Y0062226D01*
X0170177Y0061834D02*
X0169637Y0061834D01*
X0169372Y0061442D02*
X0169920Y0061442D01*
X0169640Y0061049D02*
X0169074Y0061049D01*
X0169339Y0060657D02*
X0168800Y0060657D01*
X0168558Y0060657D02*
X0167978Y0060657D01*
X0167978Y0060265D02*
X0168558Y0060265D01*
X0168566Y0060265D02*
X0169167Y0060265D01*
X0168558Y0061049D02*
X0167978Y0061049D01*
X0157614Y0063403D02*
X0156168Y0063403D01*
X0142911Y0065941D02*
X0137047Y0065941D01*
X0137041Y0063660D02*
X0136590Y0063033D01*
X0136962Y0062718D01*
X0137378Y0063365D01*
X0137978Y0063052D01*
X0137971Y0062280D01*
X0137381Y0061813D01*
X0137915Y0061385D01*
X0138105Y0060645D01*
X0137639Y0060062D01*
X0136995Y0060380D01*
X0136597Y0060880D01*
X0136574Y0060181D01*
X0137521Y0059638D01*
X0138246Y0059893D01*
X0138598Y0060585D01*
X0138463Y0061341D01*
X0138080Y0061871D01*
X0138494Y0062527D01*
X0138405Y0063293D01*
X0137808Y0063766D01*
X0137041Y0063660D01*
X0136856Y0063403D02*
X0138267Y0063403D01*
X0138438Y0063010D02*
X0137978Y0063010D01*
X0137974Y0062618D02*
X0138483Y0062618D01*
X0138304Y0062226D02*
X0137903Y0062226D01*
X0138107Y0061834D02*
X0137408Y0061834D01*
X0137845Y0061442D02*
X0138390Y0061442D01*
X0138515Y0061049D02*
X0138001Y0061049D01*
X0138102Y0060657D02*
X0138585Y0060657D01*
X0138435Y0060265D02*
X0137801Y0060265D01*
X0138188Y0059873D02*
X0137111Y0059873D01*
X0137228Y0060265D02*
X0136576Y0060265D01*
X0136590Y0060657D02*
X0136774Y0060657D01*
X0135106Y0060657D02*
X0134640Y0060657D01*
X0134640Y0060296D02*
X0134640Y0061084D01*
X0134640Y0061780D01*
X0134640Y0062568D01*
X0134243Y0062959D01*
X0134360Y0063274D01*
X0134934Y0063781D01*
X0135127Y0063116D01*
X0135125Y0062328D01*
X0135099Y0059965D01*
X0134676Y0059551D01*
X0134640Y0060296D01*
X0134641Y0060265D02*
X0135102Y0060265D01*
X0135004Y0059873D02*
X0134660Y0059873D01*
X0134640Y0061049D02*
X0135111Y0061049D01*
X0135115Y0061442D02*
X0134640Y0061442D01*
X0134640Y0061834D02*
X0135119Y0061834D01*
X0135123Y0062226D02*
X0134640Y0062226D01*
X0134589Y0062618D02*
X0135125Y0062618D01*
X0135127Y0063010D02*
X0134262Y0063010D01*
X0134505Y0063403D02*
X0135044Y0063403D01*
X0136616Y0063010D02*
X0137150Y0063010D01*
X0133137Y0062226D02*
X0132607Y0062226D01*
X0132580Y0062578D02*
X0132639Y0061794D01*
X0132588Y0061009D01*
X0132343Y0060323D01*
X0132520Y0059890D01*
X0132982Y0060447D01*
X0133156Y0061213D01*
X0133174Y0061999D01*
X0133048Y0062775D01*
X0132654Y0063442D01*
X0131938Y0063749D01*
X0131153Y0063787D01*
X0130909Y0063244D01*
X0130909Y0062456D01*
X0130909Y0061087D01*
X0130909Y0060299D01*
X0130953Y0059560D01*
X0131737Y0059633D01*
X0132441Y0059838D01*
X0132283Y0060253D01*
X0131927Y0060061D01*
X0131406Y0060210D01*
X0131406Y0063360D01*
X0132148Y0063218D01*
X0132580Y0062578D01*
X0132553Y0062618D02*
X0133073Y0062618D01*
X0132909Y0063010D02*
X0132288Y0063010D01*
X0132677Y0063403D02*
X0130980Y0063403D01*
X0130909Y0063010D02*
X0131406Y0063010D01*
X0131406Y0062618D02*
X0130909Y0062618D01*
X0130909Y0062226D02*
X0131406Y0062226D01*
X0131406Y0061834D02*
X0130909Y0061834D01*
X0130909Y0061442D02*
X0131406Y0061442D01*
X0131406Y0061049D02*
X0130909Y0061049D01*
X0130909Y0060657D02*
X0131406Y0060657D01*
X0131406Y0060265D02*
X0130911Y0060265D01*
X0130934Y0059873D02*
X0132428Y0059873D01*
X0132366Y0060265D02*
X0132831Y0060265D01*
X0133030Y0060657D02*
X0132462Y0060657D01*
X0132591Y0061049D02*
X0133119Y0061049D01*
X0133161Y0061442D02*
X0132616Y0061442D01*
X0132636Y0061834D02*
X0133170Y0061834D01*
X0129416Y0061834D02*
X0128835Y0061834D01*
X0128835Y0062226D02*
X0129416Y0062226D01*
X0129416Y0062618D02*
X0128835Y0062618D01*
X0128835Y0063010D02*
X0129416Y0063010D01*
X0129416Y0063403D02*
X0128835Y0063403D01*
X0128835Y0063795D02*
X0129416Y0063795D01*
X0129416Y0061442D02*
X0128835Y0061442D01*
X0128835Y0061049D02*
X0129416Y0061049D01*
X0129416Y0060657D02*
X0128835Y0060657D01*
X0128835Y0060265D02*
X0129416Y0060265D01*
X0129416Y0059873D02*
X0128835Y0059873D01*
X0128835Y0059481D02*
X0129416Y0059481D01*
X0129416Y0059088D02*
X0128835Y0059088D01*
X0128835Y0058696D02*
X0129416Y0058696D01*
X0129416Y0058304D02*
X0128835Y0058304D01*
X0128835Y0057912D02*
X0129416Y0057912D01*
X0129416Y0057519D02*
X0128835Y0057519D01*
X0128835Y0057127D02*
X0129416Y0057127D01*
X0129416Y0056735D02*
X0128835Y0056735D01*
X0128835Y0056343D02*
X0129416Y0056343D01*
X0129416Y0055951D02*
X0128835Y0055951D01*
X0128835Y0055558D02*
X0129416Y0055558D01*
X0129540Y0055166D02*
X0128690Y0055166D01*
X0102964Y0054774D02*
X0102818Y0054774D01*
X0118125Y0063403D02*
X0118884Y0063403D01*
X0118884Y0063795D02*
X0118717Y0063795D01*
X0103855Y0065877D02*
X0097832Y0065877D01*
X0097832Y0065878D02*
X0097728Y0065887D01*
X0097624Y0065900D01*
X0097520Y0065916D01*
X0097417Y0065937D01*
X0097315Y0065961D01*
X0097214Y0065989D01*
X0097114Y0066021D01*
X0097015Y0066056D01*
X0096918Y0066095D01*
X0096822Y0066137D01*
X0096727Y0066183D01*
X0096635Y0066232D01*
X0096544Y0066285D01*
X0096455Y0066341D01*
X0096368Y0066400D01*
X0096284Y0066462D01*
X0096202Y0066527D01*
X0096122Y0066595D01*
X0096045Y0066667D01*
X0095970Y0066740D01*
X0095899Y0066817D01*
X0095830Y0066896D01*
X0095764Y0066978D01*
X0095701Y0067061D01*
X0095641Y0067148D01*
X0095584Y0067236D01*
X0095531Y0067326D01*
X0095481Y0067418D01*
X0095434Y0067512D01*
X0095391Y0067608D01*
X0095351Y0067705D01*
X0095315Y0067804D01*
X0095282Y0067903D01*
X0095254Y0068004D01*
X0095229Y0068106D01*
X0095207Y0068209D01*
X0095190Y0068312D01*
X0095176Y0068416D01*
X0095166Y0068521D01*
X0095159Y0068625D01*
X0095157Y0068730D01*
X0095158Y0068835D01*
X0095164Y0068940D01*
X0095163Y0068939D02*
X0067377Y0068978D01*
X0067377Y0068977D02*
X0067356Y0068860D01*
X0067330Y0068744D01*
X0067302Y0068628D01*
X0067269Y0068514D01*
X0067233Y0068400D01*
X0067193Y0068288D01*
X0067149Y0068177D01*
X0067102Y0068068D01*
X0067051Y0067961D01*
X0066996Y0067855D01*
X0066939Y0067750D01*
X0066877Y0067648D01*
X0066813Y0067548D01*
X0066745Y0067450D01*
X0066674Y0067354D01*
X0066600Y0067261D01*
X0066523Y0067170D01*
X0066443Y0067082D01*
X0066361Y0066996D01*
X0066275Y0066914D01*
X0066187Y0066834D01*
X0066096Y0066756D01*
X0066003Y0066682D01*
X0065907Y0066611D01*
X0065810Y0066544D01*
X0065710Y0066479D01*
X0065607Y0066418D01*
X0065503Y0066360D01*
X0065397Y0066305D01*
X0065290Y0066254D01*
X0065181Y0066207D01*
X0065070Y0066163D01*
X0064958Y0066123D01*
X0064844Y0066086D01*
X0064730Y0066054D01*
X0064614Y0066025D01*
X0064498Y0065999D01*
X0064381Y0065978D01*
X0064263Y0065960D01*
X0064145Y0065947D01*
X0064026Y0065937D01*
X0063907Y0065931D01*
X0063788Y0065929D01*
X0063669Y0065931D01*
X0063550Y0065937D01*
X0063432Y0065946D01*
X0063313Y0065960D01*
X0063195Y0065977D01*
X0053339Y0064971D02*
X0052476Y0064971D01*
X0034925Y0063795D02*
X0034199Y0063795D01*
X0034588Y0064187D02*
X0033800Y0064187D01*
X0034204Y0064579D02*
X0033366Y0064579D01*
X0032979Y0064971D02*
X0033785Y0064971D01*
X0033191Y0065364D02*
X0033016Y0065364D01*
X0019507Y0064971D02*
X0018713Y0064971D01*
X0019087Y0065364D02*
X0019361Y0065364D01*
X0014748Y0064228D02*
X0014177Y0063852D01*
X0013747Y0063476D01*
X0014311Y0063233D01*
X0014311Y0062446D01*
X0014311Y0061750D01*
X0014309Y0060175D01*
X0014767Y0060295D01*
X0014798Y0063445D01*
X0014748Y0064228D01*
X0014750Y0064187D02*
X0014685Y0064187D01*
X0014775Y0063795D02*
X0014112Y0063795D01*
X0013918Y0063403D02*
X0014797Y0063403D01*
X0014794Y0063010D02*
X0014311Y0063010D01*
X0014311Y0062618D02*
X0014790Y0062618D01*
X0014786Y0062226D02*
X0014311Y0062226D01*
X0014311Y0061834D02*
X0014782Y0061834D01*
X0014778Y0061442D02*
X0014310Y0061442D01*
X0014310Y0061049D02*
X0014775Y0061049D01*
X0014771Y0060657D02*
X0014310Y0060657D01*
X0014309Y0060265D02*
X0014654Y0060265D01*
X0012581Y0060793D02*
X0012801Y0061545D01*
X0012847Y0062330D01*
X0012758Y0063112D01*
X0012442Y0063824D01*
X0011770Y0064212D01*
X0010989Y0064285D01*
X0010579Y0063907D01*
X0010579Y0062332D01*
X0010579Y0061752D01*
X0010579Y0060177D01*
X0011241Y0060112D01*
X0011960Y0060265D01*
X0010579Y0060265D01*
X0010579Y0060657D02*
X0011076Y0060657D01*
X0011076Y0060539D02*
X0011076Y0063690D01*
X0011673Y0063799D01*
X0012197Y0063235D01*
X0012307Y0062460D01*
X0012279Y0061673D01*
X0012089Y0060914D01*
X0011793Y0060643D01*
X0012045Y0060308D01*
X0012581Y0060793D01*
X0012431Y0060657D02*
X0011809Y0060657D01*
X0011708Y0060604D02*
X0011076Y0060539D01*
X0011076Y0061049D02*
X0010579Y0061049D01*
X0010579Y0061442D02*
X0011076Y0061442D01*
X0011076Y0061834D02*
X0010579Y0061834D01*
X0010579Y0062226D02*
X0011076Y0062226D01*
X0011076Y0062618D02*
X0010579Y0062618D01*
X0010579Y0063010D02*
X0011076Y0063010D01*
X0011076Y0063403D02*
X0010579Y0063403D01*
X0010579Y0063795D02*
X0011651Y0063795D01*
X0011677Y0063795D02*
X0012455Y0063795D01*
X0012629Y0063403D02*
X0012042Y0063403D01*
X0012229Y0063010D02*
X0012770Y0063010D01*
X0012814Y0062618D02*
X0012285Y0062618D01*
X0012299Y0062226D02*
X0012841Y0062226D01*
X0012818Y0061834D02*
X0012285Y0061834D01*
X0012221Y0061442D02*
X0012771Y0061442D01*
X0012656Y0061049D02*
X0012123Y0061049D01*
X0011708Y0060604D02*
X0011960Y0060265D01*
X0011813Y0064187D02*
X0010883Y0064187D01*
X0024270Y0046930D02*
X0027437Y0046930D01*
X0034131Y0044164D02*
X0034131Y0042589D01*
X0034131Y0042228D01*
X0034131Y0040652D01*
X0034583Y0040318D01*
X0034628Y0041060D01*
X0034628Y0041848D01*
X0034956Y0042308D01*
X0035422Y0041850D01*
X0035691Y0041110D01*
X0036060Y0040427D01*
X0036336Y0040737D01*
X0036066Y0041477D01*
X0035784Y0042212D01*
X0036188Y0042795D01*
X0036365Y0043549D01*
X0036034Y0044239D01*
X0035323Y0044536D01*
X0034585Y0044546D01*
X0034749Y0044128D01*
X0035480Y0044069D01*
X0035878Y0043432D01*
X0035502Y0042784D01*
X0034722Y0042722D01*
X0034628Y0043416D01*
X0034695Y0044083D01*
X0034500Y0044513D01*
X0034131Y0044164D01*
X0034152Y0044184D02*
X0034649Y0044184D01*
X0034727Y0044184D02*
X0036060Y0044184D01*
X0036248Y0043792D02*
X0035653Y0043792D01*
X0035859Y0043400D02*
X0036330Y0043400D01*
X0036238Y0043008D02*
X0035632Y0043008D01*
X0036063Y0042615D02*
X0034131Y0042615D01*
X0034131Y0042223D02*
X0034896Y0042223D01*
X0035042Y0042223D02*
X0035791Y0042223D01*
X0035930Y0041831D02*
X0035429Y0041831D01*
X0035572Y0041439D02*
X0036079Y0041439D01*
X0036223Y0041047D02*
X0035726Y0041047D01*
X0035938Y0040654D02*
X0036262Y0040654D01*
X0037861Y0040654D02*
X0038287Y0040654D01*
X0038321Y0040681D02*
X0038349Y0043831D01*
X0038200Y0044547D01*
X0037622Y0044053D01*
X0037421Y0043721D01*
X0037863Y0043372D01*
X0037863Y0042584D01*
X0037863Y0041888D01*
X0037861Y0040313D01*
X0038321Y0040681D01*
X0038324Y0041047D02*
X0037862Y0041047D01*
X0037862Y0041439D02*
X0038327Y0041439D01*
X0038331Y0041831D02*
X0037862Y0041831D01*
X0037863Y0042223D02*
X0038335Y0042223D01*
X0038338Y0042615D02*
X0037863Y0042615D01*
X0037863Y0043008D02*
X0038342Y0043008D01*
X0038345Y0043400D02*
X0037827Y0043400D01*
X0037464Y0043792D02*
X0038349Y0043792D01*
X0038276Y0044184D02*
X0037776Y0044184D01*
X0039608Y0044184D02*
X0040529Y0044184D01*
X0040556Y0044216D02*
X0054732Y0044216D01*
X0055029Y0043726D01*
X0055029Y0039788D01*
X0055185Y0039157D01*
X0055610Y0039520D01*
X0055610Y0044245D01*
X0055374Y0044796D01*
X0039623Y0044796D01*
X0039604Y0044027D01*
X0039604Y0041665D01*
X0039605Y0041104D01*
X0039605Y0038741D01*
X0040062Y0038410D01*
X0040185Y0039074D01*
X0040185Y0043799D01*
X0040556Y0044216D01*
X0040185Y0043792D02*
X0039604Y0043792D01*
X0039604Y0043400D02*
X0040185Y0043400D01*
X0040185Y0043008D02*
X0039604Y0043008D01*
X0039604Y0042615D02*
X0040185Y0042615D01*
X0040185Y0042223D02*
X0039604Y0042223D01*
X0039604Y0041831D02*
X0040185Y0041831D01*
X0040185Y0041439D02*
X0039604Y0041439D01*
X0039605Y0041047D02*
X0040185Y0041047D01*
X0040185Y0040654D02*
X0039605Y0040654D01*
X0039605Y0040262D02*
X0040185Y0040262D01*
X0040185Y0039870D02*
X0039605Y0039870D01*
X0039605Y0039478D02*
X0040185Y0039478D01*
X0040185Y0039085D02*
X0039605Y0039085D01*
X0039671Y0038693D02*
X0040114Y0038693D01*
X0034604Y0040654D02*
X0034131Y0040654D01*
X0034131Y0041047D02*
X0034628Y0041047D01*
X0034628Y0041439D02*
X0034131Y0041439D01*
X0034131Y0041831D02*
X0034628Y0041831D01*
X0034683Y0043008D02*
X0034131Y0043008D01*
X0034131Y0043400D02*
X0034630Y0043400D01*
X0034666Y0043792D02*
X0034131Y0043792D01*
X0039618Y0044576D02*
X0055468Y0044576D01*
X0055610Y0044184D02*
X0054751Y0044184D01*
X0054989Y0043792D02*
X0055610Y0043792D01*
X0055610Y0043400D02*
X0055029Y0043400D01*
X0055029Y0043008D02*
X0055610Y0043008D01*
X0055610Y0042615D02*
X0055029Y0042615D01*
X0055029Y0042223D02*
X0055610Y0042223D01*
X0055610Y0041831D02*
X0055029Y0041831D01*
X0055029Y0041439D02*
X0055610Y0041439D01*
X0055610Y0041047D02*
X0055029Y0041047D01*
X0055029Y0040654D02*
X0055610Y0040654D01*
X0055610Y0040262D02*
X0055029Y0040262D01*
X0055029Y0039870D02*
X0055610Y0039870D01*
X0055561Y0039478D02*
X0055106Y0039478D01*
X0055056Y0034015D02*
X0040093Y0034015D01*
X0040206Y0033434D01*
X0055169Y0033434D01*
X0055610Y0033781D01*
X0055056Y0034015D01*
X0055123Y0033987D02*
X0040099Y0033987D01*
X0040175Y0033595D02*
X0055372Y0033595D01*
X0055853Y0027309D02*
X0055892Y0026717D01*
X0056679Y0026717D01*
X0057467Y0026706D01*
X0059041Y0026665D01*
X0060616Y0026612D01*
X0060751Y0025956D01*
X0060751Y0025169D01*
X0060751Y0024257D01*
X0060751Y0023469D01*
X0060889Y0022819D01*
X0061332Y0023164D01*
X0061332Y0027101D01*
X0060576Y0027198D01*
X0059002Y0027244D01*
X0055853Y0027309D01*
X0055878Y0026927D02*
X0061332Y0026927D01*
X0061332Y0026535D02*
X0060632Y0026535D01*
X0060713Y0026142D02*
X0061332Y0026142D01*
X0061332Y0025750D02*
X0060751Y0025750D01*
X0060751Y0025358D02*
X0061332Y0025358D01*
X0061332Y0024966D02*
X0060751Y0024966D01*
X0060751Y0024574D02*
X0061332Y0024574D01*
X0061332Y0024181D02*
X0060751Y0024181D01*
X0060751Y0023789D02*
X0061332Y0023789D01*
X0061332Y0023397D02*
X0060767Y0023397D01*
X0060850Y0023005D02*
X0061127Y0023005D01*
X0016422Y0027381D02*
X0016305Y0026800D01*
X0012368Y0026800D01*
X0011823Y0026557D01*
X0011823Y0023407D01*
X0011541Y0022902D01*
X0011243Y0023392D01*
X0011243Y0024967D01*
X0011243Y0025472D01*
X0011243Y0027047D01*
X0011697Y0027381D01*
X0016422Y0027381D01*
X0016410Y0027319D02*
X0011613Y0027319D01*
X0011243Y0026927D02*
X0016331Y0026927D01*
X0011823Y0026535D02*
X0011243Y0026535D01*
X0011243Y0026142D02*
X0011823Y0026142D01*
X0011823Y0025750D02*
X0011243Y0025750D01*
X0011243Y0025358D02*
X0011823Y0025358D01*
X0011823Y0024966D02*
X0011243Y0024966D01*
X0011243Y0024574D02*
X0011823Y0024574D01*
X0011823Y0024181D02*
X0011243Y0024181D01*
X0011243Y0023789D02*
X0011823Y0023789D01*
X0011818Y0023397D02*
X0011243Y0023397D01*
X0011478Y0023005D02*
X0011598Y0023005D01*
X0013293Y0030694D02*
X0012546Y0030978D01*
X0012248Y0031689D01*
X0012426Y0032355D01*
X0012737Y0031810D01*
X0013074Y0031147D01*
X0013740Y0031414D01*
X0013809Y0032196D01*
X0013813Y0034559D01*
X0014311Y0034839D01*
X0014306Y0032476D01*
X0014269Y0031690D01*
X0014016Y0030961D01*
X0013293Y0030694D01*
X0012884Y0030849D02*
X0013712Y0030849D01*
X0014113Y0031241D02*
X0013308Y0031241D01*
X0013026Y0031241D02*
X0012436Y0031241D01*
X0012272Y0031633D02*
X0012827Y0031633D01*
X0012614Y0032026D02*
X0012338Y0032026D01*
X0013794Y0032026D02*
X0014285Y0032026D01*
X0014303Y0032418D02*
X0013810Y0032418D01*
X0013810Y0032810D02*
X0014307Y0032810D01*
X0014308Y0033202D02*
X0013811Y0033202D01*
X0013812Y0033595D02*
X0014308Y0033595D01*
X0014309Y0033987D02*
X0013812Y0033987D01*
X0013813Y0034379D02*
X0014310Y0034379D01*
X0014311Y0034771D02*
X0014190Y0034771D01*
X0015234Y0034093D02*
X0015887Y0033901D01*
X0015887Y0032325D01*
X0015886Y0031629D01*
X0015885Y0030842D01*
X0016342Y0030746D01*
X0016374Y0033896D01*
X0016349Y0034683D01*
X0015841Y0034474D01*
X0015234Y0034093D01*
X0015594Y0033987D02*
X0016371Y0033987D01*
X0016359Y0034379D02*
X0015690Y0034379D01*
X0015887Y0033595D02*
X0016371Y0033595D01*
X0016367Y0033202D02*
X0015887Y0033202D01*
X0015887Y0032810D02*
X0016363Y0032810D01*
X0016359Y0032418D02*
X0015887Y0032418D01*
X0015886Y0032026D02*
X0016355Y0032026D01*
X0016351Y0031633D02*
X0015886Y0031633D01*
X0015886Y0031241D02*
X0016347Y0031241D01*
X0016343Y0030849D02*
X0015885Y0030849D01*
X0014250Y0031633D02*
X0013759Y0031633D01*
X0103855Y0065878D02*
X0103955Y0065887D01*
X0104054Y0065901D01*
X0104153Y0065918D01*
X0104251Y0065940D01*
X0104348Y0065965D01*
X0104444Y0065994D01*
X0104539Y0066027D01*
X0104632Y0066063D01*
X0104724Y0066103D01*
X0104814Y0066147D01*
X0104903Y0066194D01*
X0104989Y0066245D01*
X0105074Y0066298D01*
X0105156Y0066356D01*
X0105236Y0066416D01*
X0105314Y0066480D01*
X0105389Y0066546D01*
X0105461Y0066616D01*
X0105531Y0066688D01*
X0105598Y0066763D01*
X0105662Y0066840D01*
X0105722Y0066920D01*
X0105780Y0067002D01*
X0105834Y0067087D01*
X0105885Y0067173D01*
X0105932Y0067261D01*
X0105976Y0067352D01*
X0106016Y0067443D01*
X0106053Y0067537D01*
X0106086Y0067631D01*
X0106115Y0067727D01*
X0106141Y0067824D01*
X0106162Y0067922D01*
X0106180Y0068021D01*
X0106194Y0068120D01*
X0106204Y0068220D01*
X0106210Y0068320D01*
X0106212Y0068420D01*
X0106210Y0068521D01*
X0106204Y0068621D01*
X0106204Y0068620D02*
X0106204Y0068908D01*
X0134475Y0068908D01*
X0134470Y0068804D01*
X0134468Y0068700D01*
X0134470Y0068597D01*
X0134477Y0068493D01*
X0134487Y0068390D01*
X0134501Y0068287D01*
X0134518Y0068184D01*
X0134540Y0068083D01*
X0134565Y0067982D01*
X0134594Y0067883D01*
X0134627Y0067784D01*
X0134664Y0067687D01*
X0134704Y0067591D01*
X0134748Y0067497D01*
X0134795Y0067404D01*
X0134845Y0067314D01*
X0134899Y0067225D01*
X0134956Y0067138D01*
X0135017Y0067054D01*
X0135080Y0066972D01*
X0135147Y0066892D01*
X0135216Y0066815D01*
X0135289Y0066741D01*
X0135364Y0066669D01*
X0135441Y0066600D01*
X0135522Y0066534D01*
X0135604Y0066471D01*
X0135689Y0066411D01*
X0135776Y0066355D01*
X0135865Y0066302D01*
X0135956Y0066252D01*
X0136049Y0066205D01*
X0136144Y0066162D01*
X0136240Y0066123D01*
X0136337Y0066087D01*
X0136436Y0066055D01*
X0136536Y0066027D01*
X0136637Y0066002D01*
X0136738Y0065981D01*
X0136841Y0065964D01*
X0136944Y0065951D01*
X0137047Y0065942D01*
X0142911Y0065941D02*
X0143018Y0065946D01*
X0143125Y0065955D01*
X0143232Y0065968D01*
X0143339Y0065985D01*
X0143444Y0066006D01*
X0143549Y0066030D01*
X0143653Y0066058D01*
X0143756Y0066090D01*
X0143857Y0066126D01*
X0143957Y0066166D01*
X0144056Y0066209D01*
X0144153Y0066256D01*
X0144248Y0066306D01*
X0144341Y0066360D01*
X0144433Y0066417D01*
X0144522Y0066477D01*
X0144609Y0066540D01*
X0144693Y0066607D01*
X0144775Y0066677D01*
X0144855Y0066749D01*
X0144931Y0066825D01*
X0145005Y0066903D01*
X0145076Y0066984D01*
X0145144Y0067068D01*
X0145209Y0067154D01*
X0145271Y0067242D01*
X0145329Y0067332D01*
X0145385Y0067425D01*
X0145436Y0067519D01*
X0145484Y0067615D01*
X0145529Y0067713D01*
X0145570Y0067813D01*
X0145608Y0067914D01*
X0145641Y0068016D01*
X0145671Y0068119D01*
X0145697Y0068224D01*
X0145720Y0068329D01*
X0145738Y0068435D01*
X0145753Y0068542D01*
X0145763Y0068649D01*
X0145770Y0068756D01*
X0145773Y0068864D01*
X0145772Y0068972D01*
X0145772Y0068971D02*
X0145772Y0069003D01*
X0152987Y0069003D01*
X0173476Y0069006D01*
X0173470Y0068899D01*
X0173469Y0068792D01*
X0173472Y0068685D01*
X0173478Y0068578D01*
X0173489Y0068471D01*
X0173503Y0068365D01*
X0173521Y0068260D01*
X0173543Y0068155D01*
X0173569Y0068051D01*
X0173598Y0067948D01*
X0173632Y0067846D01*
X0173669Y0067746D01*
X0173709Y0067646D01*
X0173754Y0067549D01*
X0173801Y0067453D01*
X0173853Y0067359D01*
X0173907Y0067267D01*
X0173965Y0067177D01*
X0174026Y0067089D01*
X0174091Y0067003D01*
X0174158Y0066920D01*
X0174229Y0066840D01*
X0174302Y0066762D01*
X0174378Y0066686D01*
X0174457Y0066614D01*
X0174539Y0066544D01*
X0174623Y0066478D01*
X0174709Y0066414D01*
X0174798Y0066354D01*
X0174888Y0066297D01*
X0174981Y0066244D01*
X0175076Y0066194D01*
X0175172Y0066147D01*
X0175270Y0066104D01*
X0175370Y0066064D01*
X0175471Y0066029D01*
X0175573Y0065996D01*
X0175676Y0065968D01*
X0175780Y0065943D01*
X0175885Y0065923D01*
X0175991Y0065906D01*
X0176097Y0065893D01*
X0176204Y0065884D01*
X0182026Y0065884D02*
X0182131Y0065893D01*
X0182236Y0065906D01*
X0182340Y0065924D01*
X0182443Y0065945D01*
X0182546Y0065970D01*
X0182647Y0065998D01*
X0182747Y0066031D01*
X0182847Y0066067D01*
X0182944Y0066107D01*
X0183040Y0066150D01*
X0183135Y0066197D01*
X0183227Y0066248D01*
X0183318Y0066302D01*
X0183407Y0066359D01*
X0183493Y0066420D01*
X0183577Y0066484D01*
X0183658Y0066551D01*
X0183737Y0066621D01*
X0183814Y0066693D01*
X0183887Y0066769D01*
X0183958Y0066847D01*
X0184026Y0066928D01*
X0184090Y0067012D01*
X0184152Y0067097D01*
X0184210Y0067185D01*
X0184265Y0067275D01*
X0184317Y0067367D01*
X0184365Y0067461D01*
X0184409Y0067557D01*
X0184450Y0067654D01*
X0184487Y0067753D01*
X0184521Y0067853D01*
X0184550Y0067954D01*
X0184576Y0068057D01*
X0184598Y0068160D01*
X0184616Y0068264D01*
X0184631Y0068368D01*
X0184641Y0068473D01*
X0184647Y0068579D01*
X0184650Y0068684D01*
X0184649Y0068789D01*
X0184643Y0068895D01*
X0184644Y0068895D02*
X0184644Y0068908D01*
X0212592Y0068908D01*
X0212587Y0068804D01*
X0212585Y0068701D01*
X0212587Y0068597D01*
X0212593Y0068493D01*
X0212603Y0068390D01*
X0212617Y0068287D01*
X0212634Y0068185D01*
X0212655Y0068083D01*
X0212680Y0067983D01*
X0212708Y0067883D01*
X0212741Y0067784D01*
X0212776Y0067687D01*
X0212815Y0067591D01*
X0212858Y0067496D01*
X0212904Y0067403D01*
X0212954Y0067312D01*
X0213006Y0067223D01*
X0213062Y0067135D01*
X0213121Y0067050D01*
X0213184Y0066967D01*
X0213249Y0066886D01*
X0213317Y0066808D01*
X0213388Y0066732D01*
X0213461Y0066659D01*
X0213538Y0066589D01*
X0213616Y0066521D01*
X0213698Y0066457D01*
X0213781Y0066395D01*
X0213867Y0066337D01*
X0213954Y0066281D01*
X0214044Y0066229D01*
X0214136Y0066180D01*
X0214229Y0066135D01*
X0214324Y0066093D01*
X0214420Y0066055D01*
X0214518Y0066020D01*
X0214617Y0065988D01*
X0214717Y0065961D01*
X0214818Y0065937D01*
X0214919Y0065916D01*
X0215022Y0065900D01*
X0215125Y0065887D01*
X0215228Y0065878D01*
X0215228Y0065877D02*
X0222977Y0065877D01*
X0210783Y0063403D02*
X0210500Y0063403D01*
X0227521Y0059717D02*
X0227521Y0058142D01*
X0227521Y0057560D01*
X0227521Y0055985D01*
X0227897Y0055608D01*
X0228677Y0055711D01*
X0229358Y0056081D01*
X0229693Y0056784D01*
X0229792Y0057564D01*
X0229753Y0058350D01*
X0229543Y0059106D01*
X0228984Y0059637D01*
X0228267Y0059793D01*
X0228382Y0059366D01*
X0228998Y0059005D01*
X0229235Y0058268D01*
X0229243Y0057481D01*
X0229133Y0056702D01*
X0228213Y0056010D01*
X0228018Y0056562D01*
X0228018Y0058925D01*
X0228311Y0059350D01*
X0228170Y0059797D01*
X0227521Y0059717D01*
X0227521Y0059481D02*
X0228270Y0059481D01*
X0228351Y0059481D02*
X0229149Y0059481D01*
X0228856Y0059088D02*
X0229548Y0059088D01*
X0229657Y0058696D02*
X0229097Y0058696D01*
X0229223Y0058304D02*
X0229755Y0058304D01*
X0229774Y0057912D02*
X0229238Y0057912D01*
X0229242Y0057519D02*
X0229786Y0057519D01*
X0229736Y0057127D02*
X0229193Y0057127D01*
X0229138Y0056735D02*
X0229669Y0056735D01*
X0229482Y0056343D02*
X0228656Y0056343D01*
X0228096Y0056343D02*
X0227521Y0056343D01*
X0227521Y0056735D02*
X0228018Y0056735D01*
X0228018Y0057127D02*
X0227521Y0057127D01*
X0227521Y0057519D02*
X0228018Y0057519D01*
X0228018Y0057912D02*
X0227521Y0057912D01*
X0227521Y0058304D02*
X0228018Y0058304D01*
X0228018Y0058696D02*
X0227521Y0058696D01*
X0227521Y0059088D02*
X0228131Y0059088D01*
X0230405Y0059806D02*
X0230722Y0059394D01*
X0231510Y0059385D01*
X0231832Y0058949D01*
X0231425Y0057427D01*
X0231004Y0055909D01*
X0231374Y0055659D01*
X0231630Y0056399D01*
X0231841Y0057158D01*
X0232041Y0057920D01*
X0232233Y0058684D01*
X0232402Y0059453D01*
X0231980Y0059806D01*
X0230405Y0059806D01*
X0230656Y0059481D02*
X0232369Y0059481D01*
X0232322Y0059088D02*
X0231729Y0059088D01*
X0231765Y0058696D02*
X0232236Y0058696D01*
X0232138Y0058304D02*
X0231660Y0058304D01*
X0231555Y0057912D02*
X0232039Y0057912D01*
X0231936Y0057519D02*
X0231450Y0057519D01*
X0231342Y0057127D02*
X0231832Y0057127D01*
X0231723Y0056735D02*
X0231233Y0056735D01*
X0231125Y0056343D02*
X0231611Y0056343D01*
X0231475Y0055951D02*
X0231016Y0055951D01*
X0232079Y0054715D02*
X0232866Y0054729D01*
X0234441Y0054742D01*
X0239954Y0054748D01*
X0240292Y0055198D01*
X0240292Y0063860D01*
X0240872Y0064005D01*
X0240872Y0055343D01*
X0241065Y0054748D01*
X0257603Y0054748D01*
X0257956Y0055183D01*
X0257956Y0063845D01*
X0258536Y0064020D01*
X0258536Y0055357D01*
X0258714Y0054748D01*
X0266589Y0054748D01*
X0267244Y0054615D01*
X0267244Y0024689D01*
X0266750Y0024395D01*
X0266663Y0025096D01*
X0266663Y0053446D01*
X0266597Y0054167D01*
X0232734Y0054167D01*
X0232082Y0054032D01*
X0232082Y0020169D01*
X0231712Y0019751D01*
X0231502Y0020328D01*
X0231502Y0036866D01*
X0231502Y0037905D01*
X0231502Y0054443D01*
X0232079Y0054715D01*
X0231502Y0054382D02*
X0267244Y0054382D01*
X0267244Y0053990D02*
X0266613Y0053990D01*
X0266649Y0053597D02*
X0267244Y0053597D01*
X0267244Y0053205D02*
X0266663Y0053205D01*
X0266663Y0052813D02*
X0267244Y0052813D01*
X0267244Y0052421D02*
X0266663Y0052421D01*
X0266663Y0052028D02*
X0267244Y0052028D01*
X0267244Y0051636D02*
X0266663Y0051636D01*
X0266663Y0051244D02*
X0267244Y0051244D01*
X0267244Y0050852D02*
X0266663Y0050852D01*
X0266663Y0050460D02*
X0267244Y0050460D01*
X0267244Y0050067D02*
X0266663Y0050067D01*
X0266663Y0049675D02*
X0267244Y0049675D01*
X0267244Y0049283D02*
X0266663Y0049283D01*
X0266663Y0048891D02*
X0267244Y0048891D01*
X0267244Y0048499D02*
X0266663Y0048499D01*
X0266663Y0048106D02*
X0267244Y0048106D01*
X0267244Y0047714D02*
X0266663Y0047714D01*
X0266663Y0047322D02*
X0267244Y0047322D01*
X0267244Y0046930D02*
X0266663Y0046930D01*
X0266663Y0046538D02*
X0267244Y0046538D01*
X0267244Y0046145D02*
X0266663Y0046145D01*
X0266663Y0045753D02*
X0267244Y0045753D01*
X0267244Y0045361D02*
X0266663Y0045361D01*
X0266663Y0044969D02*
X0267244Y0044969D01*
X0267244Y0044576D02*
X0266663Y0044576D01*
X0266663Y0044184D02*
X0267244Y0044184D01*
X0267244Y0043792D02*
X0266663Y0043792D01*
X0266663Y0043400D02*
X0267244Y0043400D01*
X0267244Y0043008D02*
X0266663Y0043008D01*
X0266663Y0042615D02*
X0267244Y0042615D01*
X0267244Y0042223D02*
X0266663Y0042223D01*
X0266663Y0041831D02*
X0267244Y0041831D01*
X0267244Y0041439D02*
X0266663Y0041439D01*
X0266663Y0041047D02*
X0267244Y0041047D01*
X0267244Y0040654D02*
X0266663Y0040654D01*
X0266663Y0040262D02*
X0267244Y0040262D01*
X0267244Y0039870D02*
X0266663Y0039870D01*
X0266663Y0039478D02*
X0267244Y0039478D01*
X0267244Y0039085D02*
X0266663Y0039085D01*
X0266663Y0038693D02*
X0267244Y0038693D01*
X0267244Y0038301D02*
X0266663Y0038301D01*
X0266663Y0037909D02*
X0267244Y0037909D01*
X0267244Y0037517D02*
X0266663Y0037517D01*
X0266663Y0037124D02*
X0267244Y0037124D01*
X0267244Y0036732D02*
X0266663Y0036732D01*
X0266663Y0036340D02*
X0267244Y0036340D01*
X0267244Y0035948D02*
X0266663Y0035948D01*
X0266663Y0035556D02*
X0267244Y0035556D01*
X0267244Y0035163D02*
X0266663Y0035163D01*
X0266663Y0034771D02*
X0267244Y0034771D01*
X0267244Y0034379D02*
X0266663Y0034379D01*
X0266663Y0033987D02*
X0267244Y0033987D01*
X0267244Y0033595D02*
X0266663Y0033595D01*
X0266663Y0033202D02*
X0267244Y0033202D01*
X0267244Y0032810D02*
X0266663Y0032810D01*
X0266663Y0032418D02*
X0267244Y0032418D01*
X0267244Y0032026D02*
X0266663Y0032026D01*
X0266663Y0031633D02*
X0267244Y0031633D01*
X0267244Y0031241D02*
X0266663Y0031241D01*
X0266663Y0030849D02*
X0267244Y0030849D01*
X0267244Y0030457D02*
X0266663Y0030457D01*
X0266663Y0030065D02*
X0267244Y0030065D01*
X0267244Y0029672D02*
X0266663Y0029672D01*
X0266663Y0029280D02*
X0267244Y0029280D01*
X0267244Y0028888D02*
X0266663Y0028888D01*
X0266663Y0028496D02*
X0267244Y0028496D01*
X0267244Y0028104D02*
X0266663Y0028104D01*
X0266663Y0027711D02*
X0267244Y0027711D01*
X0267244Y0027319D02*
X0266663Y0027319D01*
X0266663Y0026927D02*
X0267244Y0026927D01*
X0267244Y0026535D02*
X0266663Y0026535D01*
X0266663Y0026142D02*
X0267244Y0026142D01*
X0267244Y0025750D02*
X0266663Y0025750D01*
X0266663Y0025358D02*
X0267244Y0025358D01*
X0267244Y0024966D02*
X0266679Y0024966D01*
X0266728Y0024574D02*
X0267050Y0024574D01*
X0266914Y0023462D02*
X0266582Y0023517D01*
X0266287Y0023591D01*
X0265955Y0023572D01*
X0265531Y0023498D01*
X0265180Y0023332D01*
X0264811Y0023111D01*
X0264516Y0022890D01*
X0264276Y0022687D01*
X0264055Y0022410D01*
X0263926Y0022151D01*
X0263797Y0021930D01*
X0263723Y0021653D01*
X0263668Y0021376D01*
X0263594Y0020823D01*
X0263612Y0020491D01*
X0263575Y0019993D01*
X0263575Y0019461D01*
X0235535Y0019461D01*
X0232082Y0020259D02*
X0231527Y0020259D01*
X0231502Y0020652D02*
X0232082Y0020652D01*
X0232082Y0021044D02*
X0231502Y0021044D01*
X0231502Y0021436D02*
X0232082Y0021436D01*
X0232082Y0021828D02*
X0231502Y0021828D01*
X0231502Y0022220D02*
X0232082Y0022220D01*
X0232082Y0022613D02*
X0231502Y0022613D01*
X0231502Y0023005D02*
X0232082Y0023005D01*
X0232082Y0023397D02*
X0231502Y0023397D01*
X0231502Y0023789D02*
X0232082Y0023789D01*
X0232082Y0024181D02*
X0231502Y0024181D01*
X0231502Y0024574D02*
X0232082Y0024574D01*
X0232082Y0024966D02*
X0231502Y0024966D01*
X0231502Y0025358D02*
X0232082Y0025358D01*
X0232082Y0025750D02*
X0231502Y0025750D01*
X0231502Y0026142D02*
X0232082Y0026142D01*
X0232082Y0026535D02*
X0231502Y0026535D01*
X0231502Y0026927D02*
X0232082Y0026927D01*
X0232082Y0027319D02*
X0231502Y0027319D01*
X0231502Y0027711D02*
X0232082Y0027711D01*
X0232082Y0028104D02*
X0231502Y0028104D01*
X0231502Y0028496D02*
X0232082Y0028496D01*
X0232082Y0028888D02*
X0231502Y0028888D01*
X0231502Y0029280D02*
X0232082Y0029280D01*
X0232082Y0029672D02*
X0231502Y0029672D01*
X0231502Y0030065D02*
X0232082Y0030065D01*
X0232082Y0030457D02*
X0231502Y0030457D01*
X0231502Y0030849D02*
X0232082Y0030849D01*
X0232082Y0031241D02*
X0231502Y0031241D01*
X0231502Y0031633D02*
X0232082Y0031633D01*
X0232082Y0032026D02*
X0231502Y0032026D01*
X0231502Y0032418D02*
X0232082Y0032418D01*
X0232082Y0032810D02*
X0231502Y0032810D01*
X0231502Y0033202D02*
X0232082Y0033202D01*
X0232082Y0033595D02*
X0231502Y0033595D01*
X0231502Y0033987D02*
X0232082Y0033987D01*
X0232082Y0034379D02*
X0231502Y0034379D01*
X0231502Y0034771D02*
X0232082Y0034771D01*
X0232082Y0035163D02*
X0231502Y0035163D01*
X0231502Y0035556D02*
X0232082Y0035556D01*
X0232082Y0035948D02*
X0231502Y0035948D01*
X0231502Y0036340D02*
X0232082Y0036340D01*
X0232082Y0036732D02*
X0231502Y0036732D01*
X0231502Y0037124D02*
X0232082Y0037124D01*
X0232082Y0037517D02*
X0231502Y0037517D01*
X0231502Y0037909D02*
X0232082Y0037909D01*
X0232082Y0038301D02*
X0231502Y0038301D01*
X0231502Y0038693D02*
X0232082Y0038693D01*
X0232082Y0039085D02*
X0231502Y0039085D01*
X0231502Y0039478D02*
X0232082Y0039478D01*
X0232082Y0039870D02*
X0231502Y0039870D01*
X0231502Y0040262D02*
X0232082Y0040262D01*
X0232082Y0040654D02*
X0231502Y0040654D01*
X0231502Y0041047D02*
X0232082Y0041047D01*
X0232082Y0041439D02*
X0231502Y0041439D01*
X0231502Y0041831D02*
X0232082Y0041831D01*
X0232082Y0042223D02*
X0231502Y0042223D01*
X0231502Y0042615D02*
X0232082Y0042615D01*
X0232082Y0043008D02*
X0231502Y0043008D01*
X0231502Y0043400D02*
X0232082Y0043400D01*
X0232082Y0043792D02*
X0231502Y0043792D01*
X0231502Y0044184D02*
X0232082Y0044184D01*
X0232082Y0044576D02*
X0231502Y0044576D01*
X0231502Y0044969D02*
X0232082Y0044969D01*
X0232082Y0045361D02*
X0231502Y0045361D01*
X0231502Y0045753D02*
X0232082Y0045753D01*
X0232082Y0046145D02*
X0231502Y0046145D01*
X0231502Y0046538D02*
X0232082Y0046538D01*
X0232082Y0046930D02*
X0231502Y0046930D01*
X0231502Y0047322D02*
X0232082Y0047322D01*
X0232082Y0047714D02*
X0231502Y0047714D01*
X0231502Y0048106D02*
X0232082Y0048106D01*
X0232082Y0048499D02*
X0231502Y0048499D01*
X0231502Y0048891D02*
X0232082Y0048891D01*
X0232082Y0049283D02*
X0231502Y0049283D01*
X0231502Y0049675D02*
X0232082Y0049675D01*
X0232082Y0050067D02*
X0231502Y0050067D01*
X0231502Y0050460D02*
X0232082Y0050460D01*
X0232082Y0050852D02*
X0231502Y0050852D01*
X0231502Y0051244D02*
X0232082Y0051244D01*
X0232082Y0051636D02*
X0231502Y0051636D01*
X0231502Y0052028D02*
X0232082Y0052028D01*
X0232082Y0052421D02*
X0231502Y0052421D01*
X0231502Y0052813D02*
X0232082Y0052813D01*
X0232082Y0053205D02*
X0231502Y0053205D01*
X0231502Y0053597D02*
X0232082Y0053597D01*
X0232082Y0053990D02*
X0231502Y0053990D01*
X0229118Y0055951D02*
X0227555Y0055951D01*
X0239974Y0054774D02*
X0241057Y0054774D01*
X0240930Y0055166D02*
X0240269Y0055166D01*
X0240292Y0055558D02*
X0240872Y0055558D01*
X0240872Y0055951D02*
X0240292Y0055951D01*
X0240292Y0056343D02*
X0240872Y0056343D01*
X0240872Y0056735D02*
X0240292Y0056735D01*
X0240292Y0057127D02*
X0240872Y0057127D01*
X0240872Y0057519D02*
X0240292Y0057519D01*
X0240292Y0057912D02*
X0240872Y0057912D01*
X0240872Y0058304D02*
X0240292Y0058304D01*
X0240292Y0058696D02*
X0240872Y0058696D01*
X0240872Y0059088D02*
X0240292Y0059088D01*
X0240292Y0059481D02*
X0240872Y0059481D01*
X0240872Y0059873D02*
X0240292Y0059873D01*
X0240292Y0060265D02*
X0240872Y0060265D01*
X0240872Y0060657D02*
X0240292Y0060657D01*
X0240292Y0061049D02*
X0240872Y0061049D01*
X0240872Y0061442D02*
X0240292Y0061442D01*
X0240292Y0061834D02*
X0240872Y0061834D01*
X0240872Y0062226D02*
X0240292Y0062226D01*
X0240292Y0062618D02*
X0240872Y0062618D01*
X0240872Y0063010D02*
X0240292Y0063010D01*
X0240292Y0063403D02*
X0240872Y0063403D01*
X0240872Y0063795D02*
X0240292Y0063795D01*
X0240662Y0066027D02*
X0240872Y0066604D01*
X0240872Y0067391D01*
X0240627Y0067934D01*
X0240292Y0067482D01*
X0240292Y0066444D01*
X0240662Y0066027D01*
X0240706Y0066148D02*
X0240554Y0066148D01*
X0240292Y0066540D02*
X0240849Y0066540D01*
X0240872Y0066933D02*
X0240292Y0066933D01*
X0240292Y0067325D02*
X0240872Y0067325D01*
X0240725Y0067717D02*
X0240466Y0067717D01*
X0225865Y0068765D02*
X0225865Y0068879D01*
X0269207Y0068879D01*
X0269208Y0068879D02*
X0269216Y0068764D01*
X0269228Y0068649D01*
X0269245Y0068534D01*
X0269265Y0068420D01*
X0269289Y0068307D01*
X0269316Y0068194D01*
X0269347Y0068083D01*
X0269382Y0067972D01*
X0269421Y0067863D01*
X0269464Y0067756D01*
X0269509Y0067649D01*
X0269559Y0067545D01*
X0269612Y0067442D01*
X0269668Y0067341D01*
X0269728Y0067241D01*
X0269791Y0067144D01*
X0269857Y0067049D01*
X0269926Y0066956D01*
X0269998Y0066866D01*
X0270074Y0066778D01*
X0270152Y0066693D01*
X0270233Y0066610D01*
X0270317Y0066530D01*
X0270403Y0066453D01*
X0270492Y0066379D01*
X0270583Y0066308D01*
X0270677Y0066240D01*
X0270773Y0066175D01*
X0270871Y0066113D01*
X0270971Y0066055D01*
X0271073Y0066000D01*
X0271177Y0065949D01*
X0271282Y0065901D01*
X0271389Y0065856D01*
X0271497Y0065815D01*
X0271607Y0065778D01*
X0271717Y0065744D01*
X0271829Y0065715D01*
X0271942Y0065688D01*
X0272056Y0065666D01*
X0272170Y0065648D01*
X0272285Y0065633D01*
X0272400Y0065622D01*
X0272516Y0065615D01*
X0272631Y0065612D01*
X0272747Y0065613D01*
X0272863Y0065618D01*
X0272862Y0065617D02*
X0278684Y0065617D01*
X0278684Y0046459D01*
X0272637Y0046459D01*
X0272082Y0047698D02*
X0272447Y0048258D01*
X0272639Y0049821D01*
X0272778Y0050595D01*
X0272913Y0049857D01*
X0273109Y0048294D01*
X0273612Y0047905D01*
X0273724Y0048684D01*
X0273822Y0049466D01*
X0274093Y0051813D01*
X0273621Y0051538D01*
X0273472Y0049969D01*
X0273298Y0049592D01*
X0273194Y0050373D01*
X0273106Y0051156D01*
X0272935Y0051845D01*
X0272473Y0051389D01*
X0272284Y0049825D01*
X0272159Y0049389D01*
X0272071Y0050172D01*
X0271995Y0050956D01*
X0271867Y0051731D01*
X0271502Y0051456D01*
X0271856Y0048325D01*
X0272082Y0047698D01*
X0272076Y0047714D02*
X0272092Y0047714D01*
X0271935Y0048106D02*
X0272348Y0048106D01*
X0272476Y0048499D02*
X0271836Y0048499D01*
X0271792Y0048891D02*
X0272524Y0048891D01*
X0272573Y0049283D02*
X0271747Y0049283D01*
X0271703Y0049675D02*
X0272127Y0049675D01*
X0272241Y0049675D02*
X0272621Y0049675D01*
X0272936Y0049675D02*
X0273287Y0049675D01*
X0273336Y0049675D02*
X0273846Y0049675D01*
X0273799Y0049283D02*
X0272985Y0049283D01*
X0273034Y0048891D02*
X0273750Y0048891D01*
X0273698Y0048499D02*
X0273084Y0048499D01*
X0273352Y0048106D02*
X0273641Y0048106D01*
X0274521Y0048499D02*
X0275095Y0048499D01*
X0274956Y0048657D02*
X0274458Y0048641D01*
X0274770Y0047935D01*
X0275626Y0047704D01*
X0276287Y0048090D01*
X0276590Y0048806D01*
X0276539Y0049585D01*
X0276146Y0050253D01*
X0275379Y0050298D01*
X0275040Y0050592D01*
X0275165Y0051349D01*
X0275939Y0051430D01*
X0276532Y0051697D01*
X0275892Y0051845D01*
X0275104Y0051847D01*
X0274632Y0051365D01*
X0274591Y0050578D01*
X0274562Y0049791D01*
X0275085Y0049710D01*
X0275767Y0049973D01*
X0276109Y0049298D01*
X0276027Y0048521D01*
X0275428Y0048117D01*
X0274956Y0048657D01*
X0274694Y0048106D02*
X0276294Y0048106D01*
X0276460Y0048499D02*
X0275995Y0048499D01*
X0276066Y0048891D02*
X0276584Y0048891D01*
X0276558Y0049283D02*
X0276107Y0049283D01*
X0275918Y0049675D02*
X0276486Y0049675D01*
X0276255Y0050067D02*
X0274572Y0050067D01*
X0274587Y0050460D02*
X0275193Y0050460D01*
X0275083Y0050852D02*
X0274605Y0050852D01*
X0274626Y0051244D02*
X0275148Y0051244D01*
X0274898Y0051636D02*
X0276396Y0051636D01*
X0274073Y0051636D02*
X0273790Y0051636D01*
X0273593Y0051244D02*
X0274027Y0051244D01*
X0273982Y0050852D02*
X0273556Y0050852D01*
X0273518Y0050460D02*
X0273937Y0050460D01*
X0273892Y0050067D02*
X0273481Y0050067D01*
X0273235Y0050067D02*
X0272875Y0050067D01*
X0272683Y0050067D02*
X0272314Y0050067D01*
X0272083Y0050067D02*
X0271659Y0050067D01*
X0271614Y0050460D02*
X0272043Y0050460D01*
X0272361Y0050460D02*
X0272754Y0050460D01*
X0272803Y0050460D02*
X0273185Y0050460D01*
X0273140Y0050852D02*
X0272409Y0050852D01*
X0272456Y0051244D02*
X0273084Y0051244D01*
X0272986Y0051636D02*
X0272724Y0051636D01*
X0271882Y0051636D02*
X0271741Y0051636D01*
X0271947Y0051244D02*
X0271526Y0051244D01*
X0271570Y0050852D02*
X0272005Y0050852D01*
X0271058Y0050902D02*
X0270747Y0051609D01*
X0270028Y0051848D01*
X0269327Y0051518D01*
X0269003Y0050821D01*
X0269306Y0050118D01*
X0269910Y0049616D01*
X0270521Y0049120D01*
X0270553Y0048381D01*
X0269859Y0048130D01*
X0269400Y0048692D01*
X0268904Y0048772D01*
X0269136Y0048038D01*
X0269988Y0047706D01*
X0270743Y0047883D01*
X0271123Y0048549D01*
X0271014Y0049310D01*
X0270415Y0049818D01*
X0269788Y0050293D01*
X0269505Y0050974D01*
X0270074Y0051424D01*
X0270561Y0050886D01*
X0271058Y0050902D01*
X0270907Y0051244D02*
X0270237Y0051244D01*
X0269847Y0051244D02*
X0269200Y0051244D01*
X0269017Y0050852D02*
X0269556Y0050852D01*
X0269719Y0050460D02*
X0269159Y0050460D01*
X0269367Y0050067D02*
X0270086Y0050067D01*
X0269839Y0049675D02*
X0270584Y0049675D01*
X0270321Y0049283D02*
X0271018Y0049283D01*
X0271074Y0048891D02*
X0270531Y0048891D01*
X0270548Y0048499D02*
X0271094Y0048499D01*
X0270870Y0048106D02*
X0269115Y0048106D01*
X0268991Y0048499D02*
X0269558Y0048499D01*
X0269968Y0047714D02*
X0270022Y0047714D01*
X0275588Y0047714D02*
X0275644Y0047714D01*
X0270663Y0051636D02*
X0269578Y0051636D01*
X0269451Y0054382D02*
X0268912Y0054382D01*
X0268913Y0054333D02*
X0269697Y0054404D01*
X0270405Y0054598D01*
X0270299Y0055053D01*
X0269953Y0054846D01*
X0269400Y0054951D01*
X0269400Y0058101D01*
X0270114Y0058012D01*
X0270565Y0057387D01*
X0270633Y0056604D01*
X0270586Y0055818D01*
X0270356Y0055125D01*
X0270485Y0054648D01*
X0270962Y0055191D01*
X0271146Y0055954D01*
X0271169Y0056740D01*
X0271051Y0057517D01*
X0270673Y0058195D01*
X0269965Y0058518D01*
X0269180Y0058562D01*
X0268902Y0058053D01*
X0268902Y0056478D01*
X0268902Y0055896D01*
X0268902Y0055109D01*
X0268913Y0054333D01*
X0268907Y0054774D02*
X0270364Y0054774D01*
X0270451Y0054774D02*
X0270596Y0054774D01*
X0270370Y0055166D02*
X0270940Y0055166D01*
X0271051Y0055558D02*
X0270500Y0055558D01*
X0270594Y0055951D02*
X0271145Y0055951D01*
X0271157Y0056343D02*
X0270618Y0056343D01*
X0270622Y0056735D02*
X0271169Y0056735D01*
X0271110Y0057127D02*
X0270587Y0057127D01*
X0270469Y0057519D02*
X0271050Y0057519D01*
X0270831Y0057912D02*
X0270186Y0057912D01*
X0270435Y0058304D02*
X0269039Y0058304D01*
X0268902Y0057912D02*
X0269400Y0057912D01*
X0269400Y0057519D02*
X0268902Y0057519D01*
X0268902Y0057127D02*
X0269400Y0057127D01*
X0269400Y0056735D02*
X0268902Y0056735D01*
X0268902Y0056343D02*
X0269400Y0056343D01*
X0269400Y0055951D02*
X0268902Y0055951D01*
X0268902Y0055558D02*
X0269400Y0055558D01*
X0269400Y0055166D02*
X0268902Y0055166D01*
X0272635Y0055166D02*
X0273096Y0055166D01*
X0273093Y0054774D02*
X0272636Y0054774D01*
X0272636Y0054382D02*
X0272707Y0054382D01*
X0272636Y0054322D02*
X0273092Y0054707D01*
X0273121Y0057857D01*
X0272961Y0058562D01*
X0272384Y0058064D01*
X0272203Y0057736D01*
X0272634Y0057377D01*
X0272634Y0056589D01*
X0272634Y0055893D01*
X0272636Y0054322D01*
X0274611Y0055101D02*
X0275411Y0054422D01*
X0276091Y0054639D01*
X0275764Y0054930D01*
X0275159Y0055072D01*
X0274930Y0055819D01*
X0274881Y0056604D01*
X0274955Y0057386D01*
X0275319Y0058069D01*
X0275965Y0057838D01*
X0276152Y0057085D01*
X0276158Y0056297D01*
X0276117Y0055511D01*
X0275834Y0054962D01*
X0276165Y0054695D01*
X0276557Y0055304D01*
X0276645Y0056085D01*
X0276651Y0056873D01*
X0276569Y0057653D01*
X0276145Y0058308D01*
X0275429Y0058566D01*
X0274789Y0058144D01*
X0274470Y0057429D01*
X0274383Y0056649D01*
X0274424Y0055863D01*
X0274611Y0055101D01*
X0274595Y0055166D02*
X0275130Y0055166D01*
X0275010Y0055558D02*
X0274498Y0055558D01*
X0274419Y0055951D02*
X0274922Y0055951D01*
X0274897Y0056343D02*
X0274399Y0056343D01*
X0274393Y0056735D02*
X0274893Y0056735D01*
X0274931Y0057127D02*
X0274437Y0057127D01*
X0274510Y0057519D02*
X0275026Y0057519D01*
X0275235Y0057912D02*
X0274685Y0057912D01*
X0275031Y0058304D02*
X0276148Y0058304D01*
X0276402Y0057912D02*
X0275758Y0057912D01*
X0276044Y0057519D02*
X0276583Y0057519D01*
X0276625Y0057127D02*
X0276141Y0057127D01*
X0276154Y0056735D02*
X0276650Y0056735D01*
X0276647Y0056343D02*
X0276157Y0056343D01*
X0276140Y0055951D02*
X0276630Y0055951D01*
X0276586Y0055558D02*
X0276119Y0055558D01*
X0275939Y0055166D02*
X0276468Y0055166D01*
X0276216Y0054774D02*
X0276067Y0054774D01*
X0275939Y0054774D02*
X0274996Y0054774D01*
X0273100Y0055558D02*
X0272634Y0055558D01*
X0272634Y0055951D02*
X0273103Y0055951D01*
X0273107Y0056343D02*
X0272634Y0056343D01*
X0272634Y0056735D02*
X0273111Y0056735D01*
X0273114Y0057127D02*
X0272634Y0057127D01*
X0272463Y0057519D02*
X0273118Y0057519D01*
X0273108Y0057912D02*
X0272300Y0057912D01*
X0272662Y0058304D02*
X0273019Y0058304D01*
X0258536Y0058304D02*
X0257956Y0058304D01*
X0257956Y0058696D02*
X0258536Y0058696D01*
X0258536Y0059088D02*
X0257956Y0059088D01*
X0257956Y0059481D02*
X0258536Y0059481D01*
X0258536Y0059873D02*
X0257956Y0059873D01*
X0257956Y0060265D02*
X0258536Y0060265D01*
X0258536Y0060657D02*
X0257956Y0060657D01*
X0257956Y0061049D02*
X0258536Y0061049D01*
X0258536Y0061442D02*
X0257956Y0061442D01*
X0257956Y0061834D02*
X0258536Y0061834D01*
X0258536Y0062226D02*
X0257956Y0062226D01*
X0257956Y0062618D02*
X0258536Y0062618D01*
X0258536Y0063010D02*
X0257956Y0063010D01*
X0257956Y0063403D02*
X0258536Y0063403D01*
X0258536Y0063795D02*
X0257956Y0063795D01*
X0258536Y0066150D02*
X0258536Y0067725D01*
X0258040Y0068017D01*
X0257956Y0067314D01*
X0257956Y0067063D01*
X0257956Y0066276D01*
X0258536Y0066150D01*
X0258536Y0066540D02*
X0257956Y0066540D01*
X0257956Y0066933D02*
X0258536Y0066933D01*
X0258536Y0067325D02*
X0257957Y0067325D01*
X0258004Y0067717D02*
X0258536Y0067717D01*
X0225865Y0068765D02*
X0225863Y0068660D01*
X0225857Y0068554D01*
X0225848Y0068449D01*
X0225834Y0068345D01*
X0225817Y0068240D01*
X0225796Y0068137D01*
X0225771Y0068035D01*
X0225743Y0067933D01*
X0225710Y0067833D01*
X0225674Y0067733D01*
X0225635Y0067635D01*
X0225592Y0067539D01*
X0225545Y0067444D01*
X0225495Y0067352D01*
X0225442Y0067261D01*
X0225386Y0067171D01*
X0225326Y0067085D01*
X0225263Y0067000D01*
X0225197Y0066918D01*
X0225128Y0066838D01*
X0225056Y0066761D01*
X0224981Y0066686D01*
X0224904Y0066614D01*
X0224824Y0066545D01*
X0224742Y0066479D01*
X0224657Y0066416D01*
X0224571Y0066356D01*
X0224481Y0066300D01*
X0224390Y0066247D01*
X0224298Y0066197D01*
X0224203Y0066150D01*
X0224107Y0066107D01*
X0224009Y0066068D01*
X0223909Y0066032D01*
X0223809Y0065999D01*
X0223707Y0065971D01*
X0223605Y0065946D01*
X0223502Y0065925D01*
X0223397Y0065908D01*
X0223293Y0065894D01*
X0223188Y0065885D01*
X0223082Y0065879D01*
X0222977Y0065877D01*
X0189955Y0059481D02*
X0189375Y0059481D01*
X0189375Y0059088D02*
X0189955Y0059088D01*
X0189955Y0058696D02*
X0189375Y0058696D01*
X0189375Y0058304D02*
X0189955Y0058304D01*
X0189955Y0057912D02*
X0189375Y0057912D01*
X0189375Y0057519D02*
X0189955Y0057519D01*
X0189955Y0057127D02*
X0189375Y0057127D01*
X0189375Y0056735D02*
X0189955Y0056735D01*
X0189955Y0056343D02*
X0189375Y0056343D01*
X0189375Y0055951D02*
X0189955Y0055951D01*
X0189955Y0055558D02*
X0189375Y0055558D01*
X0189375Y0055166D02*
X0189955Y0055166D01*
X0217486Y0042799D02*
X0217486Y0041224D01*
X0217486Y0040074D01*
X0217486Y0039287D01*
X0217729Y0038742D01*
X0217984Y0039274D01*
X0217984Y0040062D01*
X0218093Y0040684D01*
X0218261Y0041188D01*
X0217984Y0041631D01*
X0217984Y0042418D01*
X0218633Y0042546D01*
X0219198Y0042063D01*
X0219040Y0041331D01*
X0219032Y0041323D01*
X0218335Y0041158D01*
X0218147Y0040713D01*
X0218707Y0040472D01*
X0218975Y0039731D01*
X0219275Y0039004D01*
X0219757Y0038961D01*
X0219496Y0039704D01*
X0219215Y0040440D01*
X0219418Y0041051D01*
X0219720Y0041763D01*
X0219533Y0042510D01*
X0218887Y0042934D01*
X0218102Y0042971D01*
X0217486Y0042799D01*
X0217486Y0042615D02*
X0219373Y0042615D01*
X0219605Y0042223D02*
X0219010Y0042223D01*
X0219148Y0041831D02*
X0219703Y0041831D01*
X0219583Y0041439D02*
X0219063Y0041439D01*
X0219417Y0041047D02*
X0218288Y0041047D01*
X0218214Y0041047D02*
X0217486Y0041047D01*
X0217486Y0041439D02*
X0218104Y0041439D01*
X0217984Y0041831D02*
X0217486Y0041831D01*
X0217486Y0042223D02*
X0217984Y0042223D01*
X0220454Y0042223D02*
X0220936Y0042223D01*
X0220886Y0042177D02*
X0221294Y0042557D01*
X0222082Y0042561D01*
X0222230Y0042971D01*
X0220655Y0042971D01*
X0220462Y0042367D01*
X0220420Y0041581D01*
X0220391Y0040794D01*
X0220994Y0040924D01*
X0221685Y0041030D01*
X0221950Y0040305D01*
X0221775Y0039546D01*
X0221134Y0039232D01*
X0220729Y0039873D01*
X0220259Y0039706D01*
X0221227Y0038820D01*
X0221962Y0039038D01*
X0222368Y0039702D01*
X0222425Y0040481D01*
X0222114Y0041193D01*
X0221417Y0041475D01*
X0220844Y0041392D01*
X0220886Y0042177D01*
X0220867Y0041831D02*
X0220434Y0041831D01*
X0220415Y0041439D02*
X0220846Y0041439D01*
X0221167Y0041439D02*
X0221507Y0041439D01*
X0222178Y0041047D02*
X0220400Y0041047D01*
X0219286Y0040654D02*
X0218282Y0040654D01*
X0218088Y0040654D02*
X0217486Y0040654D01*
X0217486Y0040262D02*
X0218019Y0040262D01*
X0217984Y0039870D02*
X0217486Y0039870D01*
X0217486Y0039478D02*
X0217984Y0039478D01*
X0217894Y0039085D02*
X0217576Y0039085D01*
X0219080Y0039478D02*
X0219576Y0039478D01*
X0219713Y0039085D02*
X0219242Y0039085D01*
X0219433Y0039870D02*
X0218925Y0039870D01*
X0218783Y0040262D02*
X0219283Y0040262D01*
X0220508Y0039478D02*
X0220978Y0039478D01*
X0220937Y0039085D02*
X0221991Y0039085D01*
X0222231Y0039478D02*
X0221636Y0039478D01*
X0221850Y0039870D02*
X0222380Y0039870D01*
X0222409Y0040262D02*
X0221940Y0040262D01*
X0221822Y0040654D02*
X0222349Y0040654D01*
X0220731Y0039870D02*
X0220720Y0039870D01*
X0224452Y0039870D02*
X0224950Y0039870D01*
X0224950Y0040192D02*
X0225363Y0040566D01*
X0225775Y0040030D01*
X0226047Y0039291D01*
X0226462Y0038652D01*
X0226630Y0039079D01*
X0226074Y0040552D01*
X0226553Y0041130D01*
X0226678Y0041895D01*
X0226313Y0042511D01*
X0225896Y0042240D01*
X0226199Y0041606D01*
X0225743Y0041015D01*
X0224958Y0040981D01*
X0224950Y0041760D01*
X0225107Y0042391D01*
X0225826Y0042292D01*
X0226241Y0042569D01*
X0225557Y0042799D01*
X0224770Y0042805D01*
X0224452Y0042335D01*
X0224452Y0040760D01*
X0224452Y0040401D01*
X0224452Y0038826D01*
X0224950Y0038616D01*
X0224950Y0040192D01*
X0225028Y0040262D02*
X0224452Y0040262D01*
X0224452Y0040654D02*
X0226158Y0040654D01*
X0226183Y0040262D02*
X0225597Y0040262D01*
X0225834Y0039870D02*
X0226331Y0039870D01*
X0226479Y0039478D02*
X0225978Y0039478D01*
X0226180Y0039085D02*
X0226627Y0039085D01*
X0226478Y0038693D02*
X0226436Y0038693D01*
X0227494Y0039310D02*
X0227936Y0038769D01*
X0228693Y0038698D01*
X0229262Y0039215D01*
X0229419Y0039981D01*
X0229258Y0040745D01*
X0228717Y0041290D01*
X0228046Y0041100D01*
X0228411Y0040902D01*
X0228880Y0040434D01*
X0228900Y0039650D01*
X0228301Y0039017D01*
X0227878Y0039630D01*
X0227868Y0040414D01*
X0228342Y0040901D01*
X0227969Y0041126D01*
X0227828Y0041312D01*
X0228088Y0042052D01*
X0228714Y0042308D01*
X0229239Y0041910D01*
X0229092Y0042584D01*
X0228366Y0042796D01*
X0227748Y0042347D01*
X0227397Y0041644D01*
X0227315Y0040864D01*
X0227330Y0040077D01*
X0227494Y0039310D01*
X0227458Y0039478D02*
X0227983Y0039478D01*
X0227875Y0039870D02*
X0227374Y0039870D01*
X0227327Y0040262D02*
X0227870Y0040262D01*
X0228102Y0040654D02*
X0227319Y0040654D01*
X0227334Y0041047D02*
X0228101Y0041047D01*
X0228145Y0041047D02*
X0228959Y0041047D01*
X0228659Y0040654D02*
X0229277Y0040654D01*
X0229360Y0040262D02*
X0228885Y0040262D01*
X0228894Y0039870D02*
X0229396Y0039870D01*
X0229316Y0039478D02*
X0228737Y0039478D01*
X0228366Y0039085D02*
X0229119Y0039085D01*
X0228254Y0039085D02*
X0227678Y0039085D01*
X0224950Y0039085D02*
X0224452Y0039085D01*
X0224452Y0039478D02*
X0224950Y0039478D01*
X0224950Y0038693D02*
X0224767Y0038693D01*
X0224957Y0041047D02*
X0224452Y0041047D01*
X0224452Y0041439D02*
X0224953Y0041439D01*
X0224967Y0041831D02*
X0224452Y0041831D01*
X0224452Y0042223D02*
X0225065Y0042223D01*
X0224642Y0042615D02*
X0226104Y0042615D01*
X0225905Y0042223D02*
X0226483Y0042223D01*
X0226667Y0041831D02*
X0226091Y0041831D01*
X0226070Y0041439D02*
X0226603Y0041439D01*
X0226484Y0041047D02*
X0225767Y0041047D01*
X0227376Y0041439D02*
X0227873Y0041439D01*
X0228010Y0041831D02*
X0227491Y0041831D01*
X0227686Y0042223D02*
X0228506Y0042223D01*
X0228825Y0042223D02*
X0229171Y0042223D01*
X0228984Y0042615D02*
X0228117Y0042615D01*
X0222101Y0042615D02*
X0220541Y0042615D01*
X0268778Y0042600D02*
X0268778Y0022569D01*
X0268777Y0022569D02*
X0268775Y0022538D01*
X0268770Y0022508D01*
X0268762Y0022478D01*
X0268750Y0022450D01*
X0268735Y0022423D01*
X0268717Y0022398D01*
X0268696Y0022375D01*
X0268673Y0022354D01*
X0268648Y0022336D01*
X0268621Y0022321D01*
X0268593Y0022309D01*
X0268563Y0022301D01*
X0268533Y0022296D01*
X0268502Y0022294D01*
X0268502Y0022293D02*
X0268124Y0022671D01*
X0267597Y0023092D01*
X0267339Y0023259D01*
X0267191Y0023332D01*
X0266914Y0023462D01*
X0235535Y0019462D02*
X0235409Y0019460D01*
X0235283Y0019454D01*
X0235157Y0019445D01*
X0235032Y0019431D01*
X0234907Y0019414D01*
X0234783Y0019392D01*
X0234659Y0019367D01*
X0234537Y0019338D01*
X0234415Y0019306D01*
X0234294Y0019269D01*
X0234175Y0019229D01*
X0234056Y0019186D01*
X0233940Y0019138D01*
X0233824Y0019087D01*
X0233711Y0019033D01*
X0233599Y0018975D01*
X0233489Y0018914D01*
X0233380Y0018849D01*
X0233274Y0018781D01*
X0233170Y0018710D01*
X0233068Y0018635D01*
X0232969Y0018558D01*
X0232872Y0018477D01*
X0232778Y0018394D01*
X0232686Y0018307D01*
X0232597Y0018218D01*
X0232510Y0018126D01*
X0232427Y0018032D01*
X0232346Y0017935D01*
X0232269Y0017836D01*
X0232194Y0017734D01*
X0232123Y0017630D01*
X0232055Y0017524D01*
X0231990Y0017416D01*
X0231929Y0017305D01*
X0231871Y0017193D01*
X0231817Y0017080D01*
X0231766Y0016964D01*
X0231718Y0016848D01*
X0231675Y0016729D01*
X0231635Y0016610D01*
X0231598Y0016489D01*
X0231566Y0016367D01*
X0231537Y0016245D01*
X0231512Y0016121D01*
X0231490Y0015997D01*
X0231473Y0015872D01*
X0231459Y0015747D01*
X0231450Y0015621D01*
X0231444Y0015495D01*
X0231442Y0015369D01*
X0231443Y0015369D02*
X0231443Y0007469D01*
X0231670Y0019867D02*
X0231815Y0019867D01*
X0268778Y0042600D02*
X0268780Y0042721D01*
X0268786Y0042842D01*
X0268795Y0042963D01*
X0268808Y0043084D01*
X0268826Y0043204D01*
X0268846Y0043323D01*
X0268871Y0043442D01*
X0268899Y0043560D01*
X0268931Y0043677D01*
X0268967Y0043792D01*
X0269006Y0043907D01*
X0269049Y0044021D01*
X0269095Y0044133D01*
X0269145Y0044243D01*
X0269199Y0044352D01*
X0269255Y0044459D01*
X0269315Y0044564D01*
X0269379Y0044668D01*
X0269445Y0044769D01*
X0269515Y0044868D01*
X0269588Y0044965D01*
X0269664Y0045060D01*
X0269742Y0045152D01*
X0269824Y0045242D01*
X0269908Y0045329D01*
X0269995Y0045413D01*
X0270085Y0045495D01*
X0270177Y0045573D01*
X0270272Y0045649D01*
X0270369Y0045722D01*
X0270468Y0045792D01*
X0270569Y0045858D01*
X0270673Y0045922D01*
X0270778Y0045982D01*
X0270885Y0046038D01*
X0270994Y0046092D01*
X0271104Y0046142D01*
X0271216Y0046188D01*
X0271330Y0046231D01*
X0271445Y0046270D01*
X0271560Y0046306D01*
X0271677Y0046338D01*
X0271795Y0046366D01*
X0271914Y0046391D01*
X0272033Y0046411D01*
X0272153Y0046429D01*
X0272274Y0046442D01*
X0272395Y0046451D01*
X0272516Y0046457D01*
X0272637Y0046459D01*
X0258707Y0054774D02*
X0257624Y0054774D01*
X0257942Y0055166D02*
X0258592Y0055166D01*
X0258536Y0055558D02*
X0257956Y0055558D01*
X0257956Y0055951D02*
X0258536Y0055951D01*
X0258536Y0056343D02*
X0257956Y0056343D01*
X0257956Y0056735D02*
X0258536Y0056735D01*
X0258536Y0057127D02*
X0257956Y0057127D01*
X0257956Y0057519D02*
X0258536Y0057519D01*
X0258536Y0057912D02*
X0257956Y0057912D01*
D11*
X0229346Y0050944D02*
X0229348Y0051056D01*
X0229354Y0051167D01*
X0229364Y0051279D01*
X0229378Y0051389D01*
X0229396Y0051500D01*
X0229418Y0051609D01*
X0229443Y0051718D01*
X0229473Y0051826D01*
X0229506Y0051932D01*
X0229543Y0052038D01*
X0229584Y0052142D01*
X0229629Y0052244D01*
X0229677Y0052345D01*
X0229729Y0052444D01*
X0229784Y0052541D01*
X0229843Y0052636D01*
X0229905Y0052729D01*
X0229970Y0052820D01*
X0230039Y0052908D01*
X0230111Y0052994D01*
X0230185Y0053077D01*
X0230263Y0053157D01*
X0230343Y0053235D01*
X0230426Y0053309D01*
X0230512Y0053381D01*
X0230600Y0053450D01*
X0230691Y0053515D01*
X0230784Y0053577D01*
X0230879Y0053636D01*
X0230976Y0053691D01*
X0231075Y0053743D01*
X0231176Y0053791D01*
X0231278Y0053836D01*
X0231382Y0053877D01*
X0231488Y0053914D01*
X0231594Y0053947D01*
X0231702Y0053977D01*
X0231811Y0054002D01*
X0231920Y0054024D01*
X0232031Y0054042D01*
X0232141Y0054056D01*
X0232253Y0054066D01*
X0232364Y0054072D01*
X0232476Y0054074D01*
X0232588Y0054072D01*
X0232699Y0054066D01*
X0232811Y0054056D01*
X0232921Y0054042D01*
X0233032Y0054024D01*
X0233141Y0054002D01*
X0233250Y0053977D01*
X0233358Y0053947D01*
X0233464Y0053914D01*
X0233570Y0053877D01*
X0233674Y0053836D01*
X0233776Y0053791D01*
X0233877Y0053743D01*
X0233976Y0053691D01*
X0234073Y0053636D01*
X0234168Y0053577D01*
X0234261Y0053515D01*
X0234352Y0053450D01*
X0234440Y0053381D01*
X0234526Y0053309D01*
X0234609Y0053235D01*
X0234689Y0053157D01*
X0234767Y0053077D01*
X0234841Y0052994D01*
X0234913Y0052908D01*
X0234982Y0052820D01*
X0235047Y0052729D01*
X0235109Y0052636D01*
X0235168Y0052541D01*
X0235223Y0052444D01*
X0235275Y0052345D01*
X0235323Y0052244D01*
X0235368Y0052142D01*
X0235409Y0052038D01*
X0235446Y0051932D01*
X0235479Y0051826D01*
X0235509Y0051718D01*
X0235534Y0051609D01*
X0235556Y0051500D01*
X0235574Y0051389D01*
X0235588Y0051279D01*
X0235598Y0051167D01*
X0235604Y0051056D01*
X0235606Y0050944D01*
X0235604Y0050832D01*
X0235598Y0050721D01*
X0235588Y0050609D01*
X0235574Y0050499D01*
X0235556Y0050388D01*
X0235534Y0050279D01*
X0235509Y0050170D01*
X0235479Y0050062D01*
X0235446Y0049956D01*
X0235409Y0049850D01*
X0235368Y0049746D01*
X0235323Y0049644D01*
X0235275Y0049543D01*
X0235223Y0049444D01*
X0235168Y0049347D01*
X0235109Y0049252D01*
X0235047Y0049159D01*
X0234982Y0049068D01*
X0234913Y0048980D01*
X0234841Y0048894D01*
X0234767Y0048811D01*
X0234689Y0048731D01*
X0234609Y0048653D01*
X0234526Y0048579D01*
X0234440Y0048507D01*
X0234352Y0048438D01*
X0234261Y0048373D01*
X0234168Y0048311D01*
X0234073Y0048252D01*
X0233976Y0048197D01*
X0233877Y0048145D01*
X0233776Y0048097D01*
X0233674Y0048052D01*
X0233570Y0048011D01*
X0233464Y0047974D01*
X0233358Y0047941D01*
X0233250Y0047911D01*
X0233141Y0047886D01*
X0233032Y0047864D01*
X0232921Y0047846D01*
X0232811Y0047832D01*
X0232699Y0047822D01*
X0232588Y0047816D01*
X0232476Y0047814D01*
X0232364Y0047816D01*
X0232253Y0047822D01*
X0232141Y0047832D01*
X0232031Y0047846D01*
X0231920Y0047864D01*
X0231811Y0047886D01*
X0231702Y0047911D01*
X0231594Y0047941D01*
X0231488Y0047974D01*
X0231382Y0048011D01*
X0231278Y0048052D01*
X0231176Y0048097D01*
X0231075Y0048145D01*
X0230976Y0048197D01*
X0230879Y0048252D01*
X0230784Y0048311D01*
X0230691Y0048373D01*
X0230600Y0048438D01*
X0230512Y0048507D01*
X0230426Y0048579D01*
X0230343Y0048653D01*
X0230263Y0048731D01*
X0230185Y0048811D01*
X0230111Y0048894D01*
X0230039Y0048980D01*
X0229970Y0049068D01*
X0229905Y0049159D01*
X0229843Y0049252D01*
X0229784Y0049347D01*
X0229729Y0049444D01*
X0229677Y0049543D01*
X0229629Y0049644D01*
X0229584Y0049746D01*
X0229543Y0049850D01*
X0229506Y0049956D01*
X0229473Y0050062D01*
X0229443Y0050170D01*
X0229418Y0050279D01*
X0229396Y0050388D01*
X0229378Y0050499D01*
X0229364Y0050609D01*
X0229354Y0050721D01*
X0229348Y0050832D01*
X0229346Y0050944D01*
X0178417Y0050976D02*
X0178419Y0051088D01*
X0178425Y0051199D01*
X0178435Y0051311D01*
X0178449Y0051421D01*
X0178467Y0051532D01*
X0178489Y0051641D01*
X0178514Y0051750D01*
X0178544Y0051858D01*
X0178577Y0051964D01*
X0178614Y0052070D01*
X0178655Y0052174D01*
X0178700Y0052276D01*
X0178748Y0052377D01*
X0178800Y0052476D01*
X0178855Y0052573D01*
X0178914Y0052668D01*
X0178976Y0052761D01*
X0179041Y0052852D01*
X0179110Y0052940D01*
X0179182Y0053026D01*
X0179256Y0053109D01*
X0179334Y0053189D01*
X0179414Y0053267D01*
X0179497Y0053341D01*
X0179583Y0053413D01*
X0179671Y0053482D01*
X0179762Y0053547D01*
X0179855Y0053609D01*
X0179950Y0053668D01*
X0180047Y0053723D01*
X0180146Y0053775D01*
X0180247Y0053823D01*
X0180349Y0053868D01*
X0180453Y0053909D01*
X0180559Y0053946D01*
X0180665Y0053979D01*
X0180773Y0054009D01*
X0180882Y0054034D01*
X0180991Y0054056D01*
X0181102Y0054074D01*
X0181212Y0054088D01*
X0181324Y0054098D01*
X0181435Y0054104D01*
X0181547Y0054106D01*
X0181659Y0054104D01*
X0181770Y0054098D01*
X0181882Y0054088D01*
X0181992Y0054074D01*
X0182103Y0054056D01*
X0182212Y0054034D01*
X0182321Y0054009D01*
X0182429Y0053979D01*
X0182535Y0053946D01*
X0182641Y0053909D01*
X0182745Y0053868D01*
X0182847Y0053823D01*
X0182948Y0053775D01*
X0183047Y0053723D01*
X0183144Y0053668D01*
X0183239Y0053609D01*
X0183332Y0053547D01*
X0183423Y0053482D01*
X0183511Y0053413D01*
X0183597Y0053341D01*
X0183680Y0053267D01*
X0183760Y0053189D01*
X0183838Y0053109D01*
X0183912Y0053026D01*
X0183984Y0052940D01*
X0184053Y0052852D01*
X0184118Y0052761D01*
X0184180Y0052668D01*
X0184239Y0052573D01*
X0184294Y0052476D01*
X0184346Y0052377D01*
X0184394Y0052276D01*
X0184439Y0052174D01*
X0184480Y0052070D01*
X0184517Y0051964D01*
X0184550Y0051858D01*
X0184580Y0051750D01*
X0184605Y0051641D01*
X0184627Y0051532D01*
X0184645Y0051421D01*
X0184659Y0051311D01*
X0184669Y0051199D01*
X0184675Y0051088D01*
X0184677Y0050976D01*
X0184675Y0050864D01*
X0184669Y0050753D01*
X0184659Y0050641D01*
X0184645Y0050531D01*
X0184627Y0050420D01*
X0184605Y0050311D01*
X0184580Y0050202D01*
X0184550Y0050094D01*
X0184517Y0049988D01*
X0184480Y0049882D01*
X0184439Y0049778D01*
X0184394Y0049676D01*
X0184346Y0049575D01*
X0184294Y0049476D01*
X0184239Y0049379D01*
X0184180Y0049284D01*
X0184118Y0049191D01*
X0184053Y0049100D01*
X0183984Y0049012D01*
X0183912Y0048926D01*
X0183838Y0048843D01*
X0183760Y0048763D01*
X0183680Y0048685D01*
X0183597Y0048611D01*
X0183511Y0048539D01*
X0183423Y0048470D01*
X0183332Y0048405D01*
X0183239Y0048343D01*
X0183144Y0048284D01*
X0183047Y0048229D01*
X0182948Y0048177D01*
X0182847Y0048129D01*
X0182745Y0048084D01*
X0182641Y0048043D01*
X0182535Y0048006D01*
X0182429Y0047973D01*
X0182321Y0047943D01*
X0182212Y0047918D01*
X0182103Y0047896D01*
X0181992Y0047878D01*
X0181882Y0047864D01*
X0181770Y0047854D01*
X0181659Y0047848D01*
X0181547Y0047846D01*
X0181435Y0047848D01*
X0181324Y0047854D01*
X0181212Y0047864D01*
X0181102Y0047878D01*
X0180991Y0047896D01*
X0180882Y0047918D01*
X0180773Y0047943D01*
X0180665Y0047973D01*
X0180559Y0048006D01*
X0180453Y0048043D01*
X0180349Y0048084D01*
X0180247Y0048129D01*
X0180146Y0048177D01*
X0180047Y0048229D01*
X0179950Y0048284D01*
X0179855Y0048343D01*
X0179762Y0048405D01*
X0179671Y0048470D01*
X0179583Y0048539D01*
X0179497Y0048611D01*
X0179414Y0048685D01*
X0179334Y0048763D01*
X0179256Y0048843D01*
X0179182Y0048926D01*
X0179110Y0049012D01*
X0179041Y0049100D01*
X0178976Y0049191D01*
X0178914Y0049284D01*
X0178855Y0049379D01*
X0178800Y0049476D01*
X0178748Y0049575D01*
X0178700Y0049676D01*
X0178655Y0049778D01*
X0178614Y0049882D01*
X0178577Y0049988D01*
X0178544Y0050094D01*
X0178514Y0050202D01*
X0178489Y0050311D01*
X0178467Y0050420D01*
X0178449Y0050531D01*
X0178435Y0050641D01*
X0178425Y0050753D01*
X0178419Y0050864D01*
X0178417Y0050976D01*
X0139408Y0051056D02*
X0139410Y0051168D01*
X0139416Y0051279D01*
X0139426Y0051391D01*
X0139440Y0051501D01*
X0139458Y0051612D01*
X0139480Y0051721D01*
X0139505Y0051830D01*
X0139535Y0051938D01*
X0139568Y0052044D01*
X0139605Y0052150D01*
X0139646Y0052254D01*
X0139691Y0052356D01*
X0139739Y0052457D01*
X0139791Y0052556D01*
X0139846Y0052653D01*
X0139905Y0052748D01*
X0139967Y0052841D01*
X0140032Y0052932D01*
X0140101Y0053020D01*
X0140173Y0053106D01*
X0140247Y0053189D01*
X0140325Y0053269D01*
X0140405Y0053347D01*
X0140488Y0053421D01*
X0140574Y0053493D01*
X0140662Y0053562D01*
X0140753Y0053627D01*
X0140846Y0053689D01*
X0140941Y0053748D01*
X0141038Y0053803D01*
X0141137Y0053855D01*
X0141238Y0053903D01*
X0141340Y0053948D01*
X0141444Y0053989D01*
X0141550Y0054026D01*
X0141656Y0054059D01*
X0141764Y0054089D01*
X0141873Y0054114D01*
X0141982Y0054136D01*
X0142093Y0054154D01*
X0142203Y0054168D01*
X0142315Y0054178D01*
X0142426Y0054184D01*
X0142538Y0054186D01*
X0142650Y0054184D01*
X0142761Y0054178D01*
X0142873Y0054168D01*
X0142983Y0054154D01*
X0143094Y0054136D01*
X0143203Y0054114D01*
X0143312Y0054089D01*
X0143420Y0054059D01*
X0143526Y0054026D01*
X0143632Y0053989D01*
X0143736Y0053948D01*
X0143838Y0053903D01*
X0143939Y0053855D01*
X0144038Y0053803D01*
X0144135Y0053748D01*
X0144230Y0053689D01*
X0144323Y0053627D01*
X0144414Y0053562D01*
X0144502Y0053493D01*
X0144588Y0053421D01*
X0144671Y0053347D01*
X0144751Y0053269D01*
X0144829Y0053189D01*
X0144903Y0053106D01*
X0144975Y0053020D01*
X0145044Y0052932D01*
X0145109Y0052841D01*
X0145171Y0052748D01*
X0145230Y0052653D01*
X0145285Y0052556D01*
X0145337Y0052457D01*
X0145385Y0052356D01*
X0145430Y0052254D01*
X0145471Y0052150D01*
X0145508Y0052044D01*
X0145541Y0051938D01*
X0145571Y0051830D01*
X0145596Y0051721D01*
X0145618Y0051612D01*
X0145636Y0051501D01*
X0145650Y0051391D01*
X0145660Y0051279D01*
X0145666Y0051168D01*
X0145668Y0051056D01*
X0145666Y0050944D01*
X0145660Y0050833D01*
X0145650Y0050721D01*
X0145636Y0050611D01*
X0145618Y0050500D01*
X0145596Y0050391D01*
X0145571Y0050282D01*
X0145541Y0050174D01*
X0145508Y0050068D01*
X0145471Y0049962D01*
X0145430Y0049858D01*
X0145385Y0049756D01*
X0145337Y0049655D01*
X0145285Y0049556D01*
X0145230Y0049459D01*
X0145171Y0049364D01*
X0145109Y0049271D01*
X0145044Y0049180D01*
X0144975Y0049092D01*
X0144903Y0049006D01*
X0144829Y0048923D01*
X0144751Y0048843D01*
X0144671Y0048765D01*
X0144588Y0048691D01*
X0144502Y0048619D01*
X0144414Y0048550D01*
X0144323Y0048485D01*
X0144230Y0048423D01*
X0144135Y0048364D01*
X0144038Y0048309D01*
X0143939Y0048257D01*
X0143838Y0048209D01*
X0143736Y0048164D01*
X0143632Y0048123D01*
X0143526Y0048086D01*
X0143420Y0048053D01*
X0143312Y0048023D01*
X0143203Y0047998D01*
X0143094Y0047976D01*
X0142983Y0047958D01*
X0142873Y0047944D01*
X0142761Y0047934D01*
X0142650Y0047928D01*
X0142538Y0047926D01*
X0142426Y0047928D01*
X0142315Y0047934D01*
X0142203Y0047944D01*
X0142093Y0047958D01*
X0141982Y0047976D01*
X0141873Y0047998D01*
X0141764Y0048023D01*
X0141656Y0048053D01*
X0141550Y0048086D01*
X0141444Y0048123D01*
X0141340Y0048164D01*
X0141238Y0048209D01*
X0141137Y0048257D01*
X0141038Y0048309D01*
X0140941Y0048364D01*
X0140846Y0048423D01*
X0140753Y0048485D01*
X0140662Y0048550D01*
X0140574Y0048619D01*
X0140488Y0048691D01*
X0140405Y0048765D01*
X0140325Y0048843D01*
X0140247Y0048923D01*
X0140173Y0049006D01*
X0140101Y0049092D01*
X0140032Y0049180D01*
X0139967Y0049271D01*
X0139905Y0049364D01*
X0139846Y0049459D01*
X0139791Y0049556D01*
X0139739Y0049655D01*
X0139691Y0049756D01*
X0139646Y0049858D01*
X0139605Y0049962D01*
X0139568Y0050068D01*
X0139535Y0050174D01*
X0139505Y0050282D01*
X0139480Y0050391D01*
X0139458Y0050500D01*
X0139440Y0050611D01*
X0139426Y0050721D01*
X0139416Y0050833D01*
X0139410Y0050944D01*
X0139408Y0051056D01*
X0100154Y0051073D02*
X0100156Y0051185D01*
X0100162Y0051296D01*
X0100172Y0051408D01*
X0100186Y0051518D01*
X0100204Y0051629D01*
X0100226Y0051738D01*
X0100251Y0051847D01*
X0100281Y0051955D01*
X0100314Y0052061D01*
X0100351Y0052167D01*
X0100392Y0052271D01*
X0100437Y0052373D01*
X0100485Y0052474D01*
X0100537Y0052573D01*
X0100592Y0052670D01*
X0100651Y0052765D01*
X0100713Y0052858D01*
X0100778Y0052949D01*
X0100847Y0053037D01*
X0100919Y0053123D01*
X0100993Y0053206D01*
X0101071Y0053286D01*
X0101151Y0053364D01*
X0101234Y0053438D01*
X0101320Y0053510D01*
X0101408Y0053579D01*
X0101499Y0053644D01*
X0101592Y0053706D01*
X0101687Y0053765D01*
X0101784Y0053820D01*
X0101883Y0053872D01*
X0101984Y0053920D01*
X0102086Y0053965D01*
X0102190Y0054006D01*
X0102296Y0054043D01*
X0102402Y0054076D01*
X0102510Y0054106D01*
X0102619Y0054131D01*
X0102728Y0054153D01*
X0102839Y0054171D01*
X0102949Y0054185D01*
X0103061Y0054195D01*
X0103172Y0054201D01*
X0103284Y0054203D01*
X0103396Y0054201D01*
X0103507Y0054195D01*
X0103619Y0054185D01*
X0103729Y0054171D01*
X0103840Y0054153D01*
X0103949Y0054131D01*
X0104058Y0054106D01*
X0104166Y0054076D01*
X0104272Y0054043D01*
X0104378Y0054006D01*
X0104482Y0053965D01*
X0104584Y0053920D01*
X0104685Y0053872D01*
X0104784Y0053820D01*
X0104881Y0053765D01*
X0104976Y0053706D01*
X0105069Y0053644D01*
X0105160Y0053579D01*
X0105248Y0053510D01*
X0105334Y0053438D01*
X0105417Y0053364D01*
X0105497Y0053286D01*
X0105575Y0053206D01*
X0105649Y0053123D01*
X0105721Y0053037D01*
X0105790Y0052949D01*
X0105855Y0052858D01*
X0105917Y0052765D01*
X0105976Y0052670D01*
X0106031Y0052573D01*
X0106083Y0052474D01*
X0106131Y0052373D01*
X0106176Y0052271D01*
X0106217Y0052167D01*
X0106254Y0052061D01*
X0106287Y0051955D01*
X0106317Y0051847D01*
X0106342Y0051738D01*
X0106364Y0051629D01*
X0106382Y0051518D01*
X0106396Y0051408D01*
X0106406Y0051296D01*
X0106412Y0051185D01*
X0106414Y0051073D01*
X0106412Y0050961D01*
X0106406Y0050850D01*
X0106396Y0050738D01*
X0106382Y0050628D01*
X0106364Y0050517D01*
X0106342Y0050408D01*
X0106317Y0050299D01*
X0106287Y0050191D01*
X0106254Y0050085D01*
X0106217Y0049979D01*
X0106176Y0049875D01*
X0106131Y0049773D01*
X0106083Y0049672D01*
X0106031Y0049573D01*
X0105976Y0049476D01*
X0105917Y0049381D01*
X0105855Y0049288D01*
X0105790Y0049197D01*
X0105721Y0049109D01*
X0105649Y0049023D01*
X0105575Y0048940D01*
X0105497Y0048860D01*
X0105417Y0048782D01*
X0105334Y0048708D01*
X0105248Y0048636D01*
X0105160Y0048567D01*
X0105069Y0048502D01*
X0104976Y0048440D01*
X0104881Y0048381D01*
X0104784Y0048326D01*
X0104685Y0048274D01*
X0104584Y0048226D01*
X0104482Y0048181D01*
X0104378Y0048140D01*
X0104272Y0048103D01*
X0104166Y0048070D01*
X0104058Y0048040D01*
X0103949Y0048015D01*
X0103840Y0047993D01*
X0103729Y0047975D01*
X0103619Y0047961D01*
X0103507Y0047951D01*
X0103396Y0047945D01*
X0103284Y0047943D01*
X0103172Y0047945D01*
X0103061Y0047951D01*
X0102949Y0047961D01*
X0102839Y0047975D01*
X0102728Y0047993D01*
X0102619Y0048015D01*
X0102510Y0048040D01*
X0102402Y0048070D01*
X0102296Y0048103D01*
X0102190Y0048140D01*
X0102086Y0048181D01*
X0101984Y0048226D01*
X0101883Y0048274D01*
X0101784Y0048326D01*
X0101687Y0048381D01*
X0101592Y0048440D01*
X0101499Y0048502D01*
X0101408Y0048567D01*
X0101320Y0048636D01*
X0101234Y0048708D01*
X0101151Y0048782D01*
X0101071Y0048860D01*
X0100993Y0048940D01*
X0100919Y0049023D01*
X0100847Y0049109D01*
X0100778Y0049197D01*
X0100713Y0049288D01*
X0100651Y0049381D01*
X0100592Y0049476D01*
X0100537Y0049573D01*
X0100485Y0049672D01*
X0100437Y0049773D01*
X0100392Y0049875D01*
X0100351Y0049979D01*
X0100314Y0050085D01*
X0100281Y0050191D01*
X0100251Y0050299D01*
X0100226Y0050408D01*
X0100204Y0050517D01*
X0100186Y0050628D01*
X0100172Y0050738D01*
X0100162Y0050850D01*
X0100156Y0050961D01*
X0100154Y0051073D01*
X0061160Y0051047D02*
X0061162Y0051159D01*
X0061168Y0051270D01*
X0061178Y0051382D01*
X0061192Y0051492D01*
X0061210Y0051603D01*
X0061232Y0051712D01*
X0061257Y0051821D01*
X0061287Y0051929D01*
X0061320Y0052035D01*
X0061357Y0052141D01*
X0061398Y0052245D01*
X0061443Y0052347D01*
X0061491Y0052448D01*
X0061543Y0052547D01*
X0061598Y0052644D01*
X0061657Y0052739D01*
X0061719Y0052832D01*
X0061784Y0052923D01*
X0061853Y0053011D01*
X0061925Y0053097D01*
X0061999Y0053180D01*
X0062077Y0053260D01*
X0062157Y0053338D01*
X0062240Y0053412D01*
X0062326Y0053484D01*
X0062414Y0053553D01*
X0062505Y0053618D01*
X0062598Y0053680D01*
X0062693Y0053739D01*
X0062790Y0053794D01*
X0062889Y0053846D01*
X0062990Y0053894D01*
X0063092Y0053939D01*
X0063196Y0053980D01*
X0063302Y0054017D01*
X0063408Y0054050D01*
X0063516Y0054080D01*
X0063625Y0054105D01*
X0063734Y0054127D01*
X0063845Y0054145D01*
X0063955Y0054159D01*
X0064067Y0054169D01*
X0064178Y0054175D01*
X0064290Y0054177D01*
X0064402Y0054175D01*
X0064513Y0054169D01*
X0064625Y0054159D01*
X0064735Y0054145D01*
X0064846Y0054127D01*
X0064955Y0054105D01*
X0065064Y0054080D01*
X0065172Y0054050D01*
X0065278Y0054017D01*
X0065384Y0053980D01*
X0065488Y0053939D01*
X0065590Y0053894D01*
X0065691Y0053846D01*
X0065790Y0053794D01*
X0065887Y0053739D01*
X0065982Y0053680D01*
X0066075Y0053618D01*
X0066166Y0053553D01*
X0066254Y0053484D01*
X0066340Y0053412D01*
X0066423Y0053338D01*
X0066503Y0053260D01*
X0066581Y0053180D01*
X0066655Y0053097D01*
X0066727Y0053011D01*
X0066796Y0052923D01*
X0066861Y0052832D01*
X0066923Y0052739D01*
X0066982Y0052644D01*
X0067037Y0052547D01*
X0067089Y0052448D01*
X0067137Y0052347D01*
X0067182Y0052245D01*
X0067223Y0052141D01*
X0067260Y0052035D01*
X0067293Y0051929D01*
X0067323Y0051821D01*
X0067348Y0051712D01*
X0067370Y0051603D01*
X0067388Y0051492D01*
X0067402Y0051382D01*
X0067412Y0051270D01*
X0067418Y0051159D01*
X0067420Y0051047D01*
X0067418Y0050935D01*
X0067412Y0050824D01*
X0067402Y0050712D01*
X0067388Y0050602D01*
X0067370Y0050491D01*
X0067348Y0050382D01*
X0067323Y0050273D01*
X0067293Y0050165D01*
X0067260Y0050059D01*
X0067223Y0049953D01*
X0067182Y0049849D01*
X0067137Y0049747D01*
X0067089Y0049646D01*
X0067037Y0049547D01*
X0066982Y0049450D01*
X0066923Y0049355D01*
X0066861Y0049262D01*
X0066796Y0049171D01*
X0066727Y0049083D01*
X0066655Y0048997D01*
X0066581Y0048914D01*
X0066503Y0048834D01*
X0066423Y0048756D01*
X0066340Y0048682D01*
X0066254Y0048610D01*
X0066166Y0048541D01*
X0066075Y0048476D01*
X0065982Y0048414D01*
X0065887Y0048355D01*
X0065790Y0048300D01*
X0065691Y0048248D01*
X0065590Y0048200D01*
X0065488Y0048155D01*
X0065384Y0048114D01*
X0065278Y0048077D01*
X0065172Y0048044D01*
X0065064Y0048014D01*
X0064955Y0047989D01*
X0064846Y0047967D01*
X0064735Y0047949D01*
X0064625Y0047935D01*
X0064513Y0047925D01*
X0064402Y0047919D01*
X0064290Y0047917D01*
X0064178Y0047919D01*
X0064067Y0047925D01*
X0063955Y0047935D01*
X0063845Y0047949D01*
X0063734Y0047967D01*
X0063625Y0047989D01*
X0063516Y0048014D01*
X0063408Y0048044D01*
X0063302Y0048077D01*
X0063196Y0048114D01*
X0063092Y0048155D01*
X0062990Y0048200D01*
X0062889Y0048248D01*
X0062790Y0048300D01*
X0062693Y0048355D01*
X0062598Y0048414D01*
X0062505Y0048476D01*
X0062414Y0048541D01*
X0062326Y0048610D01*
X0062240Y0048682D01*
X0062157Y0048756D01*
X0062077Y0048834D01*
X0061999Y0048914D01*
X0061925Y0048997D01*
X0061853Y0049083D01*
X0061784Y0049171D01*
X0061719Y0049262D01*
X0061657Y0049355D01*
X0061598Y0049450D01*
X0061543Y0049547D01*
X0061491Y0049646D01*
X0061443Y0049747D01*
X0061398Y0049849D01*
X0061357Y0049953D01*
X0061320Y0050059D01*
X0061287Y0050165D01*
X0061257Y0050273D01*
X0061232Y0050382D01*
X0061210Y0050491D01*
X0061192Y0050602D01*
X0061178Y0050712D01*
X0061168Y0050824D01*
X0061162Y0050935D01*
X0061160Y0051047D01*
X0094615Y0021019D02*
X0094617Y0021131D01*
X0094623Y0021242D01*
X0094633Y0021354D01*
X0094647Y0021464D01*
X0094665Y0021575D01*
X0094687Y0021684D01*
X0094712Y0021793D01*
X0094742Y0021901D01*
X0094775Y0022007D01*
X0094812Y0022113D01*
X0094853Y0022217D01*
X0094898Y0022319D01*
X0094946Y0022420D01*
X0094998Y0022519D01*
X0095053Y0022616D01*
X0095112Y0022711D01*
X0095174Y0022804D01*
X0095239Y0022895D01*
X0095308Y0022983D01*
X0095380Y0023069D01*
X0095454Y0023152D01*
X0095532Y0023232D01*
X0095612Y0023310D01*
X0095695Y0023384D01*
X0095781Y0023456D01*
X0095869Y0023525D01*
X0095960Y0023590D01*
X0096053Y0023652D01*
X0096148Y0023711D01*
X0096245Y0023766D01*
X0096344Y0023818D01*
X0096445Y0023866D01*
X0096547Y0023911D01*
X0096651Y0023952D01*
X0096757Y0023989D01*
X0096863Y0024022D01*
X0096971Y0024052D01*
X0097080Y0024077D01*
X0097189Y0024099D01*
X0097300Y0024117D01*
X0097410Y0024131D01*
X0097522Y0024141D01*
X0097633Y0024147D01*
X0097745Y0024149D01*
X0097857Y0024147D01*
X0097968Y0024141D01*
X0098080Y0024131D01*
X0098190Y0024117D01*
X0098301Y0024099D01*
X0098410Y0024077D01*
X0098519Y0024052D01*
X0098627Y0024022D01*
X0098733Y0023989D01*
X0098839Y0023952D01*
X0098943Y0023911D01*
X0099045Y0023866D01*
X0099146Y0023818D01*
X0099245Y0023766D01*
X0099342Y0023711D01*
X0099437Y0023652D01*
X0099530Y0023590D01*
X0099621Y0023525D01*
X0099709Y0023456D01*
X0099795Y0023384D01*
X0099878Y0023310D01*
X0099958Y0023232D01*
X0100036Y0023152D01*
X0100110Y0023069D01*
X0100182Y0022983D01*
X0100251Y0022895D01*
X0100316Y0022804D01*
X0100378Y0022711D01*
X0100437Y0022616D01*
X0100492Y0022519D01*
X0100544Y0022420D01*
X0100592Y0022319D01*
X0100637Y0022217D01*
X0100678Y0022113D01*
X0100715Y0022007D01*
X0100748Y0021901D01*
X0100778Y0021793D01*
X0100803Y0021684D01*
X0100825Y0021575D01*
X0100843Y0021464D01*
X0100857Y0021354D01*
X0100867Y0021242D01*
X0100873Y0021131D01*
X0100875Y0021019D01*
X0100873Y0020907D01*
X0100867Y0020796D01*
X0100857Y0020684D01*
X0100843Y0020574D01*
X0100825Y0020463D01*
X0100803Y0020354D01*
X0100778Y0020245D01*
X0100748Y0020137D01*
X0100715Y0020031D01*
X0100678Y0019925D01*
X0100637Y0019821D01*
X0100592Y0019719D01*
X0100544Y0019618D01*
X0100492Y0019519D01*
X0100437Y0019422D01*
X0100378Y0019327D01*
X0100316Y0019234D01*
X0100251Y0019143D01*
X0100182Y0019055D01*
X0100110Y0018969D01*
X0100036Y0018886D01*
X0099958Y0018806D01*
X0099878Y0018728D01*
X0099795Y0018654D01*
X0099709Y0018582D01*
X0099621Y0018513D01*
X0099530Y0018448D01*
X0099437Y0018386D01*
X0099342Y0018327D01*
X0099245Y0018272D01*
X0099146Y0018220D01*
X0099045Y0018172D01*
X0098943Y0018127D01*
X0098839Y0018086D01*
X0098733Y0018049D01*
X0098627Y0018016D01*
X0098519Y0017986D01*
X0098410Y0017961D01*
X0098301Y0017939D01*
X0098190Y0017921D01*
X0098080Y0017907D01*
X0097968Y0017897D01*
X0097857Y0017891D01*
X0097745Y0017889D01*
X0097633Y0017891D01*
X0097522Y0017897D01*
X0097410Y0017907D01*
X0097300Y0017921D01*
X0097189Y0017939D01*
X0097080Y0017961D01*
X0096971Y0017986D01*
X0096863Y0018016D01*
X0096757Y0018049D01*
X0096651Y0018086D01*
X0096547Y0018127D01*
X0096445Y0018172D01*
X0096344Y0018220D01*
X0096245Y0018272D01*
X0096148Y0018327D01*
X0096053Y0018386D01*
X0095960Y0018448D01*
X0095869Y0018513D01*
X0095781Y0018582D01*
X0095695Y0018654D01*
X0095612Y0018728D01*
X0095532Y0018806D01*
X0095454Y0018886D01*
X0095380Y0018969D01*
X0095308Y0019055D01*
X0095239Y0019143D01*
X0095174Y0019234D01*
X0095112Y0019327D01*
X0095053Y0019422D01*
X0094998Y0019519D01*
X0094946Y0019618D01*
X0094898Y0019719D01*
X0094853Y0019821D01*
X0094812Y0019925D01*
X0094775Y0020031D01*
X0094742Y0020137D01*
X0094712Y0020245D01*
X0094687Y0020354D01*
X0094665Y0020463D01*
X0094647Y0020574D01*
X0094633Y0020684D01*
X0094623Y0020796D01*
X0094617Y0020907D01*
X0094615Y0021019D01*
X0133831Y0020990D02*
X0133833Y0021102D01*
X0133839Y0021213D01*
X0133849Y0021325D01*
X0133863Y0021435D01*
X0133881Y0021546D01*
X0133903Y0021655D01*
X0133928Y0021764D01*
X0133958Y0021872D01*
X0133991Y0021978D01*
X0134028Y0022084D01*
X0134069Y0022188D01*
X0134114Y0022290D01*
X0134162Y0022391D01*
X0134214Y0022490D01*
X0134269Y0022587D01*
X0134328Y0022682D01*
X0134390Y0022775D01*
X0134455Y0022866D01*
X0134524Y0022954D01*
X0134596Y0023040D01*
X0134670Y0023123D01*
X0134748Y0023203D01*
X0134828Y0023281D01*
X0134911Y0023355D01*
X0134997Y0023427D01*
X0135085Y0023496D01*
X0135176Y0023561D01*
X0135269Y0023623D01*
X0135364Y0023682D01*
X0135461Y0023737D01*
X0135560Y0023789D01*
X0135661Y0023837D01*
X0135763Y0023882D01*
X0135867Y0023923D01*
X0135973Y0023960D01*
X0136079Y0023993D01*
X0136187Y0024023D01*
X0136296Y0024048D01*
X0136405Y0024070D01*
X0136516Y0024088D01*
X0136626Y0024102D01*
X0136738Y0024112D01*
X0136849Y0024118D01*
X0136961Y0024120D01*
X0137073Y0024118D01*
X0137184Y0024112D01*
X0137296Y0024102D01*
X0137406Y0024088D01*
X0137517Y0024070D01*
X0137626Y0024048D01*
X0137735Y0024023D01*
X0137843Y0023993D01*
X0137949Y0023960D01*
X0138055Y0023923D01*
X0138159Y0023882D01*
X0138261Y0023837D01*
X0138362Y0023789D01*
X0138461Y0023737D01*
X0138558Y0023682D01*
X0138653Y0023623D01*
X0138746Y0023561D01*
X0138837Y0023496D01*
X0138925Y0023427D01*
X0139011Y0023355D01*
X0139094Y0023281D01*
X0139174Y0023203D01*
X0139252Y0023123D01*
X0139326Y0023040D01*
X0139398Y0022954D01*
X0139467Y0022866D01*
X0139532Y0022775D01*
X0139594Y0022682D01*
X0139653Y0022587D01*
X0139708Y0022490D01*
X0139760Y0022391D01*
X0139808Y0022290D01*
X0139853Y0022188D01*
X0139894Y0022084D01*
X0139931Y0021978D01*
X0139964Y0021872D01*
X0139994Y0021764D01*
X0140019Y0021655D01*
X0140041Y0021546D01*
X0140059Y0021435D01*
X0140073Y0021325D01*
X0140083Y0021213D01*
X0140089Y0021102D01*
X0140091Y0020990D01*
X0140089Y0020878D01*
X0140083Y0020767D01*
X0140073Y0020655D01*
X0140059Y0020545D01*
X0140041Y0020434D01*
X0140019Y0020325D01*
X0139994Y0020216D01*
X0139964Y0020108D01*
X0139931Y0020002D01*
X0139894Y0019896D01*
X0139853Y0019792D01*
X0139808Y0019690D01*
X0139760Y0019589D01*
X0139708Y0019490D01*
X0139653Y0019393D01*
X0139594Y0019298D01*
X0139532Y0019205D01*
X0139467Y0019114D01*
X0139398Y0019026D01*
X0139326Y0018940D01*
X0139252Y0018857D01*
X0139174Y0018777D01*
X0139094Y0018699D01*
X0139011Y0018625D01*
X0138925Y0018553D01*
X0138837Y0018484D01*
X0138746Y0018419D01*
X0138653Y0018357D01*
X0138558Y0018298D01*
X0138461Y0018243D01*
X0138362Y0018191D01*
X0138261Y0018143D01*
X0138159Y0018098D01*
X0138055Y0018057D01*
X0137949Y0018020D01*
X0137843Y0017987D01*
X0137735Y0017957D01*
X0137626Y0017932D01*
X0137517Y0017910D01*
X0137406Y0017892D01*
X0137296Y0017878D01*
X0137184Y0017868D01*
X0137073Y0017862D01*
X0136961Y0017860D01*
X0136849Y0017862D01*
X0136738Y0017868D01*
X0136626Y0017878D01*
X0136516Y0017892D01*
X0136405Y0017910D01*
X0136296Y0017932D01*
X0136187Y0017957D01*
X0136079Y0017987D01*
X0135973Y0018020D01*
X0135867Y0018057D01*
X0135763Y0018098D01*
X0135661Y0018143D01*
X0135560Y0018191D01*
X0135461Y0018243D01*
X0135364Y0018298D01*
X0135269Y0018357D01*
X0135176Y0018419D01*
X0135085Y0018484D01*
X0134997Y0018553D01*
X0134911Y0018625D01*
X0134828Y0018699D01*
X0134748Y0018777D01*
X0134670Y0018857D01*
X0134596Y0018940D01*
X0134524Y0019026D01*
X0134455Y0019114D01*
X0134390Y0019205D01*
X0134328Y0019298D01*
X0134269Y0019393D01*
X0134214Y0019490D01*
X0134162Y0019589D01*
X0134114Y0019690D01*
X0134069Y0019792D01*
X0134028Y0019896D01*
X0133991Y0020002D01*
X0133958Y0020108D01*
X0133928Y0020216D01*
X0133903Y0020325D01*
X0133881Y0020434D01*
X0133863Y0020545D01*
X0133849Y0020655D01*
X0133839Y0020767D01*
X0133833Y0020878D01*
X0133831Y0020990D01*
X0172919Y0021028D02*
X0172921Y0021140D01*
X0172927Y0021251D01*
X0172937Y0021363D01*
X0172951Y0021473D01*
X0172969Y0021584D01*
X0172991Y0021693D01*
X0173016Y0021802D01*
X0173046Y0021910D01*
X0173079Y0022016D01*
X0173116Y0022122D01*
X0173157Y0022226D01*
X0173202Y0022328D01*
X0173250Y0022429D01*
X0173302Y0022528D01*
X0173357Y0022625D01*
X0173416Y0022720D01*
X0173478Y0022813D01*
X0173543Y0022904D01*
X0173612Y0022992D01*
X0173684Y0023078D01*
X0173758Y0023161D01*
X0173836Y0023241D01*
X0173916Y0023319D01*
X0173999Y0023393D01*
X0174085Y0023465D01*
X0174173Y0023534D01*
X0174264Y0023599D01*
X0174357Y0023661D01*
X0174452Y0023720D01*
X0174549Y0023775D01*
X0174648Y0023827D01*
X0174749Y0023875D01*
X0174851Y0023920D01*
X0174955Y0023961D01*
X0175061Y0023998D01*
X0175167Y0024031D01*
X0175275Y0024061D01*
X0175384Y0024086D01*
X0175493Y0024108D01*
X0175604Y0024126D01*
X0175714Y0024140D01*
X0175826Y0024150D01*
X0175937Y0024156D01*
X0176049Y0024158D01*
X0176161Y0024156D01*
X0176272Y0024150D01*
X0176384Y0024140D01*
X0176494Y0024126D01*
X0176605Y0024108D01*
X0176714Y0024086D01*
X0176823Y0024061D01*
X0176931Y0024031D01*
X0177037Y0023998D01*
X0177143Y0023961D01*
X0177247Y0023920D01*
X0177349Y0023875D01*
X0177450Y0023827D01*
X0177549Y0023775D01*
X0177646Y0023720D01*
X0177741Y0023661D01*
X0177834Y0023599D01*
X0177925Y0023534D01*
X0178013Y0023465D01*
X0178099Y0023393D01*
X0178182Y0023319D01*
X0178262Y0023241D01*
X0178340Y0023161D01*
X0178414Y0023078D01*
X0178486Y0022992D01*
X0178555Y0022904D01*
X0178620Y0022813D01*
X0178682Y0022720D01*
X0178741Y0022625D01*
X0178796Y0022528D01*
X0178848Y0022429D01*
X0178896Y0022328D01*
X0178941Y0022226D01*
X0178982Y0022122D01*
X0179019Y0022016D01*
X0179052Y0021910D01*
X0179082Y0021802D01*
X0179107Y0021693D01*
X0179129Y0021584D01*
X0179147Y0021473D01*
X0179161Y0021363D01*
X0179171Y0021251D01*
X0179177Y0021140D01*
X0179179Y0021028D01*
X0179177Y0020916D01*
X0179171Y0020805D01*
X0179161Y0020693D01*
X0179147Y0020583D01*
X0179129Y0020472D01*
X0179107Y0020363D01*
X0179082Y0020254D01*
X0179052Y0020146D01*
X0179019Y0020040D01*
X0178982Y0019934D01*
X0178941Y0019830D01*
X0178896Y0019728D01*
X0178848Y0019627D01*
X0178796Y0019528D01*
X0178741Y0019431D01*
X0178682Y0019336D01*
X0178620Y0019243D01*
X0178555Y0019152D01*
X0178486Y0019064D01*
X0178414Y0018978D01*
X0178340Y0018895D01*
X0178262Y0018815D01*
X0178182Y0018737D01*
X0178099Y0018663D01*
X0178013Y0018591D01*
X0177925Y0018522D01*
X0177834Y0018457D01*
X0177741Y0018395D01*
X0177646Y0018336D01*
X0177549Y0018281D01*
X0177450Y0018229D01*
X0177349Y0018181D01*
X0177247Y0018136D01*
X0177143Y0018095D01*
X0177037Y0018058D01*
X0176931Y0018025D01*
X0176823Y0017995D01*
X0176714Y0017970D01*
X0176605Y0017948D01*
X0176494Y0017930D01*
X0176384Y0017916D01*
X0176272Y0017906D01*
X0176161Y0017900D01*
X0176049Y0017898D01*
X0175937Y0017900D01*
X0175826Y0017906D01*
X0175714Y0017916D01*
X0175604Y0017930D01*
X0175493Y0017948D01*
X0175384Y0017970D01*
X0175275Y0017995D01*
X0175167Y0018025D01*
X0175061Y0018058D01*
X0174955Y0018095D01*
X0174851Y0018136D01*
X0174749Y0018181D01*
X0174648Y0018229D01*
X0174549Y0018281D01*
X0174452Y0018336D01*
X0174357Y0018395D01*
X0174264Y0018457D01*
X0174173Y0018522D01*
X0174085Y0018591D01*
X0173999Y0018663D01*
X0173916Y0018737D01*
X0173836Y0018815D01*
X0173758Y0018895D01*
X0173684Y0018978D01*
X0173612Y0019064D01*
X0173543Y0019152D01*
X0173478Y0019243D01*
X0173416Y0019336D01*
X0173357Y0019431D01*
X0173302Y0019528D01*
X0173250Y0019627D01*
X0173202Y0019728D01*
X0173157Y0019830D01*
X0173116Y0019934D01*
X0173079Y0020040D01*
X0173046Y0020146D01*
X0173016Y0020254D01*
X0172991Y0020363D01*
X0172969Y0020472D01*
X0172951Y0020583D01*
X0172937Y0020693D01*
X0172927Y0020805D01*
X0172921Y0020916D01*
X0172919Y0021028D01*
X0211936Y0021001D02*
X0211938Y0021113D01*
X0211944Y0021224D01*
X0211954Y0021336D01*
X0211968Y0021446D01*
X0211986Y0021557D01*
X0212008Y0021666D01*
X0212033Y0021775D01*
X0212063Y0021883D01*
X0212096Y0021989D01*
X0212133Y0022095D01*
X0212174Y0022199D01*
X0212219Y0022301D01*
X0212267Y0022402D01*
X0212319Y0022501D01*
X0212374Y0022598D01*
X0212433Y0022693D01*
X0212495Y0022786D01*
X0212560Y0022877D01*
X0212629Y0022965D01*
X0212701Y0023051D01*
X0212775Y0023134D01*
X0212853Y0023214D01*
X0212933Y0023292D01*
X0213016Y0023366D01*
X0213102Y0023438D01*
X0213190Y0023507D01*
X0213281Y0023572D01*
X0213374Y0023634D01*
X0213469Y0023693D01*
X0213566Y0023748D01*
X0213665Y0023800D01*
X0213766Y0023848D01*
X0213868Y0023893D01*
X0213972Y0023934D01*
X0214078Y0023971D01*
X0214184Y0024004D01*
X0214292Y0024034D01*
X0214401Y0024059D01*
X0214510Y0024081D01*
X0214621Y0024099D01*
X0214731Y0024113D01*
X0214843Y0024123D01*
X0214954Y0024129D01*
X0215066Y0024131D01*
X0215178Y0024129D01*
X0215289Y0024123D01*
X0215401Y0024113D01*
X0215511Y0024099D01*
X0215622Y0024081D01*
X0215731Y0024059D01*
X0215840Y0024034D01*
X0215948Y0024004D01*
X0216054Y0023971D01*
X0216160Y0023934D01*
X0216264Y0023893D01*
X0216366Y0023848D01*
X0216467Y0023800D01*
X0216566Y0023748D01*
X0216663Y0023693D01*
X0216758Y0023634D01*
X0216851Y0023572D01*
X0216942Y0023507D01*
X0217030Y0023438D01*
X0217116Y0023366D01*
X0217199Y0023292D01*
X0217279Y0023214D01*
X0217357Y0023134D01*
X0217431Y0023051D01*
X0217503Y0022965D01*
X0217572Y0022877D01*
X0217637Y0022786D01*
X0217699Y0022693D01*
X0217758Y0022598D01*
X0217813Y0022501D01*
X0217865Y0022402D01*
X0217913Y0022301D01*
X0217958Y0022199D01*
X0217999Y0022095D01*
X0218036Y0021989D01*
X0218069Y0021883D01*
X0218099Y0021775D01*
X0218124Y0021666D01*
X0218146Y0021557D01*
X0218164Y0021446D01*
X0218178Y0021336D01*
X0218188Y0021224D01*
X0218194Y0021113D01*
X0218196Y0021001D01*
X0218194Y0020889D01*
X0218188Y0020778D01*
X0218178Y0020666D01*
X0218164Y0020556D01*
X0218146Y0020445D01*
X0218124Y0020336D01*
X0218099Y0020227D01*
X0218069Y0020119D01*
X0218036Y0020013D01*
X0217999Y0019907D01*
X0217958Y0019803D01*
X0217913Y0019701D01*
X0217865Y0019600D01*
X0217813Y0019501D01*
X0217758Y0019404D01*
X0217699Y0019309D01*
X0217637Y0019216D01*
X0217572Y0019125D01*
X0217503Y0019037D01*
X0217431Y0018951D01*
X0217357Y0018868D01*
X0217279Y0018788D01*
X0217199Y0018710D01*
X0217116Y0018636D01*
X0217030Y0018564D01*
X0216942Y0018495D01*
X0216851Y0018430D01*
X0216758Y0018368D01*
X0216663Y0018309D01*
X0216566Y0018254D01*
X0216467Y0018202D01*
X0216366Y0018154D01*
X0216264Y0018109D01*
X0216160Y0018068D01*
X0216054Y0018031D01*
X0215948Y0017998D01*
X0215840Y0017968D01*
X0215731Y0017943D01*
X0215622Y0017921D01*
X0215511Y0017903D01*
X0215401Y0017889D01*
X0215289Y0017879D01*
X0215178Y0017873D01*
X0215066Y0017871D01*
X0214954Y0017873D01*
X0214843Y0017879D01*
X0214731Y0017889D01*
X0214621Y0017903D01*
X0214510Y0017921D01*
X0214401Y0017943D01*
X0214292Y0017968D01*
X0214184Y0017998D01*
X0214078Y0018031D01*
X0213972Y0018068D01*
X0213868Y0018109D01*
X0213766Y0018154D01*
X0213665Y0018202D01*
X0213566Y0018254D01*
X0213469Y0018309D01*
X0213374Y0018368D01*
X0213281Y0018430D01*
X0213190Y0018495D01*
X0213102Y0018564D01*
X0213016Y0018636D01*
X0212933Y0018710D01*
X0212853Y0018788D01*
X0212775Y0018868D01*
X0212701Y0018951D01*
X0212629Y0019037D01*
X0212560Y0019125D01*
X0212495Y0019216D01*
X0212433Y0019309D01*
X0212374Y0019404D01*
X0212319Y0019501D01*
X0212267Y0019600D01*
X0212219Y0019701D01*
X0212174Y0019803D01*
X0212133Y0019907D01*
X0212096Y0020013D01*
X0212063Y0020119D01*
X0212033Y0020227D01*
X0212008Y0020336D01*
X0211986Y0020445D01*
X0211968Y0020556D01*
X0211954Y0020666D01*
X0211944Y0020778D01*
X0211938Y0020889D01*
X0211936Y0021001D01*
M02*
