%
M48
M72
T01C0.01181
T02C0.02756
T03C0.06260
%
T01
X26305Y50861
X72226Y58651
X84659Y58497
X109069Y58891
X123636Y58891
X116943Y54954
X131903Y54954
X148045Y58891
X156706Y54954
X171273Y54954
X163399Y58891
X187257Y58891
X197242Y54954
X209995Y54954
X202138Y58891
X219832Y61069
X223734Y55923
X239758Y55510
X251557Y58909
X266576Y59746
X245405Y63550
X226703Y44781
X53044Y32460
X45936Y31743
X53761Y21487
X34090Y17021
X39379Y15753
X30123Y19447
X26210Y21487
X200949Y13692
X206146Y11083
X218967Y18179
X216267Y26174
T02
X70273Y46302
X91662Y46302
X109451Y46329
X130839Y46329
X148557Y46306
X169946Y46306
X187734Y46333
X209123Y46333
X238522Y46333
X259911Y46333
X259913Y36541
X238522Y36541
X209126Y36541
X187734Y36541
X169948Y36514
X148557Y36514
X130842Y36537
X109451Y36537
X91665Y36510
X70273Y36510
X70273Y26782
X91684Y26782
X109451Y26809
X130862Y26809
X148557Y26786
X169968Y26786
X187734Y26813
X209145Y26813
X238522Y26813
X259933Y26813
X50842Y56950
X40772Y56950
X31234Y56950
X21165Y56950
T03
X64290Y51047
X103284Y51073
X142538Y51056
X181547Y50976
X232476Y50944
X215066Y21001
X176049Y21028
X136961Y20990
X97745Y21019
M30
