%
M48
M72
T01C0.02362
T02C0.03150
%
T01
X78396Y5219
X78396Y10140
X78396Y15062
X78396Y19983
X78396Y24904
X78396Y29825
X78396Y34747
X78396Y39668
X78396Y44589
X78396Y49510
X94120Y49513
X94120Y44591
X94120Y39670
X94120Y34749
X94120Y29828
X94120Y24906
X94120Y19985
X94120Y15064
X94120Y10143
X94120Y5221
T02
X16386Y39657
X24260Y39657
X32134Y39657
X40008Y39657
X47882Y39657
X55756Y39657
X55756Y47531
X47882Y47531
X40008Y47531
X32134Y47531
X24260Y47531
X16386Y47531
M30
