%
M48
M72
T01C0.01575
T02C0.01772
T03C0.03150
T04C0.03543
%
T01
X53308Y29064
X53310Y33984
X54109Y53308
X49189Y53310
T02
X144412Y30169
X160122Y34106
X175947Y38030
T03
X120773Y61257
X128647Y61257
X136521Y61257
X144395Y61257
X152269Y61257
X160143Y61257
X168017Y61257
X175891Y61257
X183765Y61257
T04
X70866Y44799
X78740Y44799
X86615Y44799
X94489Y44799
X102363Y44799
X102363Y52673
X94489Y52673
X86615Y52673
X78740Y52673
X70866Y52673
M30
