G75*
%MOIN*%
%OFA0B0*%
%FSLAX25Y25*%
%IPPOS*%
%LPD*%
%AMOC8*
5,1,8,0,0,1.08239X$1,22.5*
%
%ADD10C,0.00600*%
%ADD11R,0.04724X0.04724*%
%ADD12C,0.04724*%
%ADD13C,0.05543*%
%ADD14R,0.05543X0.05543*%
%ADD15R,0.03150X0.06299*%
%ADD16R,0.08268X0.11811*%
%ADD17R,0.06299X0.03150*%
%ADD18R,0.11811X0.08268*%
%ADD19R,0.03150X0.03150*%
%ADD20C,0.03150*%
%ADD21C,0.04750*%
%ADD22C,0.03175*%
%ADD23C,0.01200*%
%ADD24C,0.02000*%
%ADD25C,0.03372*%
D10*
X0032247Y0013642D02*
X0032247Y0074665D01*
X0189728Y0074665D01*
X0189728Y0013642D01*
X0032247Y0013642D01*
D11*
X0120773Y0061257D03*
X0128647Y0061257D03*
X0136521Y0061257D03*
X0144395Y0061257D03*
X0152269Y0061257D03*
X0160143Y0061257D03*
X0168017Y0061257D03*
X0175891Y0061257D03*
X0183765Y0061257D03*
D12*
X0183765Y0063312D03*
X0183770Y0059101D03*
X0175896Y0059101D03*
X0168022Y0059101D03*
X0168017Y0063312D03*
X0175891Y0063312D03*
X0160143Y0063312D03*
X0152269Y0063312D03*
X0144395Y0063312D03*
X0144400Y0059101D03*
X0152274Y0059101D03*
X0160148Y0059101D03*
X0136526Y0059101D03*
X0128652Y0059101D03*
X0120778Y0059101D03*
X0120773Y0063312D03*
X0128647Y0063312D03*
X0136521Y0063312D03*
D13*
X0102363Y0052673D03*
X0094489Y0052673D03*
X0086615Y0052673D03*
X0078740Y0052673D03*
X0078740Y0044799D03*
X0070866Y0044799D03*
X0086615Y0044799D03*
X0094489Y0044799D03*
X0102363Y0044799D03*
D14*
X0070866Y0052673D03*
D15*
X0054111Y0054883D03*
X0049190Y0054883D03*
D16*
X0039150Y0066300D03*
X0064150Y0066300D03*
D17*
X0051735Y0033982D03*
X0051735Y0029061D03*
D18*
X0040317Y0019022D03*
X0040317Y0044022D03*
D19*
X0049189Y0053310D03*
X0054109Y0053308D03*
X0053310Y0033984D03*
X0053308Y0029064D03*
D20*
X0054783Y0029064D03*
X0051800Y0029064D03*
X0051802Y0033984D03*
X0054786Y0033984D03*
X0054109Y0051800D03*
X0049189Y0051802D03*
X0049189Y0054786D03*
X0054109Y0054783D03*
D21*
X0120773Y0061257D03*
X0128647Y0061257D03*
X0136521Y0061257D03*
X0144395Y0061257D03*
X0152269Y0061257D03*
X0160143Y0061257D03*
X0168017Y0061257D03*
X0175891Y0061257D03*
X0183765Y0061257D03*
D22*
X0054109Y0053308D03*
X0049189Y0053310D03*
X0053310Y0033984D03*
X0053308Y0029064D03*
D23*
X0054131Y0033984D02*
X0078846Y0033984D01*
X0078846Y0045009D01*
X0086645Y0044800D02*
X0086645Y0038919D01*
X0091496Y0034067D01*
X0160107Y0034067D01*
X0144439Y0030146D02*
X0082513Y0030146D01*
X0078592Y0034067D01*
X0094594Y0040982D02*
X0097336Y0038099D01*
X0175896Y0038085D01*
X0180700Y0046455D02*
X0183900Y0049654D01*
X0183900Y0061214D01*
X0168103Y0061317D02*
X0168103Y0053886D01*
X0163562Y0049345D01*
X0117513Y0049345D01*
X0108017Y0058840D01*
X0097795Y0058840D01*
X0094491Y0055536D01*
X0094491Y0052647D01*
X0102441Y0052647D02*
X0110185Y0052647D01*
X0116378Y0046455D01*
X0180700Y0046455D01*
X0152410Y0054281D02*
X0152410Y0061420D01*
X0152410Y0054281D02*
X0150346Y0052217D01*
X0118850Y0052217D01*
X0109337Y0061730D01*
X0092735Y0061730D01*
X0086566Y0055561D01*
X0086566Y0053004D01*
X0094594Y0044800D02*
X0094594Y0040982D01*
X0054131Y0033984D02*
X0054131Y0053298D01*
D24*
X0078695Y0052647D02*
X0095587Y0069539D01*
X0134598Y0069539D01*
X0136511Y0067626D01*
X0136511Y0061317D01*
D25*
X0175947Y0038030D03*
X0160122Y0034106D03*
X0144412Y0030169D03*
M02*
