G75*
%MOIN*%
%OFA0B0*%
%FSLAX25Y25*%
%IPPOS*%
%LPD*%
%AMOC8*
5,1,8,0,0,1.08239X$1,22.5*
%
%ADD10C,0.00600*%
%ADD11C,0.05543*%
%ADD12R,0.05543X0.05543*%
%ADD13R,0.03150X0.03150*%
%ADD14C,0.03150*%
%ADD15C,0.04750*%
%ADD16C,0.03175*%
%ADD17C,0.03372*%
%ADD18C,0.01200*%
%ADD19C,0.02000*%
D10*
X0032247Y0013642D02*
X0032247Y0074665D01*
X0189728Y0074665D01*
X0189728Y0013642D01*
X0032247Y0013642D01*
D11*
X0070866Y0044799D03*
X0078740Y0044799D03*
X0086615Y0044799D03*
X0094489Y0044799D03*
X0102363Y0044799D03*
X0102363Y0052673D03*
X0094489Y0052673D03*
X0086615Y0052673D03*
X0078740Y0052673D03*
D12*
X0070866Y0052673D03*
D13*
X0054109Y0053308D03*
X0049189Y0053310D03*
X0053310Y0033984D03*
X0053308Y0029064D03*
D14*
X0054783Y0029064D03*
X0051800Y0029064D03*
X0051802Y0033984D03*
X0054786Y0033984D03*
X0054109Y0051800D03*
X0049189Y0051802D03*
X0049189Y0054786D03*
X0054109Y0054783D03*
D15*
X0120773Y0061257D03*
X0128647Y0061257D03*
X0136521Y0061257D03*
X0144395Y0061257D03*
X0152269Y0061257D03*
X0160143Y0061257D03*
X0168017Y0061257D03*
X0175891Y0061257D03*
X0183765Y0061257D03*
D16*
X0054109Y0053308D03*
X0049189Y0053310D03*
X0053310Y0033984D03*
X0053308Y0029064D03*
D17*
X0144412Y0030169D03*
X0160122Y0034106D03*
X0175947Y0038030D03*
D18*
X0175895Y0038100D02*
X0175895Y0061258D01*
X0160141Y0061266D02*
X0160141Y0034048D01*
X0144441Y0030147D02*
X0144441Y0061212D01*
X0128665Y0061312D02*
X0128665Y0043253D01*
X0124433Y0039021D01*
X0051645Y0039021D01*
X0049168Y0041499D01*
X0049168Y0053262D01*
X0070905Y0044823D02*
X0070905Y0039125D01*
X0061194Y0038986D02*
X0061194Y0032217D01*
X0058033Y0029055D01*
X0053306Y0029055D01*
D19*
X0070892Y0052650D02*
X0070892Y0056613D01*
X0072626Y0058348D01*
X0082290Y0058348D01*
X0085139Y0061197D01*
X0120822Y0061197D01*
M02*
